M48
; DRILL file {KiCad 5.1.5-52549c5~84~ubuntu18.04.1} date Thu 09 Apr 2020 06:33:08 PM EDT
; FORMAT={-:-/ absolute / inch / decimal}
; #@! TF.CreationDate,2020-04-09T18:33:08-04:00
; #@! TF.GenerationSoftware,Kicad,Pcbnew,5.1.5-52549c5~84~ubuntu18.04.1
; #@! TF.FileFunction,Plated,1,2,PTH
FMAT,2
INCH
T1C0.0315
T2C0.0433
T3C0.0472
T4C0.0472
%
G90
G05
T1
X7.0425Y-4.3504
X7.3425Y-4.3504
X6.3386Y-5.1575
X6.3386Y-5.2559
X6.3386Y-5.389
X6.3386Y-5.689
X7.0276Y-4.5866
X7.0276Y-4.6866
X7.0276Y-4.7866
X7.0276Y-4.8866
X7.3276Y-4.5866
X7.3276Y-4.6866
X7.3276Y-4.7866
X7.3276Y-4.8866
X6.6929Y-4.3898
X6.6929Y-4.6898
X6.5354Y-5.1378
X6.5354Y-5.2378
X6.5354Y-5.3378
X6.5354Y-5.4378
X6.5354Y-5.5378
X6.5354Y-5.6378
X6.5354Y-5.7378
X6.8354Y-5.1378
X6.8354Y-5.2378
X6.8354Y-5.3378
X6.8354Y-5.4378
X6.8354Y-5.5378
X6.8354Y-5.6378
X6.8354Y-5.7378
X5.3346Y-3.937
X5.3346Y-4.037
X5.3346Y-4.137
X5.3346Y-4.237
X5.3346Y-4.337
X5.3346Y-4.437
X5.3346Y-4.537
X5.3346Y-4.637
X5.3346Y-4.737
X5.3346Y-4.837
X5.3346Y-4.937
X5.3346Y-5.037
X5.3346Y-5.137
X5.3346Y-5.237
X5.3346Y-5.337
X5.9346Y-3.937
X5.9346Y-4.037
X5.9346Y-4.137
X5.9346Y-4.237
X5.9346Y-4.337
X5.9346Y-4.437
X5.9346Y-4.537
X5.9346Y-4.637
X5.9346Y-4.737
X5.9346Y-4.837
X5.9346Y-4.937
X5.9346Y-5.037
X5.9346Y-5.137
X5.9346Y-5.237
X5.9346Y-5.337
X7.0276Y-5.0787
X7.3276Y-5.0787
X7.126Y-4.4685
X7.2244Y-4.4685
X6.5354Y-4.3898
X6.5354Y-4.6898
X6.6142Y-4.0717
X6.6142Y-4.1717
X6.6142Y-4.2717
X6.8307Y-4.685
X6.8307Y-4.985
X6.437Y-4.8425
X6.437Y-4.9213
X6.1811Y-3.8189
X6.2598Y-3.8189
T2
X6.0827Y-4.0551
X6.3827Y-4.0551
T3
X5.1378Y-4.1535
X5.1378Y-4.3035
X5.1378Y-4.4535
X5.1378Y-4.6035
X6.122Y-4.865
X6.122Y-5.015
X6.122Y-5.165
X6.122Y-5.315
T4
X6.2205Y-4.5654
X6.2205Y-4.6654
X7.1457Y-5.2756
X7.1457Y-5.3756
X6.2205Y-4.2701
X6.2205Y-4.3701
X7.1457Y-4.0748
X7.1457Y-4.1748
X6.5535Y-3.8346
X6.6535Y-3.8346
T0
M30
