G04 #@! TF.GenerationSoftware,KiCad,Pcbnew,5.1.5-52549c5~84~ubuntu18.04.1*
G04 #@! TF.CreationDate,2020-05-03T21:02:41-04:00*
G04 #@! TF.ProjectId,dac_ino,6461635f-696e-46f2-9e6b-696361645f70,rev?*
G04 #@! TF.SameCoordinates,Original*
G04 #@! TF.FileFunction,Copper,L1,Top*
G04 #@! TF.FilePolarity,Positive*
%FSLAX46Y46*%
G04 Gerber Fmt 4.6, Leading zero omitted, Abs format (unit mm)*
G04 Created by KiCad (PCBNEW 5.1.5-52549c5~84~ubuntu18.04.1) date 2020-05-03 21:02:41*
%MOMM*%
%LPD*%
G04 APERTURE LIST*
%ADD10O,1.600000X1.600000*%
%ADD11C,1.600000*%
%ADD12O,2.200000X1.740000*%
%ADD13C,0.100000*%
%ADD14R,1.600000X1.600000*%
%ADD15C,2.999740*%
%ADD16R,2.999740X2.999740*%
%ADD17O,2.400000X1.600000*%
%ADD18R,2.400000X1.600000*%
%ADD19R,1.500000X1.500000*%
%ADD20C,1.500000*%
%ADD21O,1.740000X2.200000*%
%ADD22C,0.250000*%
%ADD23C,0.254000*%
G04 APERTURE END LIST*
D10*
X186400000Y-135000000D03*
D11*
X178780000Y-135000000D03*
D10*
X186400000Y-113300000D03*
D11*
X178780000Y-113300000D03*
D12*
X181900000Y-130540000D03*
G04 #@! TA.AperFunction,ComponentPad*
D13*
G36*
X182774505Y-127131204D02*
G01*
X182798773Y-127134804D01*
X182822572Y-127140765D01*
X182845671Y-127149030D01*
X182867850Y-127159520D01*
X182888893Y-127172132D01*
X182908599Y-127186747D01*
X182926777Y-127203223D01*
X182943253Y-127221401D01*
X182957868Y-127241107D01*
X182970480Y-127262150D01*
X182980970Y-127284329D01*
X182989235Y-127307428D01*
X182995196Y-127331227D01*
X182998796Y-127355495D01*
X183000000Y-127379999D01*
X183000000Y-128620001D01*
X182998796Y-128644505D01*
X182995196Y-128668773D01*
X182989235Y-128692572D01*
X182980970Y-128715671D01*
X182970480Y-128737850D01*
X182957868Y-128758893D01*
X182943253Y-128778599D01*
X182926777Y-128796777D01*
X182908599Y-128813253D01*
X182888893Y-128827868D01*
X182867850Y-128840480D01*
X182845671Y-128850970D01*
X182822572Y-128859235D01*
X182798773Y-128865196D01*
X182774505Y-128868796D01*
X182750001Y-128870000D01*
X181049999Y-128870000D01*
X181025495Y-128868796D01*
X181001227Y-128865196D01*
X180977428Y-128859235D01*
X180954329Y-128850970D01*
X180932150Y-128840480D01*
X180911107Y-128827868D01*
X180891401Y-128813253D01*
X180873223Y-128796777D01*
X180856747Y-128778599D01*
X180842132Y-128758893D01*
X180829520Y-128737850D01*
X180819030Y-128715671D01*
X180810765Y-128692572D01*
X180804804Y-128668773D01*
X180801204Y-128644505D01*
X180800000Y-128620001D01*
X180800000Y-127379999D01*
X180801204Y-127355495D01*
X180804804Y-127331227D01*
X180810765Y-127307428D01*
X180819030Y-127284329D01*
X180829520Y-127262150D01*
X180842132Y-127241107D01*
X180856747Y-127221401D01*
X180873223Y-127203223D01*
X180891401Y-127186747D01*
X180911107Y-127172132D01*
X180932150Y-127159520D01*
X180954329Y-127149030D01*
X180977428Y-127140765D01*
X181001227Y-127134804D01*
X181025495Y-127131204D01*
X181049999Y-127130000D01*
X182750001Y-127130000D01*
X182774505Y-127131204D01*
G37*
G04 #@! TD.AperFunction*
D12*
X181800000Y-120940000D03*
G04 #@! TA.AperFunction,ComponentPad*
D13*
G36*
X182674505Y-117531204D02*
G01*
X182698773Y-117534804D01*
X182722572Y-117540765D01*
X182745671Y-117549030D01*
X182767850Y-117559520D01*
X182788893Y-117572132D01*
X182808599Y-117586747D01*
X182826777Y-117603223D01*
X182843253Y-117621401D01*
X182857868Y-117641107D01*
X182870480Y-117662150D01*
X182880970Y-117684329D01*
X182889235Y-117707428D01*
X182895196Y-117731227D01*
X182898796Y-117755495D01*
X182900000Y-117779999D01*
X182900000Y-119020001D01*
X182898796Y-119044505D01*
X182895196Y-119068773D01*
X182889235Y-119092572D01*
X182880970Y-119115671D01*
X182870480Y-119137850D01*
X182857868Y-119158893D01*
X182843253Y-119178599D01*
X182826777Y-119196777D01*
X182808599Y-119213253D01*
X182788893Y-119227868D01*
X182767850Y-119240480D01*
X182745671Y-119250970D01*
X182722572Y-119259235D01*
X182698773Y-119265196D01*
X182674505Y-119268796D01*
X182650001Y-119270000D01*
X180949999Y-119270000D01*
X180925495Y-119268796D01*
X180901227Y-119265196D01*
X180877428Y-119259235D01*
X180854329Y-119250970D01*
X180832150Y-119240480D01*
X180811107Y-119227868D01*
X180791401Y-119213253D01*
X180773223Y-119196777D01*
X180756747Y-119178599D01*
X180742132Y-119158893D01*
X180729520Y-119137850D01*
X180719030Y-119115671D01*
X180710765Y-119092572D01*
X180704804Y-119068773D01*
X180701204Y-119044505D01*
X180700000Y-119020001D01*
X180700000Y-117779999D01*
X180701204Y-117755495D01*
X180704804Y-117731227D01*
X180710765Y-117707428D01*
X180719030Y-117684329D01*
X180729520Y-117662150D01*
X180742132Y-117641107D01*
X180756747Y-117621401D01*
X180773223Y-117603223D01*
X180791401Y-117586747D01*
X180811107Y-117572132D01*
X180832150Y-117559520D01*
X180854329Y-117549030D01*
X180877428Y-117540765D01*
X180901227Y-117534804D01*
X180925495Y-117531204D01*
X180949999Y-117530000D01*
X182650001Y-117530000D01*
X182674505Y-117531204D01*
G37*
G04 #@! TD.AperFunction*
D10*
X150740000Y-135560000D03*
X135500000Y-135560000D03*
X150740000Y-100000000D03*
X135500000Y-133020000D03*
X150740000Y-102540000D03*
X135500000Y-130480000D03*
X150740000Y-105080000D03*
X135500000Y-127940000D03*
X150740000Y-107620000D03*
X135500000Y-125400000D03*
X150740000Y-110160000D03*
X135500000Y-122860000D03*
X150740000Y-112700000D03*
X135500000Y-120320000D03*
X150740000Y-115240000D03*
X135500000Y-117780000D03*
X150740000Y-117780000D03*
X135500000Y-115240000D03*
X150740000Y-120320000D03*
X135500000Y-112700000D03*
X150740000Y-122860000D03*
X135500000Y-110160000D03*
X150740000Y-125400000D03*
X135500000Y-107620000D03*
X150740000Y-127940000D03*
X135500000Y-105080000D03*
X150740000Y-130480000D03*
X135500000Y-102540000D03*
X150740000Y-133020000D03*
D14*
X135500000Y-100000000D03*
D10*
X161000000Y-136880000D03*
D11*
X161000000Y-144500000D03*
X163500000Y-123000000D03*
D14*
X163500000Y-125000000D03*
D15*
X130500000Y-116930000D03*
X130500000Y-113120000D03*
X130500000Y-109310000D03*
D16*
X130500000Y-105500000D03*
D15*
X155500000Y-123570000D03*
X155500000Y-127380000D03*
X155500000Y-131190000D03*
D16*
X155500000Y-135000000D03*
D12*
X158000000Y-108460000D03*
G04 #@! TA.AperFunction,ComponentPad*
D13*
G36*
X158874505Y-110131204D02*
G01*
X158898773Y-110134804D01*
X158922572Y-110140765D01*
X158945671Y-110149030D01*
X158967850Y-110159520D01*
X158988893Y-110172132D01*
X159008599Y-110186747D01*
X159026777Y-110203223D01*
X159043253Y-110221401D01*
X159057868Y-110241107D01*
X159070480Y-110262150D01*
X159080970Y-110284329D01*
X159089235Y-110307428D01*
X159095196Y-110331227D01*
X159098796Y-110355495D01*
X159100000Y-110379999D01*
X159100000Y-111620001D01*
X159098796Y-111644505D01*
X159095196Y-111668773D01*
X159089235Y-111692572D01*
X159080970Y-111715671D01*
X159070480Y-111737850D01*
X159057868Y-111758893D01*
X159043253Y-111778599D01*
X159026777Y-111796777D01*
X159008599Y-111813253D01*
X158988893Y-111827868D01*
X158967850Y-111840480D01*
X158945671Y-111850970D01*
X158922572Y-111859235D01*
X158898773Y-111865196D01*
X158874505Y-111868796D01*
X158850001Y-111870000D01*
X157149999Y-111870000D01*
X157125495Y-111868796D01*
X157101227Y-111865196D01*
X157077428Y-111859235D01*
X157054329Y-111850970D01*
X157032150Y-111840480D01*
X157011107Y-111827868D01*
X156991401Y-111813253D01*
X156973223Y-111796777D01*
X156956747Y-111778599D01*
X156942132Y-111758893D01*
X156929520Y-111737850D01*
X156919030Y-111715671D01*
X156910765Y-111692572D01*
X156904804Y-111668773D01*
X156901204Y-111644505D01*
X156900000Y-111620001D01*
X156900000Y-110379999D01*
X156901204Y-110355495D01*
X156904804Y-110331227D01*
X156910765Y-110307428D01*
X156919030Y-110284329D01*
X156929520Y-110262150D01*
X156942132Y-110241107D01*
X156956747Y-110221401D01*
X156973223Y-110203223D01*
X156991401Y-110186747D01*
X157011107Y-110172132D01*
X157032150Y-110159520D01*
X157054329Y-110149030D01*
X157077428Y-110140765D01*
X157101227Y-110134804D01*
X157125495Y-110131204D01*
X157149999Y-110130000D01*
X158850001Y-110130000D01*
X158874505Y-110131204D01*
G37*
G04 #@! TD.AperFunction*
D10*
X173500000Y-126620000D03*
D11*
X173500000Y-119000000D03*
D17*
X173620000Y-130500000D03*
X166000000Y-145740000D03*
X173620000Y-133040000D03*
X166000000Y-143200000D03*
X173620000Y-135580000D03*
X166000000Y-140660000D03*
X173620000Y-138120000D03*
X166000000Y-138120000D03*
X173620000Y-140660000D03*
X166000000Y-135580000D03*
X173620000Y-143200000D03*
X166000000Y-133040000D03*
X173620000Y-145740000D03*
D18*
X166000000Y-130500000D03*
D10*
X170000000Y-119120000D03*
D11*
X170000000Y-111500000D03*
D10*
X166000000Y-119120000D03*
D11*
X166000000Y-111500000D03*
D19*
X168000000Y-108500000D03*
D20*
X168000000Y-103420000D03*
X168000000Y-105960000D03*
D12*
X158000000Y-115960000D03*
G04 #@! TA.AperFunction,ComponentPad*
D13*
G36*
X158874505Y-117631204D02*
G01*
X158898773Y-117634804D01*
X158922572Y-117640765D01*
X158945671Y-117649030D01*
X158967850Y-117659520D01*
X158988893Y-117672132D01*
X159008599Y-117686747D01*
X159026777Y-117703223D01*
X159043253Y-117721401D01*
X159057868Y-117741107D01*
X159070480Y-117762150D01*
X159080970Y-117784329D01*
X159089235Y-117807428D01*
X159095196Y-117831227D01*
X159098796Y-117855495D01*
X159100000Y-117879999D01*
X159100000Y-119120001D01*
X159098796Y-119144505D01*
X159095196Y-119168773D01*
X159089235Y-119192572D01*
X159080970Y-119215671D01*
X159070480Y-119237850D01*
X159057868Y-119258893D01*
X159043253Y-119278599D01*
X159026777Y-119296777D01*
X159008599Y-119313253D01*
X158988893Y-119327868D01*
X158967850Y-119340480D01*
X158945671Y-119350970D01*
X158922572Y-119359235D01*
X158898773Y-119365196D01*
X158874505Y-119368796D01*
X158850001Y-119370000D01*
X157149999Y-119370000D01*
X157125495Y-119368796D01*
X157101227Y-119365196D01*
X157077428Y-119359235D01*
X157054329Y-119350970D01*
X157032150Y-119340480D01*
X157011107Y-119327868D01*
X156991401Y-119313253D01*
X156973223Y-119296777D01*
X156956747Y-119278599D01*
X156942132Y-119258893D01*
X156929520Y-119237850D01*
X156919030Y-119215671D01*
X156910765Y-119192572D01*
X156904804Y-119168773D01*
X156901204Y-119144505D01*
X156900000Y-119120001D01*
X156900000Y-117879999D01*
X156901204Y-117855495D01*
X156904804Y-117831227D01*
X156910765Y-117807428D01*
X156919030Y-117784329D01*
X156929520Y-117762150D01*
X156942132Y-117741107D01*
X156956747Y-117721401D01*
X156973223Y-117703223D01*
X156991401Y-117686747D01*
X157011107Y-117672132D01*
X157032150Y-117659520D01*
X157054329Y-117649030D01*
X157077428Y-117640765D01*
X157101227Y-117634804D01*
X157125495Y-117631204D01*
X157149999Y-117630000D01*
X158850001Y-117630000D01*
X158874505Y-117631204D01*
G37*
G04 #@! TD.AperFunction*
D21*
X166460000Y-97400000D03*
G04 #@! TA.AperFunction,ComponentPad*
D13*
G36*
X169644505Y-96301204D02*
G01*
X169668773Y-96304804D01*
X169692572Y-96310765D01*
X169715671Y-96319030D01*
X169737850Y-96329520D01*
X169758893Y-96342132D01*
X169778599Y-96356747D01*
X169796777Y-96373223D01*
X169813253Y-96391401D01*
X169827868Y-96411107D01*
X169840480Y-96432150D01*
X169850970Y-96454329D01*
X169859235Y-96477428D01*
X169865196Y-96501227D01*
X169868796Y-96525495D01*
X169870000Y-96549999D01*
X169870000Y-98250001D01*
X169868796Y-98274505D01*
X169865196Y-98298773D01*
X169859235Y-98322572D01*
X169850970Y-98345671D01*
X169840480Y-98367850D01*
X169827868Y-98388893D01*
X169813253Y-98408599D01*
X169796777Y-98426777D01*
X169778599Y-98443253D01*
X169758893Y-98457868D01*
X169737850Y-98470480D01*
X169715671Y-98480970D01*
X169692572Y-98489235D01*
X169668773Y-98495196D01*
X169644505Y-98498796D01*
X169620001Y-98500000D01*
X168379999Y-98500000D01*
X168355495Y-98498796D01*
X168331227Y-98495196D01*
X168307428Y-98489235D01*
X168284329Y-98480970D01*
X168262150Y-98470480D01*
X168241107Y-98457868D01*
X168221401Y-98443253D01*
X168203223Y-98426777D01*
X168186747Y-98408599D01*
X168172132Y-98388893D01*
X168159520Y-98367850D01*
X168149030Y-98345671D01*
X168140765Y-98322572D01*
X168134804Y-98298773D01*
X168131204Y-98274505D01*
X168130000Y-98250001D01*
X168130000Y-96549999D01*
X168131204Y-96525495D01*
X168134804Y-96501227D01*
X168140765Y-96477428D01*
X168149030Y-96454329D01*
X168159520Y-96432150D01*
X168172132Y-96411107D01*
X168186747Y-96391401D01*
X168203223Y-96373223D01*
X168221401Y-96356747D01*
X168241107Y-96342132D01*
X168262150Y-96329520D01*
X168284329Y-96319030D01*
X168307428Y-96310765D01*
X168331227Y-96304804D01*
X168355495Y-96301204D01*
X168379999Y-96300000D01*
X169620001Y-96300000D01*
X169644505Y-96301204D01*
G37*
G04 #@! TD.AperFunction*
D11*
X159100000Y-101300000D03*
D14*
X157100000Y-101300000D03*
D11*
X161000000Y-133500000D03*
X161000000Y-131000000D03*
D22*
X153300000Y-138120000D02*
X166000000Y-138120000D01*
X150740000Y-135560000D02*
X153300000Y-138120000D01*
X152500000Y-139000000D02*
X162890000Y-139000000D01*
X135500000Y-133020000D02*
X136299999Y-133819999D01*
X164550000Y-140660000D02*
X166000000Y-140660000D01*
X147319999Y-133819999D02*
X152500000Y-139000000D01*
X136299999Y-133819999D02*
X147319999Y-133819999D01*
X162890000Y-139000000D02*
X164550000Y-140660000D01*
X162300000Y-135580000D02*
X161000000Y-136880000D01*
X166000000Y-135580000D02*
X162300000Y-135580000D01*
X147136410Y-133000000D02*
X139151370Y-133000000D01*
X148281411Y-134145001D02*
X147136410Y-133000000D01*
X136631370Y-130480000D02*
X135500000Y-130480000D01*
X150990003Y-134145001D02*
X148281411Y-134145001D01*
X153725002Y-136880000D02*
X150990003Y-134145001D01*
X161000000Y-136880000D02*
X153725002Y-136880000D01*
X139151370Y-133000000D02*
X136631370Y-130480000D01*
X134374999Y-121445001D02*
X135500000Y-120320000D01*
X147298589Y-134434999D02*
X135249997Y-134434999D01*
X152431795Y-139568205D02*
X147298589Y-134434999D01*
X166000000Y-119120000D02*
X167525010Y-120645010D01*
X167525010Y-120645010D02*
X167525010Y-141125994D01*
X161785010Y-141785010D02*
X159568205Y-139568205D01*
X134374999Y-133560001D02*
X134374999Y-121445001D01*
X167525010Y-141125994D02*
X166865994Y-141785010D01*
X166865994Y-141785010D02*
X161785010Y-141785010D01*
X135249997Y-134434999D02*
X134374999Y-133560001D01*
X159568205Y-139568205D02*
X152431795Y-139568205D01*
X134650000Y-116930000D02*
X135500000Y-117780000D01*
X130500000Y-116930000D02*
X134650000Y-116930000D01*
X132620000Y-115240000D02*
X135500000Y-115240000D01*
X130500000Y-113120000D02*
X132620000Y-115240000D01*
X152250000Y-120320000D02*
X150740000Y-120320000D01*
X155500000Y-123570000D02*
X152250000Y-120320000D01*
X133890000Y-112700000D02*
X135500000Y-112700000D01*
X130500000Y-109310000D02*
X133890000Y-112700000D01*
X150980000Y-122860000D02*
X150740000Y-122860000D01*
X155500000Y-127380000D02*
X150980000Y-122860000D01*
X154000131Y-128660131D02*
X150740000Y-125400000D01*
X154000131Y-129690131D02*
X154000131Y-128660131D01*
X155500000Y-131190000D02*
X154000131Y-129690131D01*
X153675129Y-134924999D02*
X153675129Y-130875129D01*
X153675129Y-130875129D02*
X150740000Y-127940000D01*
X153750130Y-135000000D02*
X153675129Y-134924999D01*
X155500000Y-135000000D02*
X153750130Y-135000000D01*
X130840000Y-105500000D02*
X135500000Y-110160000D01*
X130500000Y-105500000D02*
X130840000Y-105500000D01*
X169000000Y-102420000D02*
X168000000Y-103420000D01*
X169000000Y-97400000D02*
X169000000Y-102420000D01*
X170000000Y-105420000D02*
X170000000Y-111500000D01*
X168000000Y-103420000D02*
X170000000Y-105420000D01*
X186420000Y-114780000D02*
X186420000Y-113300000D01*
X182900000Y-118300000D02*
X186420000Y-114780000D01*
X181800000Y-118300000D02*
X182900000Y-118300000D01*
X186400000Y-133868630D02*
X186400000Y-135000000D01*
X186400000Y-131400000D02*
X186400000Y-133868630D01*
X183000000Y-128000000D02*
X186400000Y-131400000D01*
X181900000Y-128000000D02*
X183000000Y-128000000D01*
X166000000Y-107960000D02*
X166000000Y-111500000D01*
X168000000Y-105960000D02*
X166000000Y-107960000D01*
X172170000Y-143200000D02*
X173620000Y-143200000D01*
X172094990Y-128025010D02*
X172094990Y-143124990D01*
X172094990Y-143124990D02*
X172170000Y-143200000D01*
X173500000Y-126620000D02*
X172094990Y-128025010D01*
X178780000Y-114431370D02*
X178780000Y-113300000D01*
X178780000Y-124290000D02*
X178780000Y-114431370D01*
X173620000Y-129450000D02*
X178780000Y-124290000D01*
X173620000Y-130500000D02*
X173620000Y-129450000D01*
X178780000Y-136950000D02*
X178780000Y-136131370D01*
X178780000Y-136131370D02*
X178780000Y-135000000D01*
X175070000Y-140660000D02*
X178780000Y-136950000D01*
X173620000Y-140660000D02*
X175070000Y-140660000D01*
D23*
G36*
X188340001Y-147840000D02*
G01*
X125660000Y-147840000D01*
X125660000Y-143779872D01*
X127265000Y-143779872D01*
X127265000Y-144220128D01*
X127350890Y-144651925D01*
X127519369Y-145058669D01*
X127763962Y-145424729D01*
X128075271Y-145736038D01*
X128441331Y-145980631D01*
X128848075Y-146149110D01*
X129279872Y-146235000D01*
X129720128Y-146235000D01*
X130151925Y-146149110D01*
X130558669Y-145980631D01*
X130924729Y-145736038D01*
X131236038Y-145424729D01*
X131480631Y-145058669D01*
X131649110Y-144651925D01*
X131707443Y-144358665D01*
X159565000Y-144358665D01*
X159565000Y-144641335D01*
X159620147Y-144918574D01*
X159728320Y-145179727D01*
X159885363Y-145414759D01*
X160085241Y-145614637D01*
X160320273Y-145771680D01*
X160581426Y-145879853D01*
X160858665Y-145935000D01*
X161141335Y-145935000D01*
X161418574Y-145879853D01*
X161679727Y-145771680D01*
X161914759Y-145614637D01*
X162114637Y-145414759D01*
X162271680Y-145179727D01*
X162379853Y-144918574D01*
X162435000Y-144641335D01*
X162435000Y-144358665D01*
X162379853Y-144081426D01*
X162271680Y-143820273D01*
X162114637Y-143585241D01*
X161914759Y-143385363D01*
X161679727Y-143228320D01*
X161418574Y-143120147D01*
X161141335Y-143065000D01*
X160858665Y-143065000D01*
X160581426Y-143120147D01*
X160320273Y-143228320D01*
X160085241Y-143385363D01*
X159885363Y-143585241D01*
X159728320Y-143820273D01*
X159620147Y-144081426D01*
X159565000Y-144358665D01*
X131707443Y-144358665D01*
X131735000Y-144220128D01*
X131735000Y-143779872D01*
X131649110Y-143348075D01*
X131480631Y-142941331D01*
X131236038Y-142575271D01*
X130924729Y-142263962D01*
X130558669Y-142019369D01*
X130151925Y-141850890D01*
X129720128Y-141765000D01*
X129279872Y-141765000D01*
X128848075Y-141850890D01*
X128441331Y-142019369D01*
X128075271Y-142263962D01*
X127763962Y-142575271D01*
X127519369Y-142941331D01*
X127350890Y-143348075D01*
X127265000Y-143779872D01*
X125660000Y-143779872D01*
X125660000Y-104000130D01*
X128362058Y-104000130D01*
X128362058Y-106999870D01*
X128374318Y-107124352D01*
X128410628Y-107244050D01*
X128469593Y-107354364D01*
X128548945Y-107451055D01*
X128645636Y-107530407D01*
X128755950Y-107589372D01*
X128875648Y-107625682D01*
X129000130Y-107637942D01*
X129159747Y-107637942D01*
X129139100Y-107651738D01*
X128841738Y-107949100D01*
X128608103Y-108298760D01*
X128447172Y-108687281D01*
X128365130Y-109099734D01*
X128365130Y-109520266D01*
X128447172Y-109932719D01*
X128608103Y-110321240D01*
X128841738Y-110670900D01*
X129139100Y-110968262D01*
X129488760Y-111201897D01*
X129520393Y-111215000D01*
X129488760Y-111228103D01*
X129139100Y-111461738D01*
X128841738Y-111759100D01*
X128608103Y-112108760D01*
X128447172Y-112497281D01*
X128365130Y-112909734D01*
X128365130Y-113330266D01*
X128447172Y-113742719D01*
X128608103Y-114131240D01*
X128841738Y-114480900D01*
X129139100Y-114778262D01*
X129488760Y-115011897D01*
X129520393Y-115025000D01*
X129488760Y-115038103D01*
X129139100Y-115271738D01*
X128841738Y-115569100D01*
X128608103Y-115918760D01*
X128447172Y-116307281D01*
X128365130Y-116719734D01*
X128365130Y-117140266D01*
X128447172Y-117552719D01*
X128608103Y-117941240D01*
X128841738Y-118290900D01*
X129139100Y-118588262D01*
X129488760Y-118821897D01*
X129877281Y-118982828D01*
X130289734Y-119064870D01*
X130710266Y-119064870D01*
X131122719Y-118982828D01*
X131511240Y-118821897D01*
X131860900Y-118588262D01*
X132158262Y-118290900D01*
X132391897Y-117941240D01*
X132495964Y-117690000D01*
X134065000Y-117690000D01*
X134065000Y-117921335D01*
X134120147Y-118198574D01*
X134228320Y-118459727D01*
X134385363Y-118694759D01*
X134585241Y-118894637D01*
X134817759Y-119050000D01*
X134585241Y-119205363D01*
X134385363Y-119405241D01*
X134228320Y-119640273D01*
X134120147Y-119901426D01*
X134065000Y-120178665D01*
X134065000Y-120461335D01*
X134101312Y-120643887D01*
X133863997Y-120881202D01*
X133834999Y-120905000D01*
X133811201Y-120933998D01*
X133811200Y-120933999D01*
X133740025Y-121020725D01*
X133669453Y-121152755D01*
X133659669Y-121185011D01*
X133625997Y-121296015D01*
X133620625Y-121350556D01*
X133611323Y-121445001D01*
X133615000Y-121482333D01*
X133614999Y-133522679D01*
X133611323Y-133560001D01*
X133614999Y-133597323D01*
X133614999Y-133597333D01*
X133625996Y-133708986D01*
X133641471Y-133760000D01*
X133669453Y-133852247D01*
X133740025Y-133984277D01*
X133761728Y-134010722D01*
X133834998Y-134100002D01*
X133864001Y-134123804D01*
X134385400Y-134645204D01*
X134385363Y-134645241D01*
X134228320Y-134880273D01*
X134120147Y-135141426D01*
X134065000Y-135418665D01*
X134065000Y-135701335D01*
X134120147Y-135978574D01*
X134228320Y-136239727D01*
X134385363Y-136474759D01*
X134585241Y-136674637D01*
X134820273Y-136831680D01*
X135081426Y-136939853D01*
X135358665Y-136995000D01*
X135641335Y-136995000D01*
X135918574Y-136939853D01*
X136179727Y-136831680D01*
X136414759Y-136674637D01*
X136614637Y-136474759D01*
X136771680Y-136239727D01*
X136879853Y-135978574D01*
X136935000Y-135701335D01*
X136935000Y-135418665D01*
X136890509Y-135194999D01*
X146983788Y-135194999D01*
X151867995Y-140079207D01*
X151891794Y-140108206D01*
X151920792Y-140132004D01*
X152007519Y-140203179D01*
X152139548Y-140273751D01*
X152282809Y-140317208D01*
X152431795Y-140331882D01*
X152469128Y-140328205D01*
X159253404Y-140328205D01*
X161221211Y-142296013D01*
X161245009Y-142325011D01*
X161360734Y-142419984D01*
X161492763Y-142490556D01*
X161636024Y-142534013D01*
X161747677Y-142545010D01*
X161747685Y-142545010D01*
X161785010Y-142548686D01*
X161822335Y-142545010D01*
X164322970Y-142545010D01*
X164267818Y-142648192D01*
X164185764Y-142918691D01*
X164158057Y-143200000D01*
X164185764Y-143481309D01*
X164267818Y-143751808D01*
X164401068Y-144001101D01*
X164580392Y-144219608D01*
X164798899Y-144398932D01*
X164931858Y-144470000D01*
X164798899Y-144541068D01*
X164580392Y-144720392D01*
X164401068Y-144938899D01*
X164267818Y-145188192D01*
X164185764Y-145458691D01*
X164158057Y-145740000D01*
X164185764Y-146021309D01*
X164267818Y-146291808D01*
X164401068Y-146541101D01*
X164580392Y-146759608D01*
X164798899Y-146938932D01*
X165048192Y-147072182D01*
X165318691Y-147154236D01*
X165529508Y-147175000D01*
X166470492Y-147175000D01*
X166681309Y-147154236D01*
X166951808Y-147072182D01*
X167201101Y-146938932D01*
X167419608Y-146759608D01*
X167598932Y-146541101D01*
X167732182Y-146291808D01*
X167793690Y-146089039D01*
X171828096Y-146089039D01*
X171845633Y-146171818D01*
X171956285Y-146431646D01*
X172115500Y-146664895D01*
X172317161Y-146862601D01*
X172553517Y-147017166D01*
X172815486Y-147122650D01*
X173093000Y-147175000D01*
X173493000Y-147175000D01*
X173493000Y-145867000D01*
X173747000Y-145867000D01*
X173747000Y-147175000D01*
X174147000Y-147175000D01*
X174424514Y-147122650D01*
X174686483Y-147017166D01*
X174922839Y-146862601D01*
X175124500Y-146664895D01*
X175283715Y-146431646D01*
X175394367Y-146171818D01*
X175411904Y-146089039D01*
X175289915Y-145867000D01*
X173747000Y-145867000D01*
X173493000Y-145867000D01*
X171950085Y-145867000D01*
X171828096Y-146089039D01*
X167793690Y-146089039D01*
X167814236Y-146021309D01*
X167841943Y-145740000D01*
X167814236Y-145458691D01*
X167732182Y-145188192D01*
X167598932Y-144938899D01*
X167419608Y-144720392D01*
X167201101Y-144541068D01*
X167068142Y-144470000D01*
X167201101Y-144398932D01*
X167419608Y-144219608D01*
X167598932Y-144001101D01*
X167732182Y-143751808D01*
X167814236Y-143481309D01*
X167841943Y-143200000D01*
X167814236Y-142918691D01*
X167732182Y-142648192D01*
X167598932Y-142398899D01*
X167476315Y-142249490D01*
X168036012Y-141689794D01*
X168065011Y-141665995D01*
X168159984Y-141550270D01*
X168230556Y-141418241D01*
X168274013Y-141274980D01*
X168285010Y-141163327D01*
X168285010Y-141163318D01*
X168288686Y-141125995D01*
X168285010Y-141088672D01*
X168285010Y-128025010D01*
X171331314Y-128025010D01*
X171334990Y-128062332D01*
X171334991Y-143087657D01*
X171331314Y-143124990D01*
X171345988Y-143273975D01*
X171389444Y-143417236D01*
X171460016Y-143549266D01*
X171521575Y-143624275D01*
X171554990Y-143664991D01*
X171583988Y-143688789D01*
X171606196Y-143710997D01*
X171629999Y-143740001D01*
X171745724Y-143834974D01*
X171877753Y-143905546D01*
X171987843Y-143938941D01*
X172021068Y-144001101D01*
X172200392Y-144219608D01*
X172418899Y-144398932D01*
X172546741Y-144467265D01*
X172317161Y-144617399D01*
X172115500Y-144815105D01*
X171956285Y-145048354D01*
X171845633Y-145308182D01*
X171828096Y-145390961D01*
X171950085Y-145613000D01*
X173493000Y-145613000D01*
X173493000Y-145593000D01*
X173747000Y-145593000D01*
X173747000Y-145613000D01*
X175289915Y-145613000D01*
X175411904Y-145390961D01*
X175394367Y-145308182D01*
X175283715Y-145048354D01*
X175124500Y-144815105D01*
X174922839Y-144617399D01*
X174693259Y-144467265D01*
X174821101Y-144398932D01*
X175039608Y-144219608D01*
X175218932Y-144001101D01*
X175337181Y-143779872D01*
X181765000Y-143779872D01*
X181765000Y-144220128D01*
X181850890Y-144651925D01*
X182019369Y-145058669D01*
X182263962Y-145424729D01*
X182575271Y-145736038D01*
X182941331Y-145980631D01*
X183348075Y-146149110D01*
X183779872Y-146235000D01*
X184220128Y-146235000D01*
X184651925Y-146149110D01*
X185058669Y-145980631D01*
X185424729Y-145736038D01*
X185736038Y-145424729D01*
X185980631Y-145058669D01*
X186149110Y-144651925D01*
X186235000Y-144220128D01*
X186235000Y-143779872D01*
X186149110Y-143348075D01*
X185980631Y-142941331D01*
X185736038Y-142575271D01*
X185424729Y-142263962D01*
X185058669Y-142019369D01*
X184651925Y-141850890D01*
X184220128Y-141765000D01*
X183779872Y-141765000D01*
X183348075Y-141850890D01*
X182941331Y-142019369D01*
X182575271Y-142263962D01*
X182263962Y-142575271D01*
X182019369Y-142941331D01*
X181850890Y-143348075D01*
X181765000Y-143779872D01*
X175337181Y-143779872D01*
X175352182Y-143751808D01*
X175434236Y-143481309D01*
X175461943Y-143200000D01*
X175434236Y-142918691D01*
X175352182Y-142648192D01*
X175218932Y-142398899D01*
X175039608Y-142180392D01*
X174821101Y-142001068D01*
X174688142Y-141930000D01*
X174821101Y-141858932D01*
X175039608Y-141679608D01*
X175218932Y-141461101D01*
X175252157Y-141398941D01*
X175362247Y-141365546D01*
X175494276Y-141294974D01*
X175610001Y-141200001D01*
X175633804Y-141170997D01*
X179291004Y-137513798D01*
X179320001Y-137490001D01*
X179414974Y-137374276D01*
X179485546Y-137242247D01*
X179529003Y-137098986D01*
X179540000Y-136987333D01*
X179540000Y-136987324D01*
X179543676Y-136950001D01*
X179540000Y-136912678D01*
X179540000Y-136218043D01*
X179694759Y-136114637D01*
X179894637Y-135914759D01*
X180051680Y-135679727D01*
X180159853Y-135418574D01*
X180215000Y-135141335D01*
X180215000Y-134858665D01*
X180159853Y-134581426D01*
X180051680Y-134320273D01*
X179894637Y-134085241D01*
X179694759Y-133885363D01*
X179459727Y-133728320D01*
X179198574Y-133620147D01*
X178921335Y-133565000D01*
X178638665Y-133565000D01*
X178361426Y-133620147D01*
X178100273Y-133728320D01*
X177865241Y-133885363D01*
X177665363Y-134085241D01*
X177508320Y-134320273D01*
X177400147Y-134581426D01*
X177345000Y-134858665D01*
X177345000Y-135141335D01*
X177400147Y-135418574D01*
X177508320Y-135679727D01*
X177665363Y-135914759D01*
X177865241Y-136114637D01*
X178020000Y-136218043D01*
X178020000Y-136635198D01*
X175025986Y-139629213D01*
X174821101Y-139461068D01*
X174688142Y-139390000D01*
X174821101Y-139318932D01*
X175039608Y-139139608D01*
X175218932Y-138921101D01*
X175352182Y-138671808D01*
X175434236Y-138401309D01*
X175461943Y-138120000D01*
X175434236Y-137838691D01*
X175352182Y-137568192D01*
X175218932Y-137318899D01*
X175039608Y-137100392D01*
X174821101Y-136921068D01*
X174693259Y-136852735D01*
X174922839Y-136702601D01*
X175124500Y-136504895D01*
X175283715Y-136271646D01*
X175394367Y-136011818D01*
X175411904Y-135929039D01*
X175289915Y-135707000D01*
X173747000Y-135707000D01*
X173747000Y-135727000D01*
X173493000Y-135727000D01*
X173493000Y-135707000D01*
X173473000Y-135707000D01*
X173473000Y-135453000D01*
X173493000Y-135453000D01*
X173493000Y-135433000D01*
X173747000Y-135433000D01*
X173747000Y-135453000D01*
X175289915Y-135453000D01*
X175411904Y-135230961D01*
X175394367Y-135148182D01*
X175283715Y-134888354D01*
X175124500Y-134655105D01*
X174922839Y-134457399D01*
X174693259Y-134307265D01*
X174821101Y-134238932D01*
X175039608Y-134059608D01*
X175218932Y-133841101D01*
X175352182Y-133591808D01*
X175434236Y-133321309D01*
X175461943Y-133040000D01*
X175434236Y-132758691D01*
X175352182Y-132488192D01*
X175218932Y-132238899D01*
X175039608Y-132020392D01*
X174821101Y-131841068D01*
X174688142Y-131770000D01*
X174821101Y-131698932D01*
X175039608Y-131519608D01*
X175218932Y-131301101D01*
X175352182Y-131051808D01*
X175398222Y-130900031D01*
X180208698Y-130900031D01*
X180226412Y-130992502D01*
X180342429Y-131265437D01*
X180509464Y-131510494D01*
X180721097Y-131718256D01*
X180969196Y-131880738D01*
X181244227Y-131991696D01*
X181535620Y-132046866D01*
X181773000Y-131890586D01*
X181773000Y-130667000D01*
X182027000Y-130667000D01*
X182027000Y-131890586D01*
X182264380Y-132046866D01*
X182555773Y-131991696D01*
X182830804Y-131880738D01*
X183078903Y-131718256D01*
X183290536Y-131510494D01*
X183457571Y-131265437D01*
X183573588Y-130992502D01*
X183591302Y-130900031D01*
X183470246Y-130667000D01*
X182027000Y-130667000D01*
X181773000Y-130667000D01*
X180329754Y-130667000D01*
X180208698Y-130900031D01*
X175398222Y-130900031D01*
X175434236Y-130781309D01*
X175461943Y-130500000D01*
X175434236Y-130218691D01*
X175352182Y-129948192D01*
X175218932Y-129698899D01*
X175039608Y-129480392D01*
X174833532Y-129311270D01*
X176764803Y-127379999D01*
X180161928Y-127379999D01*
X180161928Y-128620001D01*
X180178992Y-128793255D01*
X180229528Y-128959851D01*
X180311595Y-129113387D01*
X180422038Y-129247962D01*
X180556613Y-129358405D01*
X180665314Y-129416507D01*
X180509464Y-129569506D01*
X180342429Y-129814563D01*
X180226412Y-130087498D01*
X180208698Y-130179969D01*
X180329754Y-130413000D01*
X181773000Y-130413000D01*
X181773000Y-130393000D01*
X182027000Y-130393000D01*
X182027000Y-130413000D01*
X183470246Y-130413000D01*
X183591302Y-130179969D01*
X183573588Y-130087498D01*
X183457571Y-129814563D01*
X183290536Y-129569506D01*
X183134686Y-129416507D01*
X183243387Y-129358405D01*
X183265476Y-129340277D01*
X185640000Y-131714802D01*
X185640001Y-133781956D01*
X185485241Y-133885363D01*
X185285363Y-134085241D01*
X185128320Y-134320273D01*
X185020147Y-134581426D01*
X184965000Y-134858665D01*
X184965000Y-135141335D01*
X185020147Y-135418574D01*
X185128320Y-135679727D01*
X185285363Y-135914759D01*
X185485241Y-136114637D01*
X185720273Y-136271680D01*
X185981426Y-136379853D01*
X186258665Y-136435000D01*
X186541335Y-136435000D01*
X186818574Y-136379853D01*
X187079727Y-136271680D01*
X187314759Y-136114637D01*
X187514637Y-135914759D01*
X187671680Y-135679727D01*
X187779853Y-135418574D01*
X187835000Y-135141335D01*
X187835000Y-134858665D01*
X187779853Y-134581426D01*
X187671680Y-134320273D01*
X187514637Y-134085241D01*
X187314759Y-133885363D01*
X187160000Y-133781957D01*
X187160000Y-131437322D01*
X187163676Y-131399999D01*
X187160000Y-131362676D01*
X187160000Y-131362667D01*
X187149003Y-131251014D01*
X187105546Y-131107753D01*
X187034974Y-130975723D01*
X186963799Y-130888997D01*
X186940001Y-130859999D01*
X186911004Y-130836202D01*
X183638072Y-127563271D01*
X183638072Y-127379999D01*
X183621008Y-127206745D01*
X183570472Y-127040149D01*
X183488405Y-126886613D01*
X183377962Y-126752038D01*
X183243387Y-126641595D01*
X183089851Y-126559528D01*
X182923255Y-126508992D01*
X182750001Y-126491928D01*
X181049999Y-126491928D01*
X180876745Y-126508992D01*
X180710149Y-126559528D01*
X180556613Y-126641595D01*
X180422038Y-126752038D01*
X180311595Y-126886613D01*
X180229528Y-127040149D01*
X180178992Y-127206745D01*
X180161928Y-127379999D01*
X176764803Y-127379999D01*
X179291004Y-124853798D01*
X179320001Y-124830001D01*
X179373325Y-124765026D01*
X179414974Y-124714277D01*
X179485546Y-124582247D01*
X179485851Y-124581240D01*
X179529003Y-124438986D01*
X179540000Y-124327333D01*
X179540000Y-124327323D01*
X179543676Y-124290000D01*
X179540000Y-124252678D01*
X179540000Y-121300031D01*
X180108698Y-121300031D01*
X180126412Y-121392502D01*
X180242429Y-121665437D01*
X180409464Y-121910494D01*
X180621097Y-122118256D01*
X180869196Y-122280738D01*
X181144227Y-122391696D01*
X181435620Y-122446866D01*
X181673000Y-122290586D01*
X181673000Y-121067000D01*
X181927000Y-121067000D01*
X181927000Y-122290586D01*
X182164380Y-122446866D01*
X182455773Y-122391696D01*
X182730804Y-122280738D01*
X182978903Y-122118256D01*
X183190536Y-121910494D01*
X183357571Y-121665437D01*
X183473588Y-121392502D01*
X183491302Y-121300031D01*
X183370246Y-121067000D01*
X181927000Y-121067000D01*
X181673000Y-121067000D01*
X180229754Y-121067000D01*
X180108698Y-121300031D01*
X179540000Y-121300031D01*
X179540000Y-117779999D01*
X180061928Y-117779999D01*
X180061928Y-119020001D01*
X180078992Y-119193255D01*
X180129528Y-119359851D01*
X180211595Y-119513387D01*
X180322038Y-119647962D01*
X180456613Y-119758405D01*
X180565314Y-119816507D01*
X180409464Y-119969506D01*
X180242429Y-120214563D01*
X180126412Y-120487498D01*
X180108698Y-120579969D01*
X180229754Y-120813000D01*
X181673000Y-120813000D01*
X181673000Y-120793000D01*
X181927000Y-120793000D01*
X181927000Y-120813000D01*
X183370246Y-120813000D01*
X183491302Y-120579969D01*
X183473588Y-120487498D01*
X183357571Y-120214563D01*
X183190536Y-119969506D01*
X183034686Y-119816507D01*
X183143387Y-119758405D01*
X183277962Y-119647962D01*
X183388405Y-119513387D01*
X183470472Y-119359851D01*
X183521008Y-119193255D01*
X183538072Y-119020001D01*
X183538072Y-118736729D01*
X186931004Y-115343798D01*
X186960001Y-115320001D01*
X187054974Y-115204276D01*
X187125546Y-115072247D01*
X187169003Y-114928986D01*
X187180000Y-114817333D01*
X187180000Y-114817325D01*
X187183676Y-114780000D01*
X187180000Y-114742675D01*
X187180000Y-114504680D01*
X187314759Y-114414637D01*
X187514637Y-114214759D01*
X187671680Y-113979727D01*
X187779853Y-113718574D01*
X187835000Y-113441335D01*
X187835000Y-113158665D01*
X187779853Y-112881426D01*
X187671680Y-112620273D01*
X187514637Y-112385241D01*
X187314759Y-112185363D01*
X187079727Y-112028320D01*
X186818574Y-111920147D01*
X186541335Y-111865000D01*
X186258665Y-111865000D01*
X185981426Y-111920147D01*
X185720273Y-112028320D01*
X185485241Y-112185363D01*
X185285363Y-112385241D01*
X185128320Y-112620273D01*
X185020147Y-112881426D01*
X184965000Y-113158665D01*
X184965000Y-113441335D01*
X185020147Y-113718574D01*
X185128320Y-113979727D01*
X185285363Y-114214759D01*
X185485241Y-114414637D01*
X185620311Y-114504887D01*
X183104428Y-117020771D01*
X182989851Y-116959528D01*
X182823255Y-116908992D01*
X182650001Y-116891928D01*
X180949999Y-116891928D01*
X180776745Y-116908992D01*
X180610149Y-116959528D01*
X180456613Y-117041595D01*
X180322038Y-117152038D01*
X180211595Y-117286613D01*
X180129528Y-117440149D01*
X180078992Y-117606745D01*
X180061928Y-117779999D01*
X179540000Y-117779999D01*
X179540000Y-114518043D01*
X179694759Y-114414637D01*
X179894637Y-114214759D01*
X180051680Y-113979727D01*
X180159853Y-113718574D01*
X180215000Y-113441335D01*
X180215000Y-113158665D01*
X180159853Y-112881426D01*
X180051680Y-112620273D01*
X179894637Y-112385241D01*
X179694759Y-112185363D01*
X179459727Y-112028320D01*
X179198574Y-111920147D01*
X178921335Y-111865000D01*
X178638665Y-111865000D01*
X178361426Y-111920147D01*
X178100273Y-112028320D01*
X177865241Y-112185363D01*
X177665363Y-112385241D01*
X177508320Y-112620273D01*
X177400147Y-112881426D01*
X177345000Y-113158665D01*
X177345000Y-113441335D01*
X177400147Y-113718574D01*
X177508320Y-113979727D01*
X177665363Y-114214759D01*
X177865241Y-114414637D01*
X178020001Y-114518044D01*
X178020000Y-123975198D01*
X174825567Y-127169631D01*
X174879853Y-127038574D01*
X174935000Y-126761335D01*
X174935000Y-126478665D01*
X174879853Y-126201426D01*
X174771680Y-125940273D01*
X174614637Y-125705241D01*
X174414759Y-125505363D01*
X174179727Y-125348320D01*
X173918574Y-125240147D01*
X173641335Y-125185000D01*
X173358665Y-125185000D01*
X173081426Y-125240147D01*
X172820273Y-125348320D01*
X172585241Y-125505363D01*
X172385363Y-125705241D01*
X172228320Y-125940273D01*
X172120147Y-126201426D01*
X172065000Y-126478665D01*
X172065000Y-126761335D01*
X172101312Y-126943886D01*
X171583993Y-127461206D01*
X171554989Y-127485009D01*
X171514161Y-127534759D01*
X171460016Y-127600734D01*
X171434883Y-127647754D01*
X171389444Y-127732764D01*
X171345987Y-127876025D01*
X171334990Y-127987678D01*
X171334990Y-127987688D01*
X171331314Y-128025010D01*
X168285010Y-128025010D01*
X168285010Y-120682333D01*
X168288686Y-120645010D01*
X168285010Y-120607687D01*
X168285010Y-120607677D01*
X168274013Y-120496024D01*
X168230556Y-120352763D01*
X168159984Y-120220734D01*
X168065011Y-120105009D01*
X168036014Y-120081212D01*
X167398688Y-119443886D01*
X167435000Y-119261335D01*
X167435000Y-118978665D01*
X168565000Y-118978665D01*
X168565000Y-119261335D01*
X168620147Y-119538574D01*
X168728320Y-119799727D01*
X168885363Y-120034759D01*
X169085241Y-120234637D01*
X169320273Y-120391680D01*
X169581426Y-120499853D01*
X169858665Y-120555000D01*
X170141335Y-120555000D01*
X170418574Y-120499853D01*
X170679727Y-120391680D01*
X170914759Y-120234637D01*
X171114637Y-120034759D01*
X171271680Y-119799727D01*
X171379853Y-119538574D01*
X171435000Y-119261335D01*
X171435000Y-118978665D01*
X171411131Y-118858665D01*
X172065000Y-118858665D01*
X172065000Y-119141335D01*
X172120147Y-119418574D01*
X172228320Y-119679727D01*
X172385363Y-119914759D01*
X172585241Y-120114637D01*
X172820273Y-120271680D01*
X173081426Y-120379853D01*
X173358665Y-120435000D01*
X173641335Y-120435000D01*
X173918574Y-120379853D01*
X174179727Y-120271680D01*
X174414759Y-120114637D01*
X174614637Y-119914759D01*
X174771680Y-119679727D01*
X174879853Y-119418574D01*
X174935000Y-119141335D01*
X174935000Y-118858665D01*
X174879853Y-118581426D01*
X174771680Y-118320273D01*
X174614637Y-118085241D01*
X174414759Y-117885363D01*
X174179727Y-117728320D01*
X173918574Y-117620147D01*
X173641335Y-117565000D01*
X173358665Y-117565000D01*
X173081426Y-117620147D01*
X172820273Y-117728320D01*
X172585241Y-117885363D01*
X172385363Y-118085241D01*
X172228320Y-118320273D01*
X172120147Y-118581426D01*
X172065000Y-118858665D01*
X171411131Y-118858665D01*
X171379853Y-118701426D01*
X171271680Y-118440273D01*
X171114637Y-118205241D01*
X170914759Y-118005363D01*
X170679727Y-117848320D01*
X170418574Y-117740147D01*
X170141335Y-117685000D01*
X169858665Y-117685000D01*
X169581426Y-117740147D01*
X169320273Y-117848320D01*
X169085241Y-118005363D01*
X168885363Y-118205241D01*
X168728320Y-118440273D01*
X168620147Y-118701426D01*
X168565000Y-118978665D01*
X167435000Y-118978665D01*
X167379853Y-118701426D01*
X167271680Y-118440273D01*
X167114637Y-118205241D01*
X166914759Y-118005363D01*
X166679727Y-117848320D01*
X166418574Y-117740147D01*
X166141335Y-117685000D01*
X165858665Y-117685000D01*
X165581426Y-117740147D01*
X165320273Y-117848320D01*
X165085241Y-118005363D01*
X164885363Y-118205241D01*
X164728320Y-118440273D01*
X164620147Y-118701426D01*
X164565000Y-118978665D01*
X164565000Y-119261335D01*
X164620147Y-119538574D01*
X164728320Y-119799727D01*
X164885363Y-120034759D01*
X165085241Y-120234637D01*
X165320273Y-120391680D01*
X165581426Y-120499853D01*
X165858665Y-120555000D01*
X166141335Y-120555000D01*
X166323886Y-120518688D01*
X166765010Y-120959812D01*
X166765010Y-129061928D01*
X164800000Y-129061928D01*
X164675518Y-129074188D01*
X164555820Y-129110498D01*
X164445506Y-129169463D01*
X164348815Y-129248815D01*
X164269463Y-129345506D01*
X164210498Y-129455820D01*
X164174188Y-129575518D01*
X164161928Y-129700000D01*
X164161928Y-131300000D01*
X164174188Y-131424482D01*
X164210498Y-131544180D01*
X164269463Y-131654494D01*
X164348815Y-131751185D01*
X164445506Y-131830537D01*
X164555820Y-131889502D01*
X164675518Y-131925812D01*
X164693482Y-131927581D01*
X164580392Y-132020392D01*
X164401068Y-132238899D01*
X164267818Y-132488192D01*
X164185764Y-132758691D01*
X164158057Y-133040000D01*
X164185764Y-133321309D01*
X164267818Y-133591808D01*
X164401068Y-133841101D01*
X164580392Y-134059608D01*
X164798899Y-134238932D01*
X164931858Y-134310000D01*
X164798899Y-134381068D01*
X164580392Y-134560392D01*
X164401068Y-134778899D01*
X164379099Y-134820000D01*
X162337325Y-134820000D01*
X162300000Y-134816324D01*
X162262675Y-134820000D01*
X162262667Y-134820000D01*
X162151014Y-134830997D01*
X162007753Y-134874454D01*
X161875724Y-134945026D01*
X161759999Y-135039999D01*
X161736201Y-135068997D01*
X161323886Y-135481312D01*
X161141335Y-135445000D01*
X160858665Y-135445000D01*
X160581426Y-135500147D01*
X160320273Y-135608320D01*
X160085241Y-135765363D01*
X159885363Y-135965241D01*
X159781957Y-136120000D01*
X157637942Y-136120000D01*
X157637942Y-134492702D01*
X160186903Y-134492702D01*
X160258486Y-134736671D01*
X160513996Y-134857571D01*
X160788184Y-134926300D01*
X161070512Y-134940217D01*
X161350130Y-134898787D01*
X161616292Y-134803603D01*
X161741514Y-134736671D01*
X161813097Y-134492702D01*
X161000000Y-133679605D01*
X160186903Y-134492702D01*
X157637942Y-134492702D01*
X157637942Y-133570512D01*
X159559783Y-133570512D01*
X159601213Y-133850130D01*
X159696397Y-134116292D01*
X159763329Y-134241514D01*
X160007298Y-134313097D01*
X160820395Y-133500000D01*
X161179605Y-133500000D01*
X161992702Y-134313097D01*
X162236671Y-134241514D01*
X162357571Y-133986004D01*
X162426300Y-133711816D01*
X162440217Y-133429488D01*
X162398787Y-133149870D01*
X162303603Y-132883708D01*
X162236671Y-132758486D01*
X161992702Y-132686903D01*
X161179605Y-133500000D01*
X160820395Y-133500000D01*
X160007298Y-132686903D01*
X159763329Y-132758486D01*
X159642429Y-133013996D01*
X159573700Y-133288184D01*
X159559783Y-133570512D01*
X157637942Y-133570512D01*
X157637942Y-133500130D01*
X157625682Y-133375648D01*
X157589372Y-133255950D01*
X157530407Y-133145636D01*
X157451055Y-133048945D01*
X157354364Y-132969593D01*
X157244050Y-132910628D01*
X157124352Y-132874318D01*
X156999870Y-132862058D01*
X156840253Y-132862058D01*
X156860900Y-132848262D01*
X157158262Y-132550900D01*
X157391897Y-132201240D01*
X157552828Y-131812719D01*
X157634870Y-131400266D01*
X157634870Y-130979734D01*
X157610788Y-130858665D01*
X159565000Y-130858665D01*
X159565000Y-131141335D01*
X159620147Y-131418574D01*
X159728320Y-131679727D01*
X159885363Y-131914759D01*
X160085241Y-132114637D01*
X160285869Y-132248692D01*
X160258486Y-132263329D01*
X160186903Y-132507298D01*
X161000000Y-133320395D01*
X161813097Y-132507298D01*
X161741514Y-132263329D01*
X161712659Y-132249676D01*
X161914759Y-132114637D01*
X162114637Y-131914759D01*
X162271680Y-131679727D01*
X162379853Y-131418574D01*
X162435000Y-131141335D01*
X162435000Y-130858665D01*
X162379853Y-130581426D01*
X162271680Y-130320273D01*
X162114637Y-130085241D01*
X161914759Y-129885363D01*
X161679727Y-129728320D01*
X161418574Y-129620147D01*
X161141335Y-129565000D01*
X160858665Y-129565000D01*
X160581426Y-129620147D01*
X160320273Y-129728320D01*
X160085241Y-129885363D01*
X159885363Y-130085241D01*
X159728320Y-130320273D01*
X159620147Y-130581426D01*
X159565000Y-130858665D01*
X157610788Y-130858665D01*
X157552828Y-130567281D01*
X157391897Y-130178760D01*
X157158262Y-129829100D01*
X156860900Y-129531738D01*
X156511240Y-129298103D01*
X156479607Y-129285000D01*
X156511240Y-129271897D01*
X156860900Y-129038262D01*
X157158262Y-128740900D01*
X157391897Y-128391240D01*
X157552828Y-128002719D01*
X157634870Y-127590266D01*
X157634870Y-127169734D01*
X157552828Y-126757281D01*
X157391897Y-126368760D01*
X157158262Y-126019100D01*
X156860900Y-125721738D01*
X156511240Y-125488103D01*
X156479607Y-125475000D01*
X156511240Y-125461897D01*
X156860900Y-125228262D01*
X157158262Y-124930900D01*
X157391897Y-124581240D01*
X157552828Y-124192719D01*
X157634870Y-123780266D01*
X157634870Y-123359734D01*
X157577341Y-123070512D01*
X162059783Y-123070512D01*
X162101213Y-123350130D01*
X162196397Y-123616292D01*
X162261616Y-123738309D01*
X162248815Y-123748815D01*
X162169463Y-123845506D01*
X162110498Y-123955820D01*
X162074188Y-124075518D01*
X162061928Y-124200000D01*
X162061928Y-125800000D01*
X162074188Y-125924482D01*
X162110498Y-126044180D01*
X162169463Y-126154494D01*
X162248815Y-126251185D01*
X162345506Y-126330537D01*
X162455820Y-126389502D01*
X162575518Y-126425812D01*
X162700000Y-126438072D01*
X164300000Y-126438072D01*
X164424482Y-126425812D01*
X164544180Y-126389502D01*
X164654494Y-126330537D01*
X164751185Y-126251185D01*
X164830537Y-126154494D01*
X164889502Y-126044180D01*
X164925812Y-125924482D01*
X164938072Y-125800000D01*
X164938072Y-124200000D01*
X164925812Y-124075518D01*
X164889502Y-123955820D01*
X164830537Y-123845506D01*
X164751185Y-123748815D01*
X164738242Y-123738193D01*
X164857571Y-123486004D01*
X164926300Y-123211816D01*
X164940217Y-122929488D01*
X164898787Y-122649870D01*
X164803603Y-122383708D01*
X164736671Y-122258486D01*
X164492702Y-122186903D01*
X163679605Y-123000000D01*
X163693748Y-123014143D01*
X163514143Y-123193748D01*
X163500000Y-123179605D01*
X163485858Y-123193748D01*
X163306253Y-123014143D01*
X163320395Y-123000000D01*
X162507298Y-122186903D01*
X162263329Y-122258486D01*
X162142429Y-122513996D01*
X162073700Y-122788184D01*
X162059783Y-123070512D01*
X157577341Y-123070512D01*
X157552828Y-122947281D01*
X157391897Y-122558760D01*
X157158262Y-122209100D01*
X156956460Y-122007298D01*
X162686903Y-122007298D01*
X163500000Y-122820395D01*
X164313097Y-122007298D01*
X164241514Y-121763329D01*
X163986004Y-121642429D01*
X163711816Y-121573700D01*
X163429488Y-121559783D01*
X163149870Y-121601213D01*
X162883708Y-121696397D01*
X162758486Y-121763329D01*
X162686903Y-122007298D01*
X156956460Y-122007298D01*
X156860900Y-121911738D01*
X156511240Y-121678103D01*
X156122719Y-121517172D01*
X155710266Y-121435130D01*
X155289734Y-121435130D01*
X154877281Y-121517172D01*
X154626041Y-121621239D01*
X152813804Y-119809003D01*
X152790001Y-119779999D01*
X152674276Y-119685026D01*
X152542247Y-119614454D01*
X152398986Y-119570997D01*
X152287333Y-119560000D01*
X152287322Y-119560000D01*
X152250000Y-119556324D01*
X152212678Y-119560000D01*
X151958043Y-119560000D01*
X151854637Y-119405241D01*
X151654759Y-119205363D01*
X151422241Y-119050000D01*
X151654759Y-118894637D01*
X151854637Y-118694759D01*
X152011680Y-118459727D01*
X152119853Y-118198574D01*
X152175000Y-117921335D01*
X152175000Y-117879999D01*
X156261928Y-117879999D01*
X156261928Y-119120001D01*
X156278992Y-119293255D01*
X156329528Y-119459851D01*
X156411595Y-119613387D01*
X156522038Y-119747962D01*
X156656613Y-119858405D01*
X156810149Y-119940472D01*
X156976745Y-119991008D01*
X157149999Y-120008072D01*
X158850001Y-120008072D01*
X159023255Y-119991008D01*
X159189851Y-119940472D01*
X159343387Y-119858405D01*
X159477962Y-119747962D01*
X159588405Y-119613387D01*
X159670472Y-119459851D01*
X159721008Y-119293255D01*
X159738072Y-119120001D01*
X159738072Y-117879999D01*
X159721008Y-117706745D01*
X159670472Y-117540149D01*
X159588405Y-117386613D01*
X159477962Y-117252038D01*
X159343387Y-117141595D01*
X159234686Y-117083493D01*
X159390536Y-116930494D01*
X159557571Y-116685437D01*
X159673588Y-116412502D01*
X159691302Y-116320031D01*
X159570246Y-116087000D01*
X158127000Y-116087000D01*
X158127000Y-116107000D01*
X157873000Y-116107000D01*
X157873000Y-116087000D01*
X156429754Y-116087000D01*
X156308698Y-116320031D01*
X156326412Y-116412502D01*
X156442429Y-116685437D01*
X156609464Y-116930494D01*
X156765314Y-117083493D01*
X156656613Y-117141595D01*
X156522038Y-117252038D01*
X156411595Y-117386613D01*
X156329528Y-117540149D01*
X156278992Y-117706745D01*
X156261928Y-117879999D01*
X152175000Y-117879999D01*
X152175000Y-117638665D01*
X152119853Y-117361426D01*
X152011680Y-117100273D01*
X151854637Y-116865241D01*
X151654759Y-116665363D01*
X151422241Y-116510000D01*
X151654759Y-116354637D01*
X151854637Y-116154759D01*
X152011680Y-115919727D01*
X152119853Y-115658574D01*
X152131510Y-115599969D01*
X156308698Y-115599969D01*
X156429754Y-115833000D01*
X157873000Y-115833000D01*
X157873000Y-114609414D01*
X158127000Y-114609414D01*
X158127000Y-115833000D01*
X159570246Y-115833000D01*
X159691302Y-115599969D01*
X159673588Y-115507498D01*
X159557571Y-115234563D01*
X159390536Y-114989506D01*
X159178903Y-114781744D01*
X158930804Y-114619262D01*
X158655773Y-114508304D01*
X158364380Y-114453134D01*
X158127000Y-114609414D01*
X157873000Y-114609414D01*
X157635620Y-114453134D01*
X157344227Y-114508304D01*
X157069196Y-114619262D01*
X156821097Y-114781744D01*
X156609464Y-114989506D01*
X156442429Y-115234563D01*
X156326412Y-115507498D01*
X156308698Y-115599969D01*
X152131510Y-115599969D01*
X152175000Y-115381335D01*
X152175000Y-115098665D01*
X152119853Y-114821426D01*
X152011680Y-114560273D01*
X151854637Y-114325241D01*
X151654759Y-114125363D01*
X151422241Y-113970000D01*
X151654759Y-113814637D01*
X151854637Y-113614759D01*
X152011680Y-113379727D01*
X152119853Y-113118574D01*
X152175000Y-112841335D01*
X152175000Y-112558665D01*
X152119853Y-112281426D01*
X152011680Y-112020273D01*
X151854637Y-111785241D01*
X151654759Y-111585363D01*
X151422241Y-111430000D01*
X151654759Y-111274637D01*
X151854637Y-111074759D01*
X152011680Y-110839727D01*
X152119853Y-110578574D01*
X152159352Y-110379999D01*
X156261928Y-110379999D01*
X156261928Y-111620001D01*
X156278992Y-111793255D01*
X156329528Y-111959851D01*
X156411595Y-112113387D01*
X156522038Y-112247962D01*
X156656613Y-112358405D01*
X156810149Y-112440472D01*
X156976745Y-112491008D01*
X157149999Y-112508072D01*
X158850001Y-112508072D01*
X159023255Y-112491008D01*
X159189851Y-112440472D01*
X159343387Y-112358405D01*
X159477962Y-112247962D01*
X159588405Y-112113387D01*
X159670472Y-111959851D01*
X159721008Y-111793255D01*
X159738072Y-111620001D01*
X159738072Y-111358665D01*
X164565000Y-111358665D01*
X164565000Y-111641335D01*
X164620147Y-111918574D01*
X164728320Y-112179727D01*
X164885363Y-112414759D01*
X165085241Y-112614637D01*
X165320273Y-112771680D01*
X165581426Y-112879853D01*
X165858665Y-112935000D01*
X166141335Y-112935000D01*
X166418574Y-112879853D01*
X166679727Y-112771680D01*
X166914759Y-112614637D01*
X167114637Y-112414759D01*
X167271680Y-112179727D01*
X167379853Y-111918574D01*
X167435000Y-111641335D01*
X167435000Y-111358665D01*
X167379853Y-111081426D01*
X167271680Y-110820273D01*
X167114637Y-110585241D01*
X166914759Y-110385363D01*
X166760000Y-110281957D01*
X166760000Y-109653889D01*
X166798815Y-109701185D01*
X166895506Y-109780537D01*
X167005820Y-109839502D01*
X167125518Y-109875812D01*
X167250000Y-109888072D01*
X167714250Y-109885000D01*
X167873000Y-109726250D01*
X167873000Y-108627000D01*
X167853000Y-108627000D01*
X167853000Y-108373000D01*
X167873000Y-108373000D01*
X167873000Y-108353000D01*
X168127000Y-108353000D01*
X168127000Y-108373000D01*
X168147000Y-108373000D01*
X168147000Y-108627000D01*
X168127000Y-108627000D01*
X168127000Y-109726250D01*
X168285750Y-109885000D01*
X168750000Y-109888072D01*
X168874482Y-109875812D01*
X168994180Y-109839502D01*
X169104494Y-109780537D01*
X169201185Y-109701185D01*
X169240001Y-109653888D01*
X169240001Y-110281956D01*
X169085241Y-110385363D01*
X168885363Y-110585241D01*
X168728320Y-110820273D01*
X168620147Y-111081426D01*
X168565000Y-111358665D01*
X168565000Y-111641335D01*
X168620147Y-111918574D01*
X168728320Y-112179727D01*
X168885363Y-112414759D01*
X169085241Y-112614637D01*
X169320273Y-112771680D01*
X169581426Y-112879853D01*
X169858665Y-112935000D01*
X170141335Y-112935000D01*
X170418574Y-112879853D01*
X170679727Y-112771680D01*
X170914759Y-112614637D01*
X171114637Y-112414759D01*
X171271680Y-112179727D01*
X171379853Y-111918574D01*
X171435000Y-111641335D01*
X171435000Y-111358665D01*
X171379853Y-111081426D01*
X171271680Y-110820273D01*
X171114637Y-110585241D01*
X170914759Y-110385363D01*
X170760000Y-110281957D01*
X170760000Y-105457322D01*
X170763676Y-105419999D01*
X170760000Y-105382676D01*
X170760000Y-105382667D01*
X170749003Y-105271014D01*
X170705546Y-105127753D01*
X170634974Y-104995723D01*
X170563799Y-104908997D01*
X170540001Y-104879999D01*
X170511004Y-104856202D01*
X169356167Y-103701365D01*
X169385000Y-103556411D01*
X169385000Y-103283589D01*
X169356167Y-103138635D01*
X169511003Y-102983799D01*
X169540001Y-102960001D01*
X169634974Y-102844276D01*
X169705546Y-102712247D01*
X169749003Y-102568986D01*
X169760000Y-102457333D01*
X169763677Y-102420000D01*
X169760000Y-102382667D01*
X169760000Y-99124283D01*
X169793255Y-99121008D01*
X169959851Y-99070472D01*
X170113387Y-98988405D01*
X170247962Y-98877962D01*
X170358405Y-98743387D01*
X170440472Y-98589851D01*
X170491008Y-98423255D01*
X170508072Y-98250001D01*
X170508072Y-97279872D01*
X181765000Y-97279872D01*
X181765000Y-97720128D01*
X181850890Y-98151925D01*
X182019369Y-98558669D01*
X182263962Y-98924729D01*
X182575271Y-99236038D01*
X182941331Y-99480631D01*
X183348075Y-99649110D01*
X183779872Y-99735000D01*
X184220128Y-99735000D01*
X184651925Y-99649110D01*
X185058669Y-99480631D01*
X185424729Y-99236038D01*
X185736038Y-98924729D01*
X185980631Y-98558669D01*
X186149110Y-98151925D01*
X186235000Y-97720128D01*
X186235000Y-97279872D01*
X186149110Y-96848075D01*
X185980631Y-96441331D01*
X185736038Y-96075271D01*
X185424729Y-95763962D01*
X185058669Y-95519369D01*
X184651925Y-95350890D01*
X184220128Y-95265000D01*
X183779872Y-95265000D01*
X183348075Y-95350890D01*
X182941331Y-95519369D01*
X182575271Y-95763962D01*
X182263962Y-96075271D01*
X182019369Y-96441331D01*
X181850890Y-96848075D01*
X181765000Y-97279872D01*
X170508072Y-97279872D01*
X170508072Y-96549999D01*
X170491008Y-96376745D01*
X170440472Y-96210149D01*
X170358405Y-96056613D01*
X170247962Y-95922038D01*
X170113387Y-95811595D01*
X169959851Y-95729528D01*
X169793255Y-95678992D01*
X169620001Y-95661928D01*
X168379999Y-95661928D01*
X168206745Y-95678992D01*
X168040149Y-95729528D01*
X167886613Y-95811595D01*
X167752038Y-95922038D01*
X167641595Y-96056613D01*
X167583493Y-96165314D01*
X167430494Y-96009464D01*
X167185437Y-95842429D01*
X166912502Y-95726412D01*
X166820031Y-95708698D01*
X166587000Y-95829754D01*
X166587000Y-97273000D01*
X166607000Y-97273000D01*
X166607000Y-97527000D01*
X166587000Y-97527000D01*
X166587000Y-98970246D01*
X166820031Y-99091302D01*
X166912502Y-99073588D01*
X167185437Y-98957571D01*
X167430494Y-98790536D01*
X167583493Y-98634686D01*
X167641595Y-98743387D01*
X167752038Y-98877962D01*
X167886613Y-98988405D01*
X168040149Y-99070472D01*
X168206745Y-99121008D01*
X168240000Y-99124283D01*
X168240001Y-102055605D01*
X168136411Y-102035000D01*
X167863589Y-102035000D01*
X167596011Y-102088225D01*
X167343957Y-102192629D01*
X167117114Y-102344201D01*
X166924201Y-102537114D01*
X166772629Y-102763957D01*
X166668225Y-103016011D01*
X166615000Y-103283589D01*
X166615000Y-103556411D01*
X166668225Y-103823989D01*
X166772629Y-104076043D01*
X166924201Y-104302886D01*
X167117114Y-104495799D01*
X167343957Y-104647371D01*
X167446873Y-104690000D01*
X167343957Y-104732629D01*
X167117114Y-104884201D01*
X166924201Y-105077114D01*
X166772629Y-105303957D01*
X166668225Y-105556011D01*
X166615000Y-105823589D01*
X166615000Y-106096411D01*
X166643833Y-106241365D01*
X165489003Y-107396196D01*
X165459999Y-107419999D01*
X165411854Y-107478665D01*
X165365026Y-107535724D01*
X165317030Y-107625518D01*
X165294454Y-107667754D01*
X165250997Y-107811015D01*
X165240000Y-107922668D01*
X165240000Y-107922678D01*
X165236324Y-107960000D01*
X165240000Y-107997323D01*
X165240001Y-110281956D01*
X165085241Y-110385363D01*
X164885363Y-110585241D01*
X164728320Y-110820273D01*
X164620147Y-111081426D01*
X164565000Y-111358665D01*
X159738072Y-111358665D01*
X159738072Y-110379999D01*
X159721008Y-110206745D01*
X159670472Y-110040149D01*
X159588405Y-109886613D01*
X159477962Y-109752038D01*
X159343387Y-109641595D01*
X159234686Y-109583493D01*
X159390536Y-109430494D01*
X159557571Y-109185437D01*
X159673588Y-108912502D01*
X159691302Y-108820031D01*
X159570246Y-108587000D01*
X158127000Y-108587000D01*
X158127000Y-108607000D01*
X157873000Y-108607000D01*
X157873000Y-108587000D01*
X156429754Y-108587000D01*
X156308698Y-108820031D01*
X156326412Y-108912502D01*
X156442429Y-109185437D01*
X156609464Y-109430494D01*
X156765314Y-109583493D01*
X156656613Y-109641595D01*
X156522038Y-109752038D01*
X156411595Y-109886613D01*
X156329528Y-110040149D01*
X156278992Y-110206745D01*
X156261928Y-110379999D01*
X152159352Y-110379999D01*
X152175000Y-110301335D01*
X152175000Y-110018665D01*
X152119853Y-109741426D01*
X152011680Y-109480273D01*
X151854637Y-109245241D01*
X151654759Y-109045363D01*
X151422241Y-108890000D01*
X151654759Y-108734637D01*
X151854637Y-108534759D01*
X152011680Y-108299727D01*
X152094422Y-108099969D01*
X156308698Y-108099969D01*
X156429754Y-108333000D01*
X157873000Y-108333000D01*
X157873000Y-107109414D01*
X158127000Y-107109414D01*
X158127000Y-108333000D01*
X159570246Y-108333000D01*
X159691302Y-108099969D01*
X159673588Y-108007498D01*
X159557571Y-107734563D01*
X159390536Y-107489506D01*
X159178903Y-107281744D01*
X158930804Y-107119262D01*
X158655773Y-107008304D01*
X158364380Y-106953134D01*
X158127000Y-107109414D01*
X157873000Y-107109414D01*
X157635620Y-106953134D01*
X157344227Y-107008304D01*
X157069196Y-107119262D01*
X156821097Y-107281744D01*
X156609464Y-107489506D01*
X156442429Y-107734563D01*
X156326412Y-108007498D01*
X156308698Y-108099969D01*
X152094422Y-108099969D01*
X152119853Y-108038574D01*
X152175000Y-107761335D01*
X152175000Y-107478665D01*
X152119853Y-107201426D01*
X152011680Y-106940273D01*
X151854637Y-106705241D01*
X151654759Y-106505363D01*
X151422241Y-106350000D01*
X151654759Y-106194637D01*
X151854637Y-105994759D01*
X152011680Y-105759727D01*
X152119853Y-105498574D01*
X152175000Y-105221335D01*
X152175000Y-104938665D01*
X152119853Y-104661426D01*
X152011680Y-104400273D01*
X151854637Y-104165241D01*
X151654759Y-103965363D01*
X151419727Y-103808320D01*
X151409135Y-103803933D01*
X151595131Y-103692385D01*
X151803519Y-103503414D01*
X151971037Y-103277420D01*
X152091246Y-103023087D01*
X152131904Y-102889039D01*
X152009915Y-102667000D01*
X150867000Y-102667000D01*
X150867000Y-102687000D01*
X150613000Y-102687000D01*
X150613000Y-102667000D01*
X149470085Y-102667000D01*
X149348096Y-102889039D01*
X149388754Y-103023087D01*
X149508963Y-103277420D01*
X149676481Y-103503414D01*
X149884869Y-103692385D01*
X150070865Y-103803933D01*
X150060273Y-103808320D01*
X149825241Y-103965363D01*
X149625363Y-104165241D01*
X149468320Y-104400273D01*
X149360147Y-104661426D01*
X149305000Y-104938665D01*
X149305000Y-105221335D01*
X149360147Y-105498574D01*
X149468320Y-105759727D01*
X149625363Y-105994759D01*
X149825241Y-106194637D01*
X150057759Y-106350000D01*
X149825241Y-106505363D01*
X149625363Y-106705241D01*
X149468320Y-106940273D01*
X149360147Y-107201426D01*
X149305000Y-107478665D01*
X149305000Y-107761335D01*
X149360147Y-108038574D01*
X149468320Y-108299727D01*
X149625363Y-108534759D01*
X149825241Y-108734637D01*
X150057759Y-108890000D01*
X149825241Y-109045363D01*
X149625363Y-109245241D01*
X149468320Y-109480273D01*
X149360147Y-109741426D01*
X149305000Y-110018665D01*
X149305000Y-110301335D01*
X149360147Y-110578574D01*
X149468320Y-110839727D01*
X149625363Y-111074759D01*
X149825241Y-111274637D01*
X150057759Y-111430000D01*
X149825241Y-111585363D01*
X149625363Y-111785241D01*
X149468320Y-112020273D01*
X149360147Y-112281426D01*
X149305000Y-112558665D01*
X149305000Y-112841335D01*
X149360147Y-113118574D01*
X149468320Y-113379727D01*
X149625363Y-113614759D01*
X149825241Y-113814637D01*
X150057759Y-113970000D01*
X149825241Y-114125363D01*
X149625363Y-114325241D01*
X149468320Y-114560273D01*
X149360147Y-114821426D01*
X149305000Y-115098665D01*
X149305000Y-115381335D01*
X149360147Y-115658574D01*
X149468320Y-115919727D01*
X149625363Y-116154759D01*
X149825241Y-116354637D01*
X150057759Y-116510000D01*
X149825241Y-116665363D01*
X149625363Y-116865241D01*
X149468320Y-117100273D01*
X149360147Y-117361426D01*
X149305000Y-117638665D01*
X149305000Y-117921335D01*
X149360147Y-118198574D01*
X149468320Y-118459727D01*
X149625363Y-118694759D01*
X149825241Y-118894637D01*
X150057759Y-119050000D01*
X149825241Y-119205363D01*
X149625363Y-119405241D01*
X149468320Y-119640273D01*
X149360147Y-119901426D01*
X149305000Y-120178665D01*
X149305000Y-120461335D01*
X149360147Y-120738574D01*
X149468320Y-120999727D01*
X149625363Y-121234759D01*
X149825241Y-121434637D01*
X150057759Y-121590000D01*
X149825241Y-121745363D01*
X149625363Y-121945241D01*
X149468320Y-122180273D01*
X149360147Y-122441426D01*
X149305000Y-122718665D01*
X149305000Y-123001335D01*
X149360147Y-123278574D01*
X149468320Y-123539727D01*
X149625363Y-123774759D01*
X149825241Y-123974637D01*
X150057759Y-124130000D01*
X149825241Y-124285363D01*
X149625363Y-124485241D01*
X149468320Y-124720273D01*
X149360147Y-124981426D01*
X149305000Y-125258665D01*
X149305000Y-125541335D01*
X149360147Y-125818574D01*
X149468320Y-126079727D01*
X149625363Y-126314759D01*
X149825241Y-126514637D01*
X150057759Y-126670000D01*
X149825241Y-126825363D01*
X149625363Y-127025241D01*
X149468320Y-127260273D01*
X149360147Y-127521426D01*
X149305000Y-127798665D01*
X149305000Y-128081335D01*
X149360147Y-128358574D01*
X149468320Y-128619727D01*
X149625363Y-128854759D01*
X149825241Y-129054637D01*
X150057759Y-129210000D01*
X149825241Y-129365363D01*
X149625363Y-129565241D01*
X149468320Y-129800273D01*
X149360147Y-130061426D01*
X149305000Y-130338665D01*
X149305000Y-130621335D01*
X149360147Y-130898574D01*
X149468320Y-131159727D01*
X149625363Y-131394759D01*
X149825241Y-131594637D01*
X150057759Y-131750000D01*
X149825241Y-131905363D01*
X149625363Y-132105241D01*
X149468320Y-132340273D01*
X149360147Y-132601426D01*
X149305000Y-132878665D01*
X149305000Y-133161335D01*
X149349491Y-133385001D01*
X148596213Y-133385001D01*
X147700214Y-132489002D01*
X147676411Y-132459999D01*
X147560686Y-132365026D01*
X147428657Y-132294454D01*
X147285396Y-132250997D01*
X147173743Y-132240000D01*
X147173732Y-132240000D01*
X147136410Y-132236324D01*
X147099088Y-132240000D01*
X139466172Y-132240000D01*
X137195174Y-129969003D01*
X137171371Y-129939999D01*
X137055646Y-129845026D01*
X136923617Y-129774454D01*
X136780356Y-129730997D01*
X136721519Y-129725202D01*
X136614637Y-129565241D01*
X136414759Y-129365363D01*
X136182241Y-129210000D01*
X136414759Y-129054637D01*
X136614637Y-128854759D01*
X136771680Y-128619727D01*
X136879853Y-128358574D01*
X136935000Y-128081335D01*
X136935000Y-127798665D01*
X136879853Y-127521426D01*
X136771680Y-127260273D01*
X136614637Y-127025241D01*
X136414759Y-126825363D01*
X136182241Y-126670000D01*
X136414759Y-126514637D01*
X136614637Y-126314759D01*
X136771680Y-126079727D01*
X136879853Y-125818574D01*
X136935000Y-125541335D01*
X136935000Y-125258665D01*
X136879853Y-124981426D01*
X136771680Y-124720273D01*
X136614637Y-124485241D01*
X136414759Y-124285363D01*
X136182241Y-124130000D01*
X136414759Y-123974637D01*
X136614637Y-123774759D01*
X136771680Y-123539727D01*
X136879853Y-123278574D01*
X136935000Y-123001335D01*
X136935000Y-122718665D01*
X136879853Y-122441426D01*
X136771680Y-122180273D01*
X136614637Y-121945241D01*
X136414759Y-121745363D01*
X136182241Y-121590000D01*
X136414759Y-121434637D01*
X136614637Y-121234759D01*
X136771680Y-120999727D01*
X136879853Y-120738574D01*
X136935000Y-120461335D01*
X136935000Y-120178665D01*
X136879853Y-119901426D01*
X136771680Y-119640273D01*
X136614637Y-119405241D01*
X136414759Y-119205363D01*
X136182241Y-119050000D01*
X136414759Y-118894637D01*
X136614637Y-118694759D01*
X136771680Y-118459727D01*
X136879853Y-118198574D01*
X136935000Y-117921335D01*
X136935000Y-117638665D01*
X136879853Y-117361426D01*
X136771680Y-117100273D01*
X136614637Y-116865241D01*
X136414759Y-116665363D01*
X136182241Y-116510000D01*
X136414759Y-116354637D01*
X136614637Y-116154759D01*
X136771680Y-115919727D01*
X136879853Y-115658574D01*
X136935000Y-115381335D01*
X136935000Y-115098665D01*
X136879853Y-114821426D01*
X136771680Y-114560273D01*
X136614637Y-114325241D01*
X136414759Y-114125363D01*
X136182241Y-113970000D01*
X136414759Y-113814637D01*
X136614637Y-113614759D01*
X136771680Y-113379727D01*
X136879853Y-113118574D01*
X136935000Y-112841335D01*
X136935000Y-112558665D01*
X136879853Y-112281426D01*
X136771680Y-112020273D01*
X136614637Y-111785241D01*
X136414759Y-111585363D01*
X136182241Y-111430000D01*
X136414759Y-111274637D01*
X136614637Y-111074759D01*
X136771680Y-110839727D01*
X136879853Y-110578574D01*
X136935000Y-110301335D01*
X136935000Y-110018665D01*
X136879853Y-109741426D01*
X136771680Y-109480273D01*
X136614637Y-109245241D01*
X136414759Y-109045363D01*
X136179727Y-108888320D01*
X136169135Y-108883933D01*
X136355131Y-108772385D01*
X136563519Y-108583414D01*
X136731037Y-108357420D01*
X136851246Y-108103087D01*
X136891904Y-107969039D01*
X136769915Y-107747000D01*
X135627000Y-107747000D01*
X135627000Y-107767000D01*
X135373000Y-107767000D01*
X135373000Y-107747000D01*
X134230085Y-107747000D01*
X134205872Y-107791071D01*
X132637942Y-106223141D01*
X132637942Y-104000130D01*
X132625682Y-103875648D01*
X132589372Y-103755950D01*
X132530407Y-103645636D01*
X132451055Y-103548945D01*
X132354364Y-103469593D01*
X132244050Y-103410628D01*
X132124352Y-103374318D01*
X131999870Y-103362058D01*
X129000130Y-103362058D01*
X128875648Y-103374318D01*
X128755950Y-103410628D01*
X128645636Y-103469593D01*
X128548945Y-103548945D01*
X128469593Y-103645636D01*
X128410628Y-103755950D01*
X128374318Y-103875648D01*
X128362058Y-104000130D01*
X125660000Y-104000130D01*
X125660000Y-97279872D01*
X127265000Y-97279872D01*
X127265000Y-97720128D01*
X127350890Y-98151925D01*
X127519369Y-98558669D01*
X127763962Y-98924729D01*
X128075271Y-99236038D01*
X128441331Y-99480631D01*
X128848075Y-99649110D01*
X129279872Y-99735000D01*
X129720128Y-99735000D01*
X130151925Y-99649110D01*
X130558669Y-99480631D01*
X130924729Y-99236038D01*
X130960767Y-99200000D01*
X134061928Y-99200000D01*
X134061928Y-100800000D01*
X134074188Y-100924482D01*
X134110498Y-101044180D01*
X134169463Y-101154494D01*
X134248815Y-101251185D01*
X134345506Y-101330537D01*
X134455820Y-101389502D01*
X134575518Y-101425812D01*
X134583961Y-101426643D01*
X134385363Y-101625241D01*
X134228320Y-101860273D01*
X134120147Y-102121426D01*
X134065000Y-102398665D01*
X134065000Y-102681335D01*
X134120147Y-102958574D01*
X134228320Y-103219727D01*
X134385363Y-103454759D01*
X134585241Y-103654637D01*
X134817759Y-103810000D01*
X134585241Y-103965363D01*
X134385363Y-104165241D01*
X134228320Y-104400273D01*
X134120147Y-104661426D01*
X134065000Y-104938665D01*
X134065000Y-105221335D01*
X134120147Y-105498574D01*
X134228320Y-105759727D01*
X134385363Y-105994759D01*
X134585241Y-106194637D01*
X134820273Y-106351680D01*
X134830865Y-106356067D01*
X134644869Y-106467615D01*
X134436481Y-106656586D01*
X134268963Y-106882580D01*
X134148754Y-107136913D01*
X134108096Y-107270961D01*
X134230085Y-107493000D01*
X135373000Y-107493000D01*
X135373000Y-107473000D01*
X135627000Y-107473000D01*
X135627000Y-107493000D01*
X136769915Y-107493000D01*
X136891904Y-107270961D01*
X136851246Y-107136913D01*
X136731037Y-106882580D01*
X136563519Y-106656586D01*
X136355131Y-106467615D01*
X136169135Y-106356067D01*
X136179727Y-106351680D01*
X136414759Y-106194637D01*
X136614637Y-105994759D01*
X136771680Y-105759727D01*
X136879853Y-105498574D01*
X136935000Y-105221335D01*
X136935000Y-104938665D01*
X136879853Y-104661426D01*
X136771680Y-104400273D01*
X136614637Y-104165241D01*
X136414759Y-103965363D01*
X136182241Y-103810000D01*
X136414759Y-103654637D01*
X136614637Y-103454759D01*
X136771680Y-103219727D01*
X136879853Y-102958574D01*
X136935000Y-102681335D01*
X136935000Y-102398665D01*
X136879853Y-102121426D01*
X136771680Y-101860273D01*
X136614637Y-101625241D01*
X136416039Y-101426643D01*
X136424482Y-101425812D01*
X136544180Y-101389502D01*
X136654494Y-101330537D01*
X136751185Y-101251185D01*
X136830537Y-101154494D01*
X136889502Y-101044180D01*
X136925812Y-100924482D01*
X136938072Y-100800000D01*
X136938072Y-99858665D01*
X149305000Y-99858665D01*
X149305000Y-100141335D01*
X149360147Y-100418574D01*
X149468320Y-100679727D01*
X149625363Y-100914759D01*
X149825241Y-101114637D01*
X150060273Y-101271680D01*
X150070865Y-101276067D01*
X149884869Y-101387615D01*
X149676481Y-101576586D01*
X149508963Y-101802580D01*
X149388754Y-102056913D01*
X149348096Y-102190961D01*
X149470085Y-102413000D01*
X150613000Y-102413000D01*
X150613000Y-102393000D01*
X150867000Y-102393000D01*
X150867000Y-102413000D01*
X152009915Y-102413000D01*
X152131904Y-102190961D01*
X152091246Y-102056913D01*
X151971037Y-101802580D01*
X151803519Y-101576586D01*
X151595131Y-101387615D01*
X151409135Y-101276067D01*
X151419727Y-101271680D01*
X151654759Y-101114637D01*
X151854637Y-100914759D01*
X152011680Y-100679727D01*
X152086125Y-100500000D01*
X155661928Y-100500000D01*
X155661928Y-102100000D01*
X155674188Y-102224482D01*
X155710498Y-102344180D01*
X155769463Y-102454494D01*
X155848815Y-102551185D01*
X155945506Y-102630537D01*
X156055820Y-102689502D01*
X156175518Y-102725812D01*
X156300000Y-102738072D01*
X157900000Y-102738072D01*
X158024482Y-102725812D01*
X158144180Y-102689502D01*
X158254494Y-102630537D01*
X158351185Y-102551185D01*
X158361807Y-102538242D01*
X158613996Y-102657571D01*
X158888184Y-102726300D01*
X159170512Y-102740217D01*
X159450130Y-102698787D01*
X159716292Y-102603603D01*
X159841514Y-102536671D01*
X159913097Y-102292702D01*
X159100000Y-101479605D01*
X159085858Y-101493748D01*
X158906253Y-101314143D01*
X158920395Y-101300000D01*
X159279605Y-101300000D01*
X160092702Y-102113097D01*
X160336671Y-102041514D01*
X160457571Y-101786004D01*
X160526300Y-101511816D01*
X160540217Y-101229488D01*
X160498787Y-100949870D01*
X160403603Y-100683708D01*
X160336671Y-100558486D01*
X160092702Y-100486903D01*
X159279605Y-101300000D01*
X158920395Y-101300000D01*
X158906253Y-101285858D01*
X159085858Y-101106253D01*
X159100000Y-101120395D01*
X159913097Y-100307298D01*
X159841514Y-100063329D01*
X159586004Y-99942429D01*
X159311816Y-99873700D01*
X159029488Y-99859783D01*
X158749870Y-99901213D01*
X158483708Y-99996397D01*
X158361691Y-100061616D01*
X158351185Y-100048815D01*
X158254494Y-99969463D01*
X158144180Y-99910498D01*
X158024482Y-99874188D01*
X157900000Y-99861928D01*
X156300000Y-99861928D01*
X156175518Y-99874188D01*
X156055820Y-99910498D01*
X155945506Y-99969463D01*
X155848815Y-100048815D01*
X155769463Y-100145506D01*
X155710498Y-100255820D01*
X155674188Y-100375518D01*
X155661928Y-100500000D01*
X152086125Y-100500000D01*
X152119853Y-100418574D01*
X152175000Y-100141335D01*
X152175000Y-99858665D01*
X152119853Y-99581426D01*
X152011680Y-99320273D01*
X151854637Y-99085241D01*
X151654759Y-98885363D01*
X151419727Y-98728320D01*
X151158574Y-98620147D01*
X150881335Y-98565000D01*
X150598665Y-98565000D01*
X150321426Y-98620147D01*
X150060273Y-98728320D01*
X149825241Y-98885363D01*
X149625363Y-99085241D01*
X149468320Y-99320273D01*
X149360147Y-99581426D01*
X149305000Y-99858665D01*
X136938072Y-99858665D01*
X136938072Y-99200000D01*
X136925812Y-99075518D01*
X136889502Y-98955820D01*
X136830537Y-98845506D01*
X136751185Y-98748815D01*
X136654494Y-98669463D01*
X136544180Y-98610498D01*
X136424482Y-98574188D01*
X136300000Y-98561928D01*
X134700000Y-98561928D01*
X134575518Y-98574188D01*
X134455820Y-98610498D01*
X134345506Y-98669463D01*
X134248815Y-98748815D01*
X134169463Y-98845506D01*
X134110498Y-98955820D01*
X134074188Y-99075518D01*
X134061928Y-99200000D01*
X130960767Y-99200000D01*
X131236038Y-98924729D01*
X131480631Y-98558669D01*
X131649110Y-98151925D01*
X131726197Y-97764380D01*
X164953134Y-97764380D01*
X165008304Y-98055773D01*
X165119262Y-98330804D01*
X165281744Y-98578903D01*
X165489506Y-98790536D01*
X165734563Y-98957571D01*
X166007498Y-99073588D01*
X166099969Y-99091302D01*
X166333000Y-98970246D01*
X166333000Y-97527000D01*
X165109414Y-97527000D01*
X164953134Y-97764380D01*
X131726197Y-97764380D01*
X131735000Y-97720128D01*
X131735000Y-97279872D01*
X131686416Y-97035620D01*
X164953134Y-97035620D01*
X165109414Y-97273000D01*
X166333000Y-97273000D01*
X166333000Y-95829754D01*
X166099969Y-95708698D01*
X166007498Y-95726412D01*
X165734563Y-95842429D01*
X165489506Y-96009464D01*
X165281744Y-96221097D01*
X165119262Y-96469196D01*
X165008304Y-96744227D01*
X164953134Y-97035620D01*
X131686416Y-97035620D01*
X131649110Y-96848075D01*
X131480631Y-96441331D01*
X131236038Y-96075271D01*
X130924729Y-95763962D01*
X130558669Y-95519369D01*
X130151925Y-95350890D01*
X129720128Y-95265000D01*
X129279872Y-95265000D01*
X128848075Y-95350890D01*
X128441331Y-95519369D01*
X128075271Y-95763962D01*
X127763962Y-96075271D01*
X127519369Y-96441331D01*
X127350890Y-96848075D01*
X127265000Y-97279872D01*
X125660000Y-97279872D01*
X125660000Y-93660000D01*
X188340000Y-93660000D01*
X188340001Y-147840000D01*
G37*
X188340001Y-147840000D02*
X125660000Y-147840000D01*
X125660000Y-143779872D01*
X127265000Y-143779872D01*
X127265000Y-144220128D01*
X127350890Y-144651925D01*
X127519369Y-145058669D01*
X127763962Y-145424729D01*
X128075271Y-145736038D01*
X128441331Y-145980631D01*
X128848075Y-146149110D01*
X129279872Y-146235000D01*
X129720128Y-146235000D01*
X130151925Y-146149110D01*
X130558669Y-145980631D01*
X130924729Y-145736038D01*
X131236038Y-145424729D01*
X131480631Y-145058669D01*
X131649110Y-144651925D01*
X131707443Y-144358665D01*
X159565000Y-144358665D01*
X159565000Y-144641335D01*
X159620147Y-144918574D01*
X159728320Y-145179727D01*
X159885363Y-145414759D01*
X160085241Y-145614637D01*
X160320273Y-145771680D01*
X160581426Y-145879853D01*
X160858665Y-145935000D01*
X161141335Y-145935000D01*
X161418574Y-145879853D01*
X161679727Y-145771680D01*
X161914759Y-145614637D01*
X162114637Y-145414759D01*
X162271680Y-145179727D01*
X162379853Y-144918574D01*
X162435000Y-144641335D01*
X162435000Y-144358665D01*
X162379853Y-144081426D01*
X162271680Y-143820273D01*
X162114637Y-143585241D01*
X161914759Y-143385363D01*
X161679727Y-143228320D01*
X161418574Y-143120147D01*
X161141335Y-143065000D01*
X160858665Y-143065000D01*
X160581426Y-143120147D01*
X160320273Y-143228320D01*
X160085241Y-143385363D01*
X159885363Y-143585241D01*
X159728320Y-143820273D01*
X159620147Y-144081426D01*
X159565000Y-144358665D01*
X131707443Y-144358665D01*
X131735000Y-144220128D01*
X131735000Y-143779872D01*
X131649110Y-143348075D01*
X131480631Y-142941331D01*
X131236038Y-142575271D01*
X130924729Y-142263962D01*
X130558669Y-142019369D01*
X130151925Y-141850890D01*
X129720128Y-141765000D01*
X129279872Y-141765000D01*
X128848075Y-141850890D01*
X128441331Y-142019369D01*
X128075271Y-142263962D01*
X127763962Y-142575271D01*
X127519369Y-142941331D01*
X127350890Y-143348075D01*
X127265000Y-143779872D01*
X125660000Y-143779872D01*
X125660000Y-104000130D01*
X128362058Y-104000130D01*
X128362058Y-106999870D01*
X128374318Y-107124352D01*
X128410628Y-107244050D01*
X128469593Y-107354364D01*
X128548945Y-107451055D01*
X128645636Y-107530407D01*
X128755950Y-107589372D01*
X128875648Y-107625682D01*
X129000130Y-107637942D01*
X129159747Y-107637942D01*
X129139100Y-107651738D01*
X128841738Y-107949100D01*
X128608103Y-108298760D01*
X128447172Y-108687281D01*
X128365130Y-109099734D01*
X128365130Y-109520266D01*
X128447172Y-109932719D01*
X128608103Y-110321240D01*
X128841738Y-110670900D01*
X129139100Y-110968262D01*
X129488760Y-111201897D01*
X129520393Y-111215000D01*
X129488760Y-111228103D01*
X129139100Y-111461738D01*
X128841738Y-111759100D01*
X128608103Y-112108760D01*
X128447172Y-112497281D01*
X128365130Y-112909734D01*
X128365130Y-113330266D01*
X128447172Y-113742719D01*
X128608103Y-114131240D01*
X128841738Y-114480900D01*
X129139100Y-114778262D01*
X129488760Y-115011897D01*
X129520393Y-115025000D01*
X129488760Y-115038103D01*
X129139100Y-115271738D01*
X128841738Y-115569100D01*
X128608103Y-115918760D01*
X128447172Y-116307281D01*
X128365130Y-116719734D01*
X128365130Y-117140266D01*
X128447172Y-117552719D01*
X128608103Y-117941240D01*
X128841738Y-118290900D01*
X129139100Y-118588262D01*
X129488760Y-118821897D01*
X129877281Y-118982828D01*
X130289734Y-119064870D01*
X130710266Y-119064870D01*
X131122719Y-118982828D01*
X131511240Y-118821897D01*
X131860900Y-118588262D01*
X132158262Y-118290900D01*
X132391897Y-117941240D01*
X132495964Y-117690000D01*
X134065000Y-117690000D01*
X134065000Y-117921335D01*
X134120147Y-118198574D01*
X134228320Y-118459727D01*
X134385363Y-118694759D01*
X134585241Y-118894637D01*
X134817759Y-119050000D01*
X134585241Y-119205363D01*
X134385363Y-119405241D01*
X134228320Y-119640273D01*
X134120147Y-119901426D01*
X134065000Y-120178665D01*
X134065000Y-120461335D01*
X134101312Y-120643887D01*
X133863997Y-120881202D01*
X133834999Y-120905000D01*
X133811201Y-120933998D01*
X133811200Y-120933999D01*
X133740025Y-121020725D01*
X133669453Y-121152755D01*
X133659669Y-121185011D01*
X133625997Y-121296015D01*
X133620625Y-121350556D01*
X133611323Y-121445001D01*
X133615000Y-121482333D01*
X133614999Y-133522679D01*
X133611323Y-133560001D01*
X133614999Y-133597323D01*
X133614999Y-133597333D01*
X133625996Y-133708986D01*
X133641471Y-133760000D01*
X133669453Y-133852247D01*
X133740025Y-133984277D01*
X133761728Y-134010722D01*
X133834998Y-134100002D01*
X133864001Y-134123804D01*
X134385400Y-134645204D01*
X134385363Y-134645241D01*
X134228320Y-134880273D01*
X134120147Y-135141426D01*
X134065000Y-135418665D01*
X134065000Y-135701335D01*
X134120147Y-135978574D01*
X134228320Y-136239727D01*
X134385363Y-136474759D01*
X134585241Y-136674637D01*
X134820273Y-136831680D01*
X135081426Y-136939853D01*
X135358665Y-136995000D01*
X135641335Y-136995000D01*
X135918574Y-136939853D01*
X136179727Y-136831680D01*
X136414759Y-136674637D01*
X136614637Y-136474759D01*
X136771680Y-136239727D01*
X136879853Y-135978574D01*
X136935000Y-135701335D01*
X136935000Y-135418665D01*
X136890509Y-135194999D01*
X146983788Y-135194999D01*
X151867995Y-140079207D01*
X151891794Y-140108206D01*
X151920792Y-140132004D01*
X152007519Y-140203179D01*
X152139548Y-140273751D01*
X152282809Y-140317208D01*
X152431795Y-140331882D01*
X152469128Y-140328205D01*
X159253404Y-140328205D01*
X161221211Y-142296013D01*
X161245009Y-142325011D01*
X161360734Y-142419984D01*
X161492763Y-142490556D01*
X161636024Y-142534013D01*
X161747677Y-142545010D01*
X161747685Y-142545010D01*
X161785010Y-142548686D01*
X161822335Y-142545010D01*
X164322970Y-142545010D01*
X164267818Y-142648192D01*
X164185764Y-142918691D01*
X164158057Y-143200000D01*
X164185764Y-143481309D01*
X164267818Y-143751808D01*
X164401068Y-144001101D01*
X164580392Y-144219608D01*
X164798899Y-144398932D01*
X164931858Y-144470000D01*
X164798899Y-144541068D01*
X164580392Y-144720392D01*
X164401068Y-144938899D01*
X164267818Y-145188192D01*
X164185764Y-145458691D01*
X164158057Y-145740000D01*
X164185764Y-146021309D01*
X164267818Y-146291808D01*
X164401068Y-146541101D01*
X164580392Y-146759608D01*
X164798899Y-146938932D01*
X165048192Y-147072182D01*
X165318691Y-147154236D01*
X165529508Y-147175000D01*
X166470492Y-147175000D01*
X166681309Y-147154236D01*
X166951808Y-147072182D01*
X167201101Y-146938932D01*
X167419608Y-146759608D01*
X167598932Y-146541101D01*
X167732182Y-146291808D01*
X167793690Y-146089039D01*
X171828096Y-146089039D01*
X171845633Y-146171818D01*
X171956285Y-146431646D01*
X172115500Y-146664895D01*
X172317161Y-146862601D01*
X172553517Y-147017166D01*
X172815486Y-147122650D01*
X173093000Y-147175000D01*
X173493000Y-147175000D01*
X173493000Y-145867000D01*
X173747000Y-145867000D01*
X173747000Y-147175000D01*
X174147000Y-147175000D01*
X174424514Y-147122650D01*
X174686483Y-147017166D01*
X174922839Y-146862601D01*
X175124500Y-146664895D01*
X175283715Y-146431646D01*
X175394367Y-146171818D01*
X175411904Y-146089039D01*
X175289915Y-145867000D01*
X173747000Y-145867000D01*
X173493000Y-145867000D01*
X171950085Y-145867000D01*
X171828096Y-146089039D01*
X167793690Y-146089039D01*
X167814236Y-146021309D01*
X167841943Y-145740000D01*
X167814236Y-145458691D01*
X167732182Y-145188192D01*
X167598932Y-144938899D01*
X167419608Y-144720392D01*
X167201101Y-144541068D01*
X167068142Y-144470000D01*
X167201101Y-144398932D01*
X167419608Y-144219608D01*
X167598932Y-144001101D01*
X167732182Y-143751808D01*
X167814236Y-143481309D01*
X167841943Y-143200000D01*
X167814236Y-142918691D01*
X167732182Y-142648192D01*
X167598932Y-142398899D01*
X167476315Y-142249490D01*
X168036012Y-141689794D01*
X168065011Y-141665995D01*
X168159984Y-141550270D01*
X168230556Y-141418241D01*
X168274013Y-141274980D01*
X168285010Y-141163327D01*
X168285010Y-141163318D01*
X168288686Y-141125995D01*
X168285010Y-141088672D01*
X168285010Y-128025010D01*
X171331314Y-128025010D01*
X171334990Y-128062332D01*
X171334991Y-143087657D01*
X171331314Y-143124990D01*
X171345988Y-143273975D01*
X171389444Y-143417236D01*
X171460016Y-143549266D01*
X171521575Y-143624275D01*
X171554990Y-143664991D01*
X171583988Y-143688789D01*
X171606196Y-143710997D01*
X171629999Y-143740001D01*
X171745724Y-143834974D01*
X171877753Y-143905546D01*
X171987843Y-143938941D01*
X172021068Y-144001101D01*
X172200392Y-144219608D01*
X172418899Y-144398932D01*
X172546741Y-144467265D01*
X172317161Y-144617399D01*
X172115500Y-144815105D01*
X171956285Y-145048354D01*
X171845633Y-145308182D01*
X171828096Y-145390961D01*
X171950085Y-145613000D01*
X173493000Y-145613000D01*
X173493000Y-145593000D01*
X173747000Y-145593000D01*
X173747000Y-145613000D01*
X175289915Y-145613000D01*
X175411904Y-145390961D01*
X175394367Y-145308182D01*
X175283715Y-145048354D01*
X175124500Y-144815105D01*
X174922839Y-144617399D01*
X174693259Y-144467265D01*
X174821101Y-144398932D01*
X175039608Y-144219608D01*
X175218932Y-144001101D01*
X175337181Y-143779872D01*
X181765000Y-143779872D01*
X181765000Y-144220128D01*
X181850890Y-144651925D01*
X182019369Y-145058669D01*
X182263962Y-145424729D01*
X182575271Y-145736038D01*
X182941331Y-145980631D01*
X183348075Y-146149110D01*
X183779872Y-146235000D01*
X184220128Y-146235000D01*
X184651925Y-146149110D01*
X185058669Y-145980631D01*
X185424729Y-145736038D01*
X185736038Y-145424729D01*
X185980631Y-145058669D01*
X186149110Y-144651925D01*
X186235000Y-144220128D01*
X186235000Y-143779872D01*
X186149110Y-143348075D01*
X185980631Y-142941331D01*
X185736038Y-142575271D01*
X185424729Y-142263962D01*
X185058669Y-142019369D01*
X184651925Y-141850890D01*
X184220128Y-141765000D01*
X183779872Y-141765000D01*
X183348075Y-141850890D01*
X182941331Y-142019369D01*
X182575271Y-142263962D01*
X182263962Y-142575271D01*
X182019369Y-142941331D01*
X181850890Y-143348075D01*
X181765000Y-143779872D01*
X175337181Y-143779872D01*
X175352182Y-143751808D01*
X175434236Y-143481309D01*
X175461943Y-143200000D01*
X175434236Y-142918691D01*
X175352182Y-142648192D01*
X175218932Y-142398899D01*
X175039608Y-142180392D01*
X174821101Y-142001068D01*
X174688142Y-141930000D01*
X174821101Y-141858932D01*
X175039608Y-141679608D01*
X175218932Y-141461101D01*
X175252157Y-141398941D01*
X175362247Y-141365546D01*
X175494276Y-141294974D01*
X175610001Y-141200001D01*
X175633804Y-141170997D01*
X179291004Y-137513798D01*
X179320001Y-137490001D01*
X179414974Y-137374276D01*
X179485546Y-137242247D01*
X179529003Y-137098986D01*
X179540000Y-136987333D01*
X179540000Y-136987324D01*
X179543676Y-136950001D01*
X179540000Y-136912678D01*
X179540000Y-136218043D01*
X179694759Y-136114637D01*
X179894637Y-135914759D01*
X180051680Y-135679727D01*
X180159853Y-135418574D01*
X180215000Y-135141335D01*
X180215000Y-134858665D01*
X180159853Y-134581426D01*
X180051680Y-134320273D01*
X179894637Y-134085241D01*
X179694759Y-133885363D01*
X179459727Y-133728320D01*
X179198574Y-133620147D01*
X178921335Y-133565000D01*
X178638665Y-133565000D01*
X178361426Y-133620147D01*
X178100273Y-133728320D01*
X177865241Y-133885363D01*
X177665363Y-134085241D01*
X177508320Y-134320273D01*
X177400147Y-134581426D01*
X177345000Y-134858665D01*
X177345000Y-135141335D01*
X177400147Y-135418574D01*
X177508320Y-135679727D01*
X177665363Y-135914759D01*
X177865241Y-136114637D01*
X178020000Y-136218043D01*
X178020000Y-136635198D01*
X175025986Y-139629213D01*
X174821101Y-139461068D01*
X174688142Y-139390000D01*
X174821101Y-139318932D01*
X175039608Y-139139608D01*
X175218932Y-138921101D01*
X175352182Y-138671808D01*
X175434236Y-138401309D01*
X175461943Y-138120000D01*
X175434236Y-137838691D01*
X175352182Y-137568192D01*
X175218932Y-137318899D01*
X175039608Y-137100392D01*
X174821101Y-136921068D01*
X174693259Y-136852735D01*
X174922839Y-136702601D01*
X175124500Y-136504895D01*
X175283715Y-136271646D01*
X175394367Y-136011818D01*
X175411904Y-135929039D01*
X175289915Y-135707000D01*
X173747000Y-135707000D01*
X173747000Y-135727000D01*
X173493000Y-135727000D01*
X173493000Y-135707000D01*
X173473000Y-135707000D01*
X173473000Y-135453000D01*
X173493000Y-135453000D01*
X173493000Y-135433000D01*
X173747000Y-135433000D01*
X173747000Y-135453000D01*
X175289915Y-135453000D01*
X175411904Y-135230961D01*
X175394367Y-135148182D01*
X175283715Y-134888354D01*
X175124500Y-134655105D01*
X174922839Y-134457399D01*
X174693259Y-134307265D01*
X174821101Y-134238932D01*
X175039608Y-134059608D01*
X175218932Y-133841101D01*
X175352182Y-133591808D01*
X175434236Y-133321309D01*
X175461943Y-133040000D01*
X175434236Y-132758691D01*
X175352182Y-132488192D01*
X175218932Y-132238899D01*
X175039608Y-132020392D01*
X174821101Y-131841068D01*
X174688142Y-131770000D01*
X174821101Y-131698932D01*
X175039608Y-131519608D01*
X175218932Y-131301101D01*
X175352182Y-131051808D01*
X175398222Y-130900031D01*
X180208698Y-130900031D01*
X180226412Y-130992502D01*
X180342429Y-131265437D01*
X180509464Y-131510494D01*
X180721097Y-131718256D01*
X180969196Y-131880738D01*
X181244227Y-131991696D01*
X181535620Y-132046866D01*
X181773000Y-131890586D01*
X181773000Y-130667000D01*
X182027000Y-130667000D01*
X182027000Y-131890586D01*
X182264380Y-132046866D01*
X182555773Y-131991696D01*
X182830804Y-131880738D01*
X183078903Y-131718256D01*
X183290536Y-131510494D01*
X183457571Y-131265437D01*
X183573588Y-130992502D01*
X183591302Y-130900031D01*
X183470246Y-130667000D01*
X182027000Y-130667000D01*
X181773000Y-130667000D01*
X180329754Y-130667000D01*
X180208698Y-130900031D01*
X175398222Y-130900031D01*
X175434236Y-130781309D01*
X175461943Y-130500000D01*
X175434236Y-130218691D01*
X175352182Y-129948192D01*
X175218932Y-129698899D01*
X175039608Y-129480392D01*
X174833532Y-129311270D01*
X176764803Y-127379999D01*
X180161928Y-127379999D01*
X180161928Y-128620001D01*
X180178992Y-128793255D01*
X180229528Y-128959851D01*
X180311595Y-129113387D01*
X180422038Y-129247962D01*
X180556613Y-129358405D01*
X180665314Y-129416507D01*
X180509464Y-129569506D01*
X180342429Y-129814563D01*
X180226412Y-130087498D01*
X180208698Y-130179969D01*
X180329754Y-130413000D01*
X181773000Y-130413000D01*
X181773000Y-130393000D01*
X182027000Y-130393000D01*
X182027000Y-130413000D01*
X183470246Y-130413000D01*
X183591302Y-130179969D01*
X183573588Y-130087498D01*
X183457571Y-129814563D01*
X183290536Y-129569506D01*
X183134686Y-129416507D01*
X183243387Y-129358405D01*
X183265476Y-129340277D01*
X185640000Y-131714802D01*
X185640001Y-133781956D01*
X185485241Y-133885363D01*
X185285363Y-134085241D01*
X185128320Y-134320273D01*
X185020147Y-134581426D01*
X184965000Y-134858665D01*
X184965000Y-135141335D01*
X185020147Y-135418574D01*
X185128320Y-135679727D01*
X185285363Y-135914759D01*
X185485241Y-136114637D01*
X185720273Y-136271680D01*
X185981426Y-136379853D01*
X186258665Y-136435000D01*
X186541335Y-136435000D01*
X186818574Y-136379853D01*
X187079727Y-136271680D01*
X187314759Y-136114637D01*
X187514637Y-135914759D01*
X187671680Y-135679727D01*
X187779853Y-135418574D01*
X187835000Y-135141335D01*
X187835000Y-134858665D01*
X187779853Y-134581426D01*
X187671680Y-134320273D01*
X187514637Y-134085241D01*
X187314759Y-133885363D01*
X187160000Y-133781957D01*
X187160000Y-131437322D01*
X187163676Y-131399999D01*
X187160000Y-131362676D01*
X187160000Y-131362667D01*
X187149003Y-131251014D01*
X187105546Y-131107753D01*
X187034974Y-130975723D01*
X186963799Y-130888997D01*
X186940001Y-130859999D01*
X186911004Y-130836202D01*
X183638072Y-127563271D01*
X183638072Y-127379999D01*
X183621008Y-127206745D01*
X183570472Y-127040149D01*
X183488405Y-126886613D01*
X183377962Y-126752038D01*
X183243387Y-126641595D01*
X183089851Y-126559528D01*
X182923255Y-126508992D01*
X182750001Y-126491928D01*
X181049999Y-126491928D01*
X180876745Y-126508992D01*
X180710149Y-126559528D01*
X180556613Y-126641595D01*
X180422038Y-126752038D01*
X180311595Y-126886613D01*
X180229528Y-127040149D01*
X180178992Y-127206745D01*
X180161928Y-127379999D01*
X176764803Y-127379999D01*
X179291004Y-124853798D01*
X179320001Y-124830001D01*
X179373325Y-124765026D01*
X179414974Y-124714277D01*
X179485546Y-124582247D01*
X179485851Y-124581240D01*
X179529003Y-124438986D01*
X179540000Y-124327333D01*
X179540000Y-124327323D01*
X179543676Y-124290000D01*
X179540000Y-124252678D01*
X179540000Y-121300031D01*
X180108698Y-121300031D01*
X180126412Y-121392502D01*
X180242429Y-121665437D01*
X180409464Y-121910494D01*
X180621097Y-122118256D01*
X180869196Y-122280738D01*
X181144227Y-122391696D01*
X181435620Y-122446866D01*
X181673000Y-122290586D01*
X181673000Y-121067000D01*
X181927000Y-121067000D01*
X181927000Y-122290586D01*
X182164380Y-122446866D01*
X182455773Y-122391696D01*
X182730804Y-122280738D01*
X182978903Y-122118256D01*
X183190536Y-121910494D01*
X183357571Y-121665437D01*
X183473588Y-121392502D01*
X183491302Y-121300031D01*
X183370246Y-121067000D01*
X181927000Y-121067000D01*
X181673000Y-121067000D01*
X180229754Y-121067000D01*
X180108698Y-121300031D01*
X179540000Y-121300031D01*
X179540000Y-117779999D01*
X180061928Y-117779999D01*
X180061928Y-119020001D01*
X180078992Y-119193255D01*
X180129528Y-119359851D01*
X180211595Y-119513387D01*
X180322038Y-119647962D01*
X180456613Y-119758405D01*
X180565314Y-119816507D01*
X180409464Y-119969506D01*
X180242429Y-120214563D01*
X180126412Y-120487498D01*
X180108698Y-120579969D01*
X180229754Y-120813000D01*
X181673000Y-120813000D01*
X181673000Y-120793000D01*
X181927000Y-120793000D01*
X181927000Y-120813000D01*
X183370246Y-120813000D01*
X183491302Y-120579969D01*
X183473588Y-120487498D01*
X183357571Y-120214563D01*
X183190536Y-119969506D01*
X183034686Y-119816507D01*
X183143387Y-119758405D01*
X183277962Y-119647962D01*
X183388405Y-119513387D01*
X183470472Y-119359851D01*
X183521008Y-119193255D01*
X183538072Y-119020001D01*
X183538072Y-118736729D01*
X186931004Y-115343798D01*
X186960001Y-115320001D01*
X187054974Y-115204276D01*
X187125546Y-115072247D01*
X187169003Y-114928986D01*
X187180000Y-114817333D01*
X187180000Y-114817325D01*
X187183676Y-114780000D01*
X187180000Y-114742675D01*
X187180000Y-114504680D01*
X187314759Y-114414637D01*
X187514637Y-114214759D01*
X187671680Y-113979727D01*
X187779853Y-113718574D01*
X187835000Y-113441335D01*
X187835000Y-113158665D01*
X187779853Y-112881426D01*
X187671680Y-112620273D01*
X187514637Y-112385241D01*
X187314759Y-112185363D01*
X187079727Y-112028320D01*
X186818574Y-111920147D01*
X186541335Y-111865000D01*
X186258665Y-111865000D01*
X185981426Y-111920147D01*
X185720273Y-112028320D01*
X185485241Y-112185363D01*
X185285363Y-112385241D01*
X185128320Y-112620273D01*
X185020147Y-112881426D01*
X184965000Y-113158665D01*
X184965000Y-113441335D01*
X185020147Y-113718574D01*
X185128320Y-113979727D01*
X185285363Y-114214759D01*
X185485241Y-114414637D01*
X185620311Y-114504887D01*
X183104428Y-117020771D01*
X182989851Y-116959528D01*
X182823255Y-116908992D01*
X182650001Y-116891928D01*
X180949999Y-116891928D01*
X180776745Y-116908992D01*
X180610149Y-116959528D01*
X180456613Y-117041595D01*
X180322038Y-117152038D01*
X180211595Y-117286613D01*
X180129528Y-117440149D01*
X180078992Y-117606745D01*
X180061928Y-117779999D01*
X179540000Y-117779999D01*
X179540000Y-114518043D01*
X179694759Y-114414637D01*
X179894637Y-114214759D01*
X180051680Y-113979727D01*
X180159853Y-113718574D01*
X180215000Y-113441335D01*
X180215000Y-113158665D01*
X180159853Y-112881426D01*
X180051680Y-112620273D01*
X179894637Y-112385241D01*
X179694759Y-112185363D01*
X179459727Y-112028320D01*
X179198574Y-111920147D01*
X178921335Y-111865000D01*
X178638665Y-111865000D01*
X178361426Y-111920147D01*
X178100273Y-112028320D01*
X177865241Y-112185363D01*
X177665363Y-112385241D01*
X177508320Y-112620273D01*
X177400147Y-112881426D01*
X177345000Y-113158665D01*
X177345000Y-113441335D01*
X177400147Y-113718574D01*
X177508320Y-113979727D01*
X177665363Y-114214759D01*
X177865241Y-114414637D01*
X178020001Y-114518044D01*
X178020000Y-123975198D01*
X174825567Y-127169631D01*
X174879853Y-127038574D01*
X174935000Y-126761335D01*
X174935000Y-126478665D01*
X174879853Y-126201426D01*
X174771680Y-125940273D01*
X174614637Y-125705241D01*
X174414759Y-125505363D01*
X174179727Y-125348320D01*
X173918574Y-125240147D01*
X173641335Y-125185000D01*
X173358665Y-125185000D01*
X173081426Y-125240147D01*
X172820273Y-125348320D01*
X172585241Y-125505363D01*
X172385363Y-125705241D01*
X172228320Y-125940273D01*
X172120147Y-126201426D01*
X172065000Y-126478665D01*
X172065000Y-126761335D01*
X172101312Y-126943886D01*
X171583993Y-127461206D01*
X171554989Y-127485009D01*
X171514161Y-127534759D01*
X171460016Y-127600734D01*
X171434883Y-127647754D01*
X171389444Y-127732764D01*
X171345987Y-127876025D01*
X171334990Y-127987678D01*
X171334990Y-127987688D01*
X171331314Y-128025010D01*
X168285010Y-128025010D01*
X168285010Y-120682333D01*
X168288686Y-120645010D01*
X168285010Y-120607687D01*
X168285010Y-120607677D01*
X168274013Y-120496024D01*
X168230556Y-120352763D01*
X168159984Y-120220734D01*
X168065011Y-120105009D01*
X168036014Y-120081212D01*
X167398688Y-119443886D01*
X167435000Y-119261335D01*
X167435000Y-118978665D01*
X168565000Y-118978665D01*
X168565000Y-119261335D01*
X168620147Y-119538574D01*
X168728320Y-119799727D01*
X168885363Y-120034759D01*
X169085241Y-120234637D01*
X169320273Y-120391680D01*
X169581426Y-120499853D01*
X169858665Y-120555000D01*
X170141335Y-120555000D01*
X170418574Y-120499853D01*
X170679727Y-120391680D01*
X170914759Y-120234637D01*
X171114637Y-120034759D01*
X171271680Y-119799727D01*
X171379853Y-119538574D01*
X171435000Y-119261335D01*
X171435000Y-118978665D01*
X171411131Y-118858665D01*
X172065000Y-118858665D01*
X172065000Y-119141335D01*
X172120147Y-119418574D01*
X172228320Y-119679727D01*
X172385363Y-119914759D01*
X172585241Y-120114637D01*
X172820273Y-120271680D01*
X173081426Y-120379853D01*
X173358665Y-120435000D01*
X173641335Y-120435000D01*
X173918574Y-120379853D01*
X174179727Y-120271680D01*
X174414759Y-120114637D01*
X174614637Y-119914759D01*
X174771680Y-119679727D01*
X174879853Y-119418574D01*
X174935000Y-119141335D01*
X174935000Y-118858665D01*
X174879853Y-118581426D01*
X174771680Y-118320273D01*
X174614637Y-118085241D01*
X174414759Y-117885363D01*
X174179727Y-117728320D01*
X173918574Y-117620147D01*
X173641335Y-117565000D01*
X173358665Y-117565000D01*
X173081426Y-117620147D01*
X172820273Y-117728320D01*
X172585241Y-117885363D01*
X172385363Y-118085241D01*
X172228320Y-118320273D01*
X172120147Y-118581426D01*
X172065000Y-118858665D01*
X171411131Y-118858665D01*
X171379853Y-118701426D01*
X171271680Y-118440273D01*
X171114637Y-118205241D01*
X170914759Y-118005363D01*
X170679727Y-117848320D01*
X170418574Y-117740147D01*
X170141335Y-117685000D01*
X169858665Y-117685000D01*
X169581426Y-117740147D01*
X169320273Y-117848320D01*
X169085241Y-118005363D01*
X168885363Y-118205241D01*
X168728320Y-118440273D01*
X168620147Y-118701426D01*
X168565000Y-118978665D01*
X167435000Y-118978665D01*
X167379853Y-118701426D01*
X167271680Y-118440273D01*
X167114637Y-118205241D01*
X166914759Y-118005363D01*
X166679727Y-117848320D01*
X166418574Y-117740147D01*
X166141335Y-117685000D01*
X165858665Y-117685000D01*
X165581426Y-117740147D01*
X165320273Y-117848320D01*
X165085241Y-118005363D01*
X164885363Y-118205241D01*
X164728320Y-118440273D01*
X164620147Y-118701426D01*
X164565000Y-118978665D01*
X164565000Y-119261335D01*
X164620147Y-119538574D01*
X164728320Y-119799727D01*
X164885363Y-120034759D01*
X165085241Y-120234637D01*
X165320273Y-120391680D01*
X165581426Y-120499853D01*
X165858665Y-120555000D01*
X166141335Y-120555000D01*
X166323886Y-120518688D01*
X166765010Y-120959812D01*
X166765010Y-129061928D01*
X164800000Y-129061928D01*
X164675518Y-129074188D01*
X164555820Y-129110498D01*
X164445506Y-129169463D01*
X164348815Y-129248815D01*
X164269463Y-129345506D01*
X164210498Y-129455820D01*
X164174188Y-129575518D01*
X164161928Y-129700000D01*
X164161928Y-131300000D01*
X164174188Y-131424482D01*
X164210498Y-131544180D01*
X164269463Y-131654494D01*
X164348815Y-131751185D01*
X164445506Y-131830537D01*
X164555820Y-131889502D01*
X164675518Y-131925812D01*
X164693482Y-131927581D01*
X164580392Y-132020392D01*
X164401068Y-132238899D01*
X164267818Y-132488192D01*
X164185764Y-132758691D01*
X164158057Y-133040000D01*
X164185764Y-133321309D01*
X164267818Y-133591808D01*
X164401068Y-133841101D01*
X164580392Y-134059608D01*
X164798899Y-134238932D01*
X164931858Y-134310000D01*
X164798899Y-134381068D01*
X164580392Y-134560392D01*
X164401068Y-134778899D01*
X164379099Y-134820000D01*
X162337325Y-134820000D01*
X162300000Y-134816324D01*
X162262675Y-134820000D01*
X162262667Y-134820000D01*
X162151014Y-134830997D01*
X162007753Y-134874454D01*
X161875724Y-134945026D01*
X161759999Y-135039999D01*
X161736201Y-135068997D01*
X161323886Y-135481312D01*
X161141335Y-135445000D01*
X160858665Y-135445000D01*
X160581426Y-135500147D01*
X160320273Y-135608320D01*
X160085241Y-135765363D01*
X159885363Y-135965241D01*
X159781957Y-136120000D01*
X157637942Y-136120000D01*
X157637942Y-134492702D01*
X160186903Y-134492702D01*
X160258486Y-134736671D01*
X160513996Y-134857571D01*
X160788184Y-134926300D01*
X161070512Y-134940217D01*
X161350130Y-134898787D01*
X161616292Y-134803603D01*
X161741514Y-134736671D01*
X161813097Y-134492702D01*
X161000000Y-133679605D01*
X160186903Y-134492702D01*
X157637942Y-134492702D01*
X157637942Y-133570512D01*
X159559783Y-133570512D01*
X159601213Y-133850130D01*
X159696397Y-134116292D01*
X159763329Y-134241514D01*
X160007298Y-134313097D01*
X160820395Y-133500000D01*
X161179605Y-133500000D01*
X161992702Y-134313097D01*
X162236671Y-134241514D01*
X162357571Y-133986004D01*
X162426300Y-133711816D01*
X162440217Y-133429488D01*
X162398787Y-133149870D01*
X162303603Y-132883708D01*
X162236671Y-132758486D01*
X161992702Y-132686903D01*
X161179605Y-133500000D01*
X160820395Y-133500000D01*
X160007298Y-132686903D01*
X159763329Y-132758486D01*
X159642429Y-133013996D01*
X159573700Y-133288184D01*
X159559783Y-133570512D01*
X157637942Y-133570512D01*
X157637942Y-133500130D01*
X157625682Y-133375648D01*
X157589372Y-133255950D01*
X157530407Y-133145636D01*
X157451055Y-133048945D01*
X157354364Y-132969593D01*
X157244050Y-132910628D01*
X157124352Y-132874318D01*
X156999870Y-132862058D01*
X156840253Y-132862058D01*
X156860900Y-132848262D01*
X157158262Y-132550900D01*
X157391897Y-132201240D01*
X157552828Y-131812719D01*
X157634870Y-131400266D01*
X157634870Y-130979734D01*
X157610788Y-130858665D01*
X159565000Y-130858665D01*
X159565000Y-131141335D01*
X159620147Y-131418574D01*
X159728320Y-131679727D01*
X159885363Y-131914759D01*
X160085241Y-132114637D01*
X160285869Y-132248692D01*
X160258486Y-132263329D01*
X160186903Y-132507298D01*
X161000000Y-133320395D01*
X161813097Y-132507298D01*
X161741514Y-132263329D01*
X161712659Y-132249676D01*
X161914759Y-132114637D01*
X162114637Y-131914759D01*
X162271680Y-131679727D01*
X162379853Y-131418574D01*
X162435000Y-131141335D01*
X162435000Y-130858665D01*
X162379853Y-130581426D01*
X162271680Y-130320273D01*
X162114637Y-130085241D01*
X161914759Y-129885363D01*
X161679727Y-129728320D01*
X161418574Y-129620147D01*
X161141335Y-129565000D01*
X160858665Y-129565000D01*
X160581426Y-129620147D01*
X160320273Y-129728320D01*
X160085241Y-129885363D01*
X159885363Y-130085241D01*
X159728320Y-130320273D01*
X159620147Y-130581426D01*
X159565000Y-130858665D01*
X157610788Y-130858665D01*
X157552828Y-130567281D01*
X157391897Y-130178760D01*
X157158262Y-129829100D01*
X156860900Y-129531738D01*
X156511240Y-129298103D01*
X156479607Y-129285000D01*
X156511240Y-129271897D01*
X156860900Y-129038262D01*
X157158262Y-128740900D01*
X157391897Y-128391240D01*
X157552828Y-128002719D01*
X157634870Y-127590266D01*
X157634870Y-127169734D01*
X157552828Y-126757281D01*
X157391897Y-126368760D01*
X157158262Y-126019100D01*
X156860900Y-125721738D01*
X156511240Y-125488103D01*
X156479607Y-125475000D01*
X156511240Y-125461897D01*
X156860900Y-125228262D01*
X157158262Y-124930900D01*
X157391897Y-124581240D01*
X157552828Y-124192719D01*
X157634870Y-123780266D01*
X157634870Y-123359734D01*
X157577341Y-123070512D01*
X162059783Y-123070512D01*
X162101213Y-123350130D01*
X162196397Y-123616292D01*
X162261616Y-123738309D01*
X162248815Y-123748815D01*
X162169463Y-123845506D01*
X162110498Y-123955820D01*
X162074188Y-124075518D01*
X162061928Y-124200000D01*
X162061928Y-125800000D01*
X162074188Y-125924482D01*
X162110498Y-126044180D01*
X162169463Y-126154494D01*
X162248815Y-126251185D01*
X162345506Y-126330537D01*
X162455820Y-126389502D01*
X162575518Y-126425812D01*
X162700000Y-126438072D01*
X164300000Y-126438072D01*
X164424482Y-126425812D01*
X164544180Y-126389502D01*
X164654494Y-126330537D01*
X164751185Y-126251185D01*
X164830537Y-126154494D01*
X164889502Y-126044180D01*
X164925812Y-125924482D01*
X164938072Y-125800000D01*
X164938072Y-124200000D01*
X164925812Y-124075518D01*
X164889502Y-123955820D01*
X164830537Y-123845506D01*
X164751185Y-123748815D01*
X164738242Y-123738193D01*
X164857571Y-123486004D01*
X164926300Y-123211816D01*
X164940217Y-122929488D01*
X164898787Y-122649870D01*
X164803603Y-122383708D01*
X164736671Y-122258486D01*
X164492702Y-122186903D01*
X163679605Y-123000000D01*
X163693748Y-123014143D01*
X163514143Y-123193748D01*
X163500000Y-123179605D01*
X163485858Y-123193748D01*
X163306253Y-123014143D01*
X163320395Y-123000000D01*
X162507298Y-122186903D01*
X162263329Y-122258486D01*
X162142429Y-122513996D01*
X162073700Y-122788184D01*
X162059783Y-123070512D01*
X157577341Y-123070512D01*
X157552828Y-122947281D01*
X157391897Y-122558760D01*
X157158262Y-122209100D01*
X156956460Y-122007298D01*
X162686903Y-122007298D01*
X163500000Y-122820395D01*
X164313097Y-122007298D01*
X164241514Y-121763329D01*
X163986004Y-121642429D01*
X163711816Y-121573700D01*
X163429488Y-121559783D01*
X163149870Y-121601213D01*
X162883708Y-121696397D01*
X162758486Y-121763329D01*
X162686903Y-122007298D01*
X156956460Y-122007298D01*
X156860900Y-121911738D01*
X156511240Y-121678103D01*
X156122719Y-121517172D01*
X155710266Y-121435130D01*
X155289734Y-121435130D01*
X154877281Y-121517172D01*
X154626041Y-121621239D01*
X152813804Y-119809003D01*
X152790001Y-119779999D01*
X152674276Y-119685026D01*
X152542247Y-119614454D01*
X152398986Y-119570997D01*
X152287333Y-119560000D01*
X152287322Y-119560000D01*
X152250000Y-119556324D01*
X152212678Y-119560000D01*
X151958043Y-119560000D01*
X151854637Y-119405241D01*
X151654759Y-119205363D01*
X151422241Y-119050000D01*
X151654759Y-118894637D01*
X151854637Y-118694759D01*
X152011680Y-118459727D01*
X152119853Y-118198574D01*
X152175000Y-117921335D01*
X152175000Y-117879999D01*
X156261928Y-117879999D01*
X156261928Y-119120001D01*
X156278992Y-119293255D01*
X156329528Y-119459851D01*
X156411595Y-119613387D01*
X156522038Y-119747962D01*
X156656613Y-119858405D01*
X156810149Y-119940472D01*
X156976745Y-119991008D01*
X157149999Y-120008072D01*
X158850001Y-120008072D01*
X159023255Y-119991008D01*
X159189851Y-119940472D01*
X159343387Y-119858405D01*
X159477962Y-119747962D01*
X159588405Y-119613387D01*
X159670472Y-119459851D01*
X159721008Y-119293255D01*
X159738072Y-119120001D01*
X159738072Y-117879999D01*
X159721008Y-117706745D01*
X159670472Y-117540149D01*
X159588405Y-117386613D01*
X159477962Y-117252038D01*
X159343387Y-117141595D01*
X159234686Y-117083493D01*
X159390536Y-116930494D01*
X159557571Y-116685437D01*
X159673588Y-116412502D01*
X159691302Y-116320031D01*
X159570246Y-116087000D01*
X158127000Y-116087000D01*
X158127000Y-116107000D01*
X157873000Y-116107000D01*
X157873000Y-116087000D01*
X156429754Y-116087000D01*
X156308698Y-116320031D01*
X156326412Y-116412502D01*
X156442429Y-116685437D01*
X156609464Y-116930494D01*
X156765314Y-117083493D01*
X156656613Y-117141595D01*
X156522038Y-117252038D01*
X156411595Y-117386613D01*
X156329528Y-117540149D01*
X156278992Y-117706745D01*
X156261928Y-117879999D01*
X152175000Y-117879999D01*
X152175000Y-117638665D01*
X152119853Y-117361426D01*
X152011680Y-117100273D01*
X151854637Y-116865241D01*
X151654759Y-116665363D01*
X151422241Y-116510000D01*
X151654759Y-116354637D01*
X151854637Y-116154759D01*
X152011680Y-115919727D01*
X152119853Y-115658574D01*
X152131510Y-115599969D01*
X156308698Y-115599969D01*
X156429754Y-115833000D01*
X157873000Y-115833000D01*
X157873000Y-114609414D01*
X158127000Y-114609414D01*
X158127000Y-115833000D01*
X159570246Y-115833000D01*
X159691302Y-115599969D01*
X159673588Y-115507498D01*
X159557571Y-115234563D01*
X159390536Y-114989506D01*
X159178903Y-114781744D01*
X158930804Y-114619262D01*
X158655773Y-114508304D01*
X158364380Y-114453134D01*
X158127000Y-114609414D01*
X157873000Y-114609414D01*
X157635620Y-114453134D01*
X157344227Y-114508304D01*
X157069196Y-114619262D01*
X156821097Y-114781744D01*
X156609464Y-114989506D01*
X156442429Y-115234563D01*
X156326412Y-115507498D01*
X156308698Y-115599969D01*
X152131510Y-115599969D01*
X152175000Y-115381335D01*
X152175000Y-115098665D01*
X152119853Y-114821426D01*
X152011680Y-114560273D01*
X151854637Y-114325241D01*
X151654759Y-114125363D01*
X151422241Y-113970000D01*
X151654759Y-113814637D01*
X151854637Y-113614759D01*
X152011680Y-113379727D01*
X152119853Y-113118574D01*
X152175000Y-112841335D01*
X152175000Y-112558665D01*
X152119853Y-112281426D01*
X152011680Y-112020273D01*
X151854637Y-111785241D01*
X151654759Y-111585363D01*
X151422241Y-111430000D01*
X151654759Y-111274637D01*
X151854637Y-111074759D01*
X152011680Y-110839727D01*
X152119853Y-110578574D01*
X152159352Y-110379999D01*
X156261928Y-110379999D01*
X156261928Y-111620001D01*
X156278992Y-111793255D01*
X156329528Y-111959851D01*
X156411595Y-112113387D01*
X156522038Y-112247962D01*
X156656613Y-112358405D01*
X156810149Y-112440472D01*
X156976745Y-112491008D01*
X157149999Y-112508072D01*
X158850001Y-112508072D01*
X159023255Y-112491008D01*
X159189851Y-112440472D01*
X159343387Y-112358405D01*
X159477962Y-112247962D01*
X159588405Y-112113387D01*
X159670472Y-111959851D01*
X159721008Y-111793255D01*
X159738072Y-111620001D01*
X159738072Y-111358665D01*
X164565000Y-111358665D01*
X164565000Y-111641335D01*
X164620147Y-111918574D01*
X164728320Y-112179727D01*
X164885363Y-112414759D01*
X165085241Y-112614637D01*
X165320273Y-112771680D01*
X165581426Y-112879853D01*
X165858665Y-112935000D01*
X166141335Y-112935000D01*
X166418574Y-112879853D01*
X166679727Y-112771680D01*
X166914759Y-112614637D01*
X167114637Y-112414759D01*
X167271680Y-112179727D01*
X167379853Y-111918574D01*
X167435000Y-111641335D01*
X167435000Y-111358665D01*
X167379853Y-111081426D01*
X167271680Y-110820273D01*
X167114637Y-110585241D01*
X166914759Y-110385363D01*
X166760000Y-110281957D01*
X166760000Y-109653889D01*
X166798815Y-109701185D01*
X166895506Y-109780537D01*
X167005820Y-109839502D01*
X167125518Y-109875812D01*
X167250000Y-109888072D01*
X167714250Y-109885000D01*
X167873000Y-109726250D01*
X167873000Y-108627000D01*
X167853000Y-108627000D01*
X167853000Y-108373000D01*
X167873000Y-108373000D01*
X167873000Y-108353000D01*
X168127000Y-108353000D01*
X168127000Y-108373000D01*
X168147000Y-108373000D01*
X168147000Y-108627000D01*
X168127000Y-108627000D01*
X168127000Y-109726250D01*
X168285750Y-109885000D01*
X168750000Y-109888072D01*
X168874482Y-109875812D01*
X168994180Y-109839502D01*
X169104494Y-109780537D01*
X169201185Y-109701185D01*
X169240001Y-109653888D01*
X169240001Y-110281956D01*
X169085241Y-110385363D01*
X168885363Y-110585241D01*
X168728320Y-110820273D01*
X168620147Y-111081426D01*
X168565000Y-111358665D01*
X168565000Y-111641335D01*
X168620147Y-111918574D01*
X168728320Y-112179727D01*
X168885363Y-112414759D01*
X169085241Y-112614637D01*
X169320273Y-112771680D01*
X169581426Y-112879853D01*
X169858665Y-112935000D01*
X170141335Y-112935000D01*
X170418574Y-112879853D01*
X170679727Y-112771680D01*
X170914759Y-112614637D01*
X171114637Y-112414759D01*
X171271680Y-112179727D01*
X171379853Y-111918574D01*
X171435000Y-111641335D01*
X171435000Y-111358665D01*
X171379853Y-111081426D01*
X171271680Y-110820273D01*
X171114637Y-110585241D01*
X170914759Y-110385363D01*
X170760000Y-110281957D01*
X170760000Y-105457322D01*
X170763676Y-105419999D01*
X170760000Y-105382676D01*
X170760000Y-105382667D01*
X170749003Y-105271014D01*
X170705546Y-105127753D01*
X170634974Y-104995723D01*
X170563799Y-104908997D01*
X170540001Y-104879999D01*
X170511004Y-104856202D01*
X169356167Y-103701365D01*
X169385000Y-103556411D01*
X169385000Y-103283589D01*
X169356167Y-103138635D01*
X169511003Y-102983799D01*
X169540001Y-102960001D01*
X169634974Y-102844276D01*
X169705546Y-102712247D01*
X169749003Y-102568986D01*
X169760000Y-102457333D01*
X169763677Y-102420000D01*
X169760000Y-102382667D01*
X169760000Y-99124283D01*
X169793255Y-99121008D01*
X169959851Y-99070472D01*
X170113387Y-98988405D01*
X170247962Y-98877962D01*
X170358405Y-98743387D01*
X170440472Y-98589851D01*
X170491008Y-98423255D01*
X170508072Y-98250001D01*
X170508072Y-97279872D01*
X181765000Y-97279872D01*
X181765000Y-97720128D01*
X181850890Y-98151925D01*
X182019369Y-98558669D01*
X182263962Y-98924729D01*
X182575271Y-99236038D01*
X182941331Y-99480631D01*
X183348075Y-99649110D01*
X183779872Y-99735000D01*
X184220128Y-99735000D01*
X184651925Y-99649110D01*
X185058669Y-99480631D01*
X185424729Y-99236038D01*
X185736038Y-98924729D01*
X185980631Y-98558669D01*
X186149110Y-98151925D01*
X186235000Y-97720128D01*
X186235000Y-97279872D01*
X186149110Y-96848075D01*
X185980631Y-96441331D01*
X185736038Y-96075271D01*
X185424729Y-95763962D01*
X185058669Y-95519369D01*
X184651925Y-95350890D01*
X184220128Y-95265000D01*
X183779872Y-95265000D01*
X183348075Y-95350890D01*
X182941331Y-95519369D01*
X182575271Y-95763962D01*
X182263962Y-96075271D01*
X182019369Y-96441331D01*
X181850890Y-96848075D01*
X181765000Y-97279872D01*
X170508072Y-97279872D01*
X170508072Y-96549999D01*
X170491008Y-96376745D01*
X170440472Y-96210149D01*
X170358405Y-96056613D01*
X170247962Y-95922038D01*
X170113387Y-95811595D01*
X169959851Y-95729528D01*
X169793255Y-95678992D01*
X169620001Y-95661928D01*
X168379999Y-95661928D01*
X168206745Y-95678992D01*
X168040149Y-95729528D01*
X167886613Y-95811595D01*
X167752038Y-95922038D01*
X167641595Y-96056613D01*
X167583493Y-96165314D01*
X167430494Y-96009464D01*
X167185437Y-95842429D01*
X166912502Y-95726412D01*
X166820031Y-95708698D01*
X166587000Y-95829754D01*
X166587000Y-97273000D01*
X166607000Y-97273000D01*
X166607000Y-97527000D01*
X166587000Y-97527000D01*
X166587000Y-98970246D01*
X166820031Y-99091302D01*
X166912502Y-99073588D01*
X167185437Y-98957571D01*
X167430494Y-98790536D01*
X167583493Y-98634686D01*
X167641595Y-98743387D01*
X167752038Y-98877962D01*
X167886613Y-98988405D01*
X168040149Y-99070472D01*
X168206745Y-99121008D01*
X168240000Y-99124283D01*
X168240001Y-102055605D01*
X168136411Y-102035000D01*
X167863589Y-102035000D01*
X167596011Y-102088225D01*
X167343957Y-102192629D01*
X167117114Y-102344201D01*
X166924201Y-102537114D01*
X166772629Y-102763957D01*
X166668225Y-103016011D01*
X166615000Y-103283589D01*
X166615000Y-103556411D01*
X166668225Y-103823989D01*
X166772629Y-104076043D01*
X166924201Y-104302886D01*
X167117114Y-104495799D01*
X167343957Y-104647371D01*
X167446873Y-104690000D01*
X167343957Y-104732629D01*
X167117114Y-104884201D01*
X166924201Y-105077114D01*
X166772629Y-105303957D01*
X166668225Y-105556011D01*
X166615000Y-105823589D01*
X166615000Y-106096411D01*
X166643833Y-106241365D01*
X165489003Y-107396196D01*
X165459999Y-107419999D01*
X165411854Y-107478665D01*
X165365026Y-107535724D01*
X165317030Y-107625518D01*
X165294454Y-107667754D01*
X165250997Y-107811015D01*
X165240000Y-107922668D01*
X165240000Y-107922678D01*
X165236324Y-107960000D01*
X165240000Y-107997323D01*
X165240001Y-110281956D01*
X165085241Y-110385363D01*
X164885363Y-110585241D01*
X164728320Y-110820273D01*
X164620147Y-111081426D01*
X164565000Y-111358665D01*
X159738072Y-111358665D01*
X159738072Y-110379999D01*
X159721008Y-110206745D01*
X159670472Y-110040149D01*
X159588405Y-109886613D01*
X159477962Y-109752038D01*
X159343387Y-109641595D01*
X159234686Y-109583493D01*
X159390536Y-109430494D01*
X159557571Y-109185437D01*
X159673588Y-108912502D01*
X159691302Y-108820031D01*
X159570246Y-108587000D01*
X158127000Y-108587000D01*
X158127000Y-108607000D01*
X157873000Y-108607000D01*
X157873000Y-108587000D01*
X156429754Y-108587000D01*
X156308698Y-108820031D01*
X156326412Y-108912502D01*
X156442429Y-109185437D01*
X156609464Y-109430494D01*
X156765314Y-109583493D01*
X156656613Y-109641595D01*
X156522038Y-109752038D01*
X156411595Y-109886613D01*
X156329528Y-110040149D01*
X156278992Y-110206745D01*
X156261928Y-110379999D01*
X152159352Y-110379999D01*
X152175000Y-110301335D01*
X152175000Y-110018665D01*
X152119853Y-109741426D01*
X152011680Y-109480273D01*
X151854637Y-109245241D01*
X151654759Y-109045363D01*
X151422241Y-108890000D01*
X151654759Y-108734637D01*
X151854637Y-108534759D01*
X152011680Y-108299727D01*
X152094422Y-108099969D01*
X156308698Y-108099969D01*
X156429754Y-108333000D01*
X157873000Y-108333000D01*
X157873000Y-107109414D01*
X158127000Y-107109414D01*
X158127000Y-108333000D01*
X159570246Y-108333000D01*
X159691302Y-108099969D01*
X159673588Y-108007498D01*
X159557571Y-107734563D01*
X159390536Y-107489506D01*
X159178903Y-107281744D01*
X158930804Y-107119262D01*
X158655773Y-107008304D01*
X158364380Y-106953134D01*
X158127000Y-107109414D01*
X157873000Y-107109414D01*
X157635620Y-106953134D01*
X157344227Y-107008304D01*
X157069196Y-107119262D01*
X156821097Y-107281744D01*
X156609464Y-107489506D01*
X156442429Y-107734563D01*
X156326412Y-108007498D01*
X156308698Y-108099969D01*
X152094422Y-108099969D01*
X152119853Y-108038574D01*
X152175000Y-107761335D01*
X152175000Y-107478665D01*
X152119853Y-107201426D01*
X152011680Y-106940273D01*
X151854637Y-106705241D01*
X151654759Y-106505363D01*
X151422241Y-106350000D01*
X151654759Y-106194637D01*
X151854637Y-105994759D01*
X152011680Y-105759727D01*
X152119853Y-105498574D01*
X152175000Y-105221335D01*
X152175000Y-104938665D01*
X152119853Y-104661426D01*
X152011680Y-104400273D01*
X151854637Y-104165241D01*
X151654759Y-103965363D01*
X151419727Y-103808320D01*
X151409135Y-103803933D01*
X151595131Y-103692385D01*
X151803519Y-103503414D01*
X151971037Y-103277420D01*
X152091246Y-103023087D01*
X152131904Y-102889039D01*
X152009915Y-102667000D01*
X150867000Y-102667000D01*
X150867000Y-102687000D01*
X150613000Y-102687000D01*
X150613000Y-102667000D01*
X149470085Y-102667000D01*
X149348096Y-102889039D01*
X149388754Y-103023087D01*
X149508963Y-103277420D01*
X149676481Y-103503414D01*
X149884869Y-103692385D01*
X150070865Y-103803933D01*
X150060273Y-103808320D01*
X149825241Y-103965363D01*
X149625363Y-104165241D01*
X149468320Y-104400273D01*
X149360147Y-104661426D01*
X149305000Y-104938665D01*
X149305000Y-105221335D01*
X149360147Y-105498574D01*
X149468320Y-105759727D01*
X149625363Y-105994759D01*
X149825241Y-106194637D01*
X150057759Y-106350000D01*
X149825241Y-106505363D01*
X149625363Y-106705241D01*
X149468320Y-106940273D01*
X149360147Y-107201426D01*
X149305000Y-107478665D01*
X149305000Y-107761335D01*
X149360147Y-108038574D01*
X149468320Y-108299727D01*
X149625363Y-108534759D01*
X149825241Y-108734637D01*
X150057759Y-108890000D01*
X149825241Y-109045363D01*
X149625363Y-109245241D01*
X149468320Y-109480273D01*
X149360147Y-109741426D01*
X149305000Y-110018665D01*
X149305000Y-110301335D01*
X149360147Y-110578574D01*
X149468320Y-110839727D01*
X149625363Y-111074759D01*
X149825241Y-111274637D01*
X150057759Y-111430000D01*
X149825241Y-111585363D01*
X149625363Y-111785241D01*
X149468320Y-112020273D01*
X149360147Y-112281426D01*
X149305000Y-112558665D01*
X149305000Y-112841335D01*
X149360147Y-113118574D01*
X149468320Y-113379727D01*
X149625363Y-113614759D01*
X149825241Y-113814637D01*
X150057759Y-113970000D01*
X149825241Y-114125363D01*
X149625363Y-114325241D01*
X149468320Y-114560273D01*
X149360147Y-114821426D01*
X149305000Y-115098665D01*
X149305000Y-115381335D01*
X149360147Y-115658574D01*
X149468320Y-115919727D01*
X149625363Y-116154759D01*
X149825241Y-116354637D01*
X150057759Y-116510000D01*
X149825241Y-116665363D01*
X149625363Y-116865241D01*
X149468320Y-117100273D01*
X149360147Y-117361426D01*
X149305000Y-117638665D01*
X149305000Y-117921335D01*
X149360147Y-118198574D01*
X149468320Y-118459727D01*
X149625363Y-118694759D01*
X149825241Y-118894637D01*
X150057759Y-119050000D01*
X149825241Y-119205363D01*
X149625363Y-119405241D01*
X149468320Y-119640273D01*
X149360147Y-119901426D01*
X149305000Y-120178665D01*
X149305000Y-120461335D01*
X149360147Y-120738574D01*
X149468320Y-120999727D01*
X149625363Y-121234759D01*
X149825241Y-121434637D01*
X150057759Y-121590000D01*
X149825241Y-121745363D01*
X149625363Y-121945241D01*
X149468320Y-122180273D01*
X149360147Y-122441426D01*
X149305000Y-122718665D01*
X149305000Y-123001335D01*
X149360147Y-123278574D01*
X149468320Y-123539727D01*
X149625363Y-123774759D01*
X149825241Y-123974637D01*
X150057759Y-124130000D01*
X149825241Y-124285363D01*
X149625363Y-124485241D01*
X149468320Y-124720273D01*
X149360147Y-124981426D01*
X149305000Y-125258665D01*
X149305000Y-125541335D01*
X149360147Y-125818574D01*
X149468320Y-126079727D01*
X149625363Y-126314759D01*
X149825241Y-126514637D01*
X150057759Y-126670000D01*
X149825241Y-126825363D01*
X149625363Y-127025241D01*
X149468320Y-127260273D01*
X149360147Y-127521426D01*
X149305000Y-127798665D01*
X149305000Y-128081335D01*
X149360147Y-128358574D01*
X149468320Y-128619727D01*
X149625363Y-128854759D01*
X149825241Y-129054637D01*
X150057759Y-129210000D01*
X149825241Y-129365363D01*
X149625363Y-129565241D01*
X149468320Y-129800273D01*
X149360147Y-130061426D01*
X149305000Y-130338665D01*
X149305000Y-130621335D01*
X149360147Y-130898574D01*
X149468320Y-131159727D01*
X149625363Y-131394759D01*
X149825241Y-131594637D01*
X150057759Y-131750000D01*
X149825241Y-131905363D01*
X149625363Y-132105241D01*
X149468320Y-132340273D01*
X149360147Y-132601426D01*
X149305000Y-132878665D01*
X149305000Y-133161335D01*
X149349491Y-133385001D01*
X148596213Y-133385001D01*
X147700214Y-132489002D01*
X147676411Y-132459999D01*
X147560686Y-132365026D01*
X147428657Y-132294454D01*
X147285396Y-132250997D01*
X147173743Y-132240000D01*
X147173732Y-132240000D01*
X147136410Y-132236324D01*
X147099088Y-132240000D01*
X139466172Y-132240000D01*
X137195174Y-129969003D01*
X137171371Y-129939999D01*
X137055646Y-129845026D01*
X136923617Y-129774454D01*
X136780356Y-129730997D01*
X136721519Y-129725202D01*
X136614637Y-129565241D01*
X136414759Y-129365363D01*
X136182241Y-129210000D01*
X136414759Y-129054637D01*
X136614637Y-128854759D01*
X136771680Y-128619727D01*
X136879853Y-128358574D01*
X136935000Y-128081335D01*
X136935000Y-127798665D01*
X136879853Y-127521426D01*
X136771680Y-127260273D01*
X136614637Y-127025241D01*
X136414759Y-126825363D01*
X136182241Y-126670000D01*
X136414759Y-126514637D01*
X136614637Y-126314759D01*
X136771680Y-126079727D01*
X136879853Y-125818574D01*
X136935000Y-125541335D01*
X136935000Y-125258665D01*
X136879853Y-124981426D01*
X136771680Y-124720273D01*
X136614637Y-124485241D01*
X136414759Y-124285363D01*
X136182241Y-124130000D01*
X136414759Y-123974637D01*
X136614637Y-123774759D01*
X136771680Y-123539727D01*
X136879853Y-123278574D01*
X136935000Y-123001335D01*
X136935000Y-122718665D01*
X136879853Y-122441426D01*
X136771680Y-122180273D01*
X136614637Y-121945241D01*
X136414759Y-121745363D01*
X136182241Y-121590000D01*
X136414759Y-121434637D01*
X136614637Y-121234759D01*
X136771680Y-120999727D01*
X136879853Y-120738574D01*
X136935000Y-120461335D01*
X136935000Y-120178665D01*
X136879853Y-119901426D01*
X136771680Y-119640273D01*
X136614637Y-119405241D01*
X136414759Y-119205363D01*
X136182241Y-119050000D01*
X136414759Y-118894637D01*
X136614637Y-118694759D01*
X136771680Y-118459727D01*
X136879853Y-118198574D01*
X136935000Y-117921335D01*
X136935000Y-117638665D01*
X136879853Y-117361426D01*
X136771680Y-117100273D01*
X136614637Y-116865241D01*
X136414759Y-116665363D01*
X136182241Y-116510000D01*
X136414759Y-116354637D01*
X136614637Y-116154759D01*
X136771680Y-115919727D01*
X136879853Y-115658574D01*
X136935000Y-115381335D01*
X136935000Y-115098665D01*
X136879853Y-114821426D01*
X136771680Y-114560273D01*
X136614637Y-114325241D01*
X136414759Y-114125363D01*
X136182241Y-113970000D01*
X136414759Y-113814637D01*
X136614637Y-113614759D01*
X136771680Y-113379727D01*
X136879853Y-113118574D01*
X136935000Y-112841335D01*
X136935000Y-112558665D01*
X136879853Y-112281426D01*
X136771680Y-112020273D01*
X136614637Y-111785241D01*
X136414759Y-111585363D01*
X136182241Y-111430000D01*
X136414759Y-111274637D01*
X136614637Y-111074759D01*
X136771680Y-110839727D01*
X136879853Y-110578574D01*
X136935000Y-110301335D01*
X136935000Y-110018665D01*
X136879853Y-109741426D01*
X136771680Y-109480273D01*
X136614637Y-109245241D01*
X136414759Y-109045363D01*
X136179727Y-108888320D01*
X136169135Y-108883933D01*
X136355131Y-108772385D01*
X136563519Y-108583414D01*
X136731037Y-108357420D01*
X136851246Y-108103087D01*
X136891904Y-107969039D01*
X136769915Y-107747000D01*
X135627000Y-107747000D01*
X135627000Y-107767000D01*
X135373000Y-107767000D01*
X135373000Y-107747000D01*
X134230085Y-107747000D01*
X134205872Y-107791071D01*
X132637942Y-106223141D01*
X132637942Y-104000130D01*
X132625682Y-103875648D01*
X132589372Y-103755950D01*
X132530407Y-103645636D01*
X132451055Y-103548945D01*
X132354364Y-103469593D01*
X132244050Y-103410628D01*
X132124352Y-103374318D01*
X131999870Y-103362058D01*
X129000130Y-103362058D01*
X128875648Y-103374318D01*
X128755950Y-103410628D01*
X128645636Y-103469593D01*
X128548945Y-103548945D01*
X128469593Y-103645636D01*
X128410628Y-103755950D01*
X128374318Y-103875648D01*
X128362058Y-104000130D01*
X125660000Y-104000130D01*
X125660000Y-97279872D01*
X127265000Y-97279872D01*
X127265000Y-97720128D01*
X127350890Y-98151925D01*
X127519369Y-98558669D01*
X127763962Y-98924729D01*
X128075271Y-99236038D01*
X128441331Y-99480631D01*
X128848075Y-99649110D01*
X129279872Y-99735000D01*
X129720128Y-99735000D01*
X130151925Y-99649110D01*
X130558669Y-99480631D01*
X130924729Y-99236038D01*
X130960767Y-99200000D01*
X134061928Y-99200000D01*
X134061928Y-100800000D01*
X134074188Y-100924482D01*
X134110498Y-101044180D01*
X134169463Y-101154494D01*
X134248815Y-101251185D01*
X134345506Y-101330537D01*
X134455820Y-101389502D01*
X134575518Y-101425812D01*
X134583961Y-101426643D01*
X134385363Y-101625241D01*
X134228320Y-101860273D01*
X134120147Y-102121426D01*
X134065000Y-102398665D01*
X134065000Y-102681335D01*
X134120147Y-102958574D01*
X134228320Y-103219727D01*
X134385363Y-103454759D01*
X134585241Y-103654637D01*
X134817759Y-103810000D01*
X134585241Y-103965363D01*
X134385363Y-104165241D01*
X134228320Y-104400273D01*
X134120147Y-104661426D01*
X134065000Y-104938665D01*
X134065000Y-105221335D01*
X134120147Y-105498574D01*
X134228320Y-105759727D01*
X134385363Y-105994759D01*
X134585241Y-106194637D01*
X134820273Y-106351680D01*
X134830865Y-106356067D01*
X134644869Y-106467615D01*
X134436481Y-106656586D01*
X134268963Y-106882580D01*
X134148754Y-107136913D01*
X134108096Y-107270961D01*
X134230085Y-107493000D01*
X135373000Y-107493000D01*
X135373000Y-107473000D01*
X135627000Y-107473000D01*
X135627000Y-107493000D01*
X136769915Y-107493000D01*
X136891904Y-107270961D01*
X136851246Y-107136913D01*
X136731037Y-106882580D01*
X136563519Y-106656586D01*
X136355131Y-106467615D01*
X136169135Y-106356067D01*
X136179727Y-106351680D01*
X136414759Y-106194637D01*
X136614637Y-105994759D01*
X136771680Y-105759727D01*
X136879853Y-105498574D01*
X136935000Y-105221335D01*
X136935000Y-104938665D01*
X136879853Y-104661426D01*
X136771680Y-104400273D01*
X136614637Y-104165241D01*
X136414759Y-103965363D01*
X136182241Y-103810000D01*
X136414759Y-103654637D01*
X136614637Y-103454759D01*
X136771680Y-103219727D01*
X136879853Y-102958574D01*
X136935000Y-102681335D01*
X136935000Y-102398665D01*
X136879853Y-102121426D01*
X136771680Y-101860273D01*
X136614637Y-101625241D01*
X136416039Y-101426643D01*
X136424482Y-101425812D01*
X136544180Y-101389502D01*
X136654494Y-101330537D01*
X136751185Y-101251185D01*
X136830537Y-101154494D01*
X136889502Y-101044180D01*
X136925812Y-100924482D01*
X136938072Y-100800000D01*
X136938072Y-99858665D01*
X149305000Y-99858665D01*
X149305000Y-100141335D01*
X149360147Y-100418574D01*
X149468320Y-100679727D01*
X149625363Y-100914759D01*
X149825241Y-101114637D01*
X150060273Y-101271680D01*
X150070865Y-101276067D01*
X149884869Y-101387615D01*
X149676481Y-101576586D01*
X149508963Y-101802580D01*
X149388754Y-102056913D01*
X149348096Y-102190961D01*
X149470085Y-102413000D01*
X150613000Y-102413000D01*
X150613000Y-102393000D01*
X150867000Y-102393000D01*
X150867000Y-102413000D01*
X152009915Y-102413000D01*
X152131904Y-102190961D01*
X152091246Y-102056913D01*
X151971037Y-101802580D01*
X151803519Y-101576586D01*
X151595131Y-101387615D01*
X151409135Y-101276067D01*
X151419727Y-101271680D01*
X151654759Y-101114637D01*
X151854637Y-100914759D01*
X152011680Y-100679727D01*
X152086125Y-100500000D01*
X155661928Y-100500000D01*
X155661928Y-102100000D01*
X155674188Y-102224482D01*
X155710498Y-102344180D01*
X155769463Y-102454494D01*
X155848815Y-102551185D01*
X155945506Y-102630537D01*
X156055820Y-102689502D01*
X156175518Y-102725812D01*
X156300000Y-102738072D01*
X157900000Y-102738072D01*
X158024482Y-102725812D01*
X158144180Y-102689502D01*
X158254494Y-102630537D01*
X158351185Y-102551185D01*
X158361807Y-102538242D01*
X158613996Y-102657571D01*
X158888184Y-102726300D01*
X159170512Y-102740217D01*
X159450130Y-102698787D01*
X159716292Y-102603603D01*
X159841514Y-102536671D01*
X159913097Y-102292702D01*
X159100000Y-101479605D01*
X159085858Y-101493748D01*
X158906253Y-101314143D01*
X158920395Y-101300000D01*
X159279605Y-101300000D01*
X160092702Y-102113097D01*
X160336671Y-102041514D01*
X160457571Y-101786004D01*
X160526300Y-101511816D01*
X160540217Y-101229488D01*
X160498787Y-100949870D01*
X160403603Y-100683708D01*
X160336671Y-100558486D01*
X160092702Y-100486903D01*
X159279605Y-101300000D01*
X158920395Y-101300000D01*
X158906253Y-101285858D01*
X159085858Y-101106253D01*
X159100000Y-101120395D01*
X159913097Y-100307298D01*
X159841514Y-100063329D01*
X159586004Y-99942429D01*
X159311816Y-99873700D01*
X159029488Y-99859783D01*
X158749870Y-99901213D01*
X158483708Y-99996397D01*
X158361691Y-100061616D01*
X158351185Y-100048815D01*
X158254494Y-99969463D01*
X158144180Y-99910498D01*
X158024482Y-99874188D01*
X157900000Y-99861928D01*
X156300000Y-99861928D01*
X156175518Y-99874188D01*
X156055820Y-99910498D01*
X155945506Y-99969463D01*
X155848815Y-100048815D01*
X155769463Y-100145506D01*
X155710498Y-100255820D01*
X155674188Y-100375518D01*
X155661928Y-100500000D01*
X152086125Y-100500000D01*
X152119853Y-100418574D01*
X152175000Y-100141335D01*
X152175000Y-99858665D01*
X152119853Y-99581426D01*
X152011680Y-99320273D01*
X151854637Y-99085241D01*
X151654759Y-98885363D01*
X151419727Y-98728320D01*
X151158574Y-98620147D01*
X150881335Y-98565000D01*
X150598665Y-98565000D01*
X150321426Y-98620147D01*
X150060273Y-98728320D01*
X149825241Y-98885363D01*
X149625363Y-99085241D01*
X149468320Y-99320273D01*
X149360147Y-99581426D01*
X149305000Y-99858665D01*
X136938072Y-99858665D01*
X136938072Y-99200000D01*
X136925812Y-99075518D01*
X136889502Y-98955820D01*
X136830537Y-98845506D01*
X136751185Y-98748815D01*
X136654494Y-98669463D01*
X136544180Y-98610498D01*
X136424482Y-98574188D01*
X136300000Y-98561928D01*
X134700000Y-98561928D01*
X134575518Y-98574188D01*
X134455820Y-98610498D01*
X134345506Y-98669463D01*
X134248815Y-98748815D01*
X134169463Y-98845506D01*
X134110498Y-98955820D01*
X134074188Y-99075518D01*
X134061928Y-99200000D01*
X130960767Y-99200000D01*
X131236038Y-98924729D01*
X131480631Y-98558669D01*
X131649110Y-98151925D01*
X131726197Y-97764380D01*
X164953134Y-97764380D01*
X165008304Y-98055773D01*
X165119262Y-98330804D01*
X165281744Y-98578903D01*
X165489506Y-98790536D01*
X165734563Y-98957571D01*
X166007498Y-99073588D01*
X166099969Y-99091302D01*
X166333000Y-98970246D01*
X166333000Y-97527000D01*
X165109414Y-97527000D01*
X164953134Y-97764380D01*
X131726197Y-97764380D01*
X131735000Y-97720128D01*
X131735000Y-97279872D01*
X131686416Y-97035620D01*
X164953134Y-97035620D01*
X165109414Y-97273000D01*
X166333000Y-97273000D01*
X166333000Y-95829754D01*
X166099969Y-95708698D01*
X166007498Y-95726412D01*
X165734563Y-95842429D01*
X165489506Y-96009464D01*
X165281744Y-96221097D01*
X165119262Y-96469196D01*
X165008304Y-96744227D01*
X164953134Y-97035620D01*
X131686416Y-97035620D01*
X131649110Y-96848075D01*
X131480631Y-96441331D01*
X131236038Y-96075271D01*
X130924729Y-95763962D01*
X130558669Y-95519369D01*
X130151925Y-95350890D01*
X129720128Y-95265000D01*
X129279872Y-95265000D01*
X128848075Y-95350890D01*
X128441331Y-95519369D01*
X128075271Y-95763962D01*
X127763962Y-96075271D01*
X127519369Y-96441331D01*
X127350890Y-96848075D01*
X127265000Y-97279872D01*
X125660000Y-97279872D01*
X125660000Y-93660000D01*
X188340000Y-93660000D01*
X188340001Y-147840000D01*
M02*
