M48
; DRILL file {KiCad 5.1.5-52549c5~84~ubuntu18.04.1} date Sun 03 May 2020 09:02:47 PM EDT
; FORMAT={-:-/ absolute / inch / decimal}
; #@! TF.CreationDate,2020-05-03T21:02:47-04:00
; #@! TF.GenerationSoftware,Kicad,Pcbnew,5.1.5-52549c5~84~ubuntu18.04.1
; #@! TF.FileFunction,Plated,1,2,PTH
FMAT,2
INCH
T1C0.0315
T2C0.0472
T3C0.0472
%
G90
G05
T1
X6.6929Y-4.3898
X6.6929Y-4.6898
X6.3386Y-5.1575
X6.3386Y-5.2559
X5.3346Y-3.937
X5.3346Y-4.037
X5.3346Y-4.137
X5.3346Y-4.237
X5.3346Y-4.337
X5.3346Y-4.437
X5.3346Y-4.537
X5.3346Y-4.637
X5.3346Y-4.737
X5.3346Y-4.837
X5.3346Y-4.937
X5.3346Y-5.037
X5.3346Y-5.137
X5.3346Y-5.237
X5.3346Y-5.337
X5.9346Y-3.937
X5.9346Y-4.037
X5.9346Y-4.137
X5.9346Y-4.237
X5.9346Y-4.337
X5.9346Y-4.437
X5.9346Y-4.537
X5.9346Y-4.637
X5.9346Y-4.737
X5.9346Y-4.837
X5.9346Y-4.937
X5.9346Y-5.037
X5.9346Y-5.137
X5.9346Y-5.237
X5.9346Y-5.337
X6.185Y-3.9882
X6.2638Y-3.9882
X6.437Y-4.8425
X6.437Y-4.9213
X7.0386Y-5.315
X7.3386Y-5.315
X6.8307Y-4.685
X6.8307Y-4.985
X6.5354Y-4.3898
X6.5354Y-4.6898
X6.6142Y-4.0717
X6.6142Y-4.1717
X6.6142Y-4.2717
X6.5354Y-5.1378
X6.5354Y-5.2378
X6.5354Y-5.3378
X6.5354Y-5.4378
X6.5354Y-5.5378
X6.5354Y-5.6378
X6.5354Y-5.7378
X6.8354Y-5.1378
X6.8354Y-5.2378
X6.8354Y-5.3378
X6.8354Y-5.4378
X6.8354Y-5.5378
X6.8354Y-5.6378
X6.8354Y-5.7378
X7.0386Y-4.4606
X7.3386Y-4.4606
X6.3386Y-5.389
X6.3386Y-5.689
T2
X6.122Y-4.865
X6.122Y-5.015
X6.122Y-5.165
X6.122Y-5.315
X5.1378Y-4.1535
X5.1378Y-4.3035
X5.1378Y-4.4535
X5.1378Y-4.6035
T3
X7.1575Y-4.6614
X6.2205Y-4.3701
X6.2205Y-4.5654
X6.2205Y-4.6654
X6.5535Y-3.8346
X6.6535Y-3.8346
X7.1575Y-4.7614
X6.2205Y-4.2701
X7.1614Y-5.0394
X7.1614Y-5.1394
T0
M30
