G04 #@! TF.GenerationSoftware,KiCad,Pcbnew,5.1.5-52549c5~84~ubuntu18.04.1*
G04 #@! TF.CreationDate,2020-05-03T21:02:41-04:00*
G04 #@! TF.ProjectId,dac_ino,6461635f-696e-46f2-9e6b-696361645f70,rev?*
G04 #@! TF.SameCoordinates,Original*
G04 #@! TF.FileFunction,Legend,Top*
G04 #@! TF.FilePolarity,Positive*
%FSLAX46Y46*%
G04 Gerber Fmt 4.6, Leading zero omitted, Abs format (unit mm)*
G04 Created by KiCad (PCBNEW 5.1.5-52549c5~84~ubuntu18.04.1) date 2020-05-03 21:02:41*
%MOMM*%
%LPD*%
G04 APERTURE LIST*
%ADD10C,0.300000*%
%ADD11C,0.150000*%
%ADD12C,0.010000*%
%ADD13C,0.120000*%
G04 APERTURE END LIST*
D10*
X138500000Y-144504761D02*
X138500000Y-142504761D01*
X138976190Y-142504761D01*
X139261904Y-142600000D01*
X139452380Y-142790476D01*
X139547619Y-142980952D01*
X139642857Y-143361904D01*
X139642857Y-143647619D01*
X139547619Y-144028571D01*
X139452380Y-144219047D01*
X139261904Y-144409523D01*
X138976190Y-144504761D01*
X138500000Y-144504761D01*
X140404761Y-143933333D02*
X141357142Y-143933333D01*
X140214285Y-144504761D02*
X140880952Y-142504761D01*
X141547619Y-144504761D01*
X143357142Y-144314285D02*
X143261904Y-144409523D01*
X142976190Y-144504761D01*
X142785714Y-144504761D01*
X142500000Y-144409523D01*
X142309523Y-144219047D01*
X142214285Y-144028571D01*
X142119047Y-143647619D01*
X142119047Y-143361904D01*
X142214285Y-142980952D01*
X142309523Y-142790476D01*
X142500000Y-142600000D01*
X142785714Y-142504761D01*
X142976190Y-142504761D01*
X143261904Y-142600000D01*
X143357142Y-142695238D01*
X145642857Y-142409523D02*
X143928571Y-144980952D01*
X146309523Y-144504761D02*
X146309523Y-142504761D01*
X147261904Y-144504761D02*
X147261904Y-142504761D01*
X148404761Y-144504761D01*
X148404761Y-142504761D01*
X149738095Y-142504761D02*
X150119047Y-142504761D01*
X150309523Y-142600000D01*
X150500000Y-142790476D01*
X150595238Y-143171428D01*
X150595238Y-143838095D01*
X150500000Y-144219047D01*
X150309523Y-144409523D01*
X150119047Y-144504761D01*
X149738095Y-144504761D01*
X149547619Y-144409523D01*
X149357142Y-144219047D01*
X149261904Y-143838095D01*
X149261904Y-143171428D01*
X149357142Y-142790476D01*
X149547619Y-142600000D01*
X149738095Y-142504761D01*
D11*
X158666666Y-135619047D02*
X158666666Y-135142857D01*
X158952380Y-135714285D02*
X157952380Y-135380952D01*
X158952380Y-135047619D01*
X159047619Y-134952380D02*
X159047619Y-134190476D01*
X158666666Y-134000000D02*
X158666666Y-133523809D01*
X158952380Y-134095238D02*
X157952380Y-133761904D01*
X158952380Y-133428571D01*
X158666666Y-132380952D02*
X158666666Y-131904761D01*
X158952380Y-132476190D02*
X157952380Y-132142857D01*
X158952380Y-131809523D01*
X159047619Y-131714285D02*
X159047619Y-130952380D01*
X158428571Y-130380952D02*
X158476190Y-130238095D01*
X158523809Y-130190476D01*
X158619047Y-130142857D01*
X158761904Y-130142857D01*
X158857142Y-130190476D01*
X158904761Y-130238095D01*
X158952380Y-130333333D01*
X158952380Y-130714285D01*
X157952380Y-130714285D01*
X157952380Y-130380952D01*
X158000000Y-130285714D01*
X158047619Y-130238095D01*
X158142857Y-130190476D01*
X158238095Y-130190476D01*
X158333333Y-130238095D01*
X158380952Y-130285714D01*
X158428571Y-130380952D01*
X158428571Y-130714285D01*
X158666666Y-129000000D02*
X158666666Y-128523809D01*
X158952380Y-129095238D02*
X157952380Y-128761904D01*
X158952380Y-128428571D01*
X159047619Y-128333333D02*
X159047619Y-127571428D01*
X158857142Y-126761904D02*
X158904761Y-126809523D01*
X158952380Y-126952380D01*
X158952380Y-127047619D01*
X158904761Y-127190476D01*
X158809523Y-127285714D01*
X158714285Y-127333333D01*
X158523809Y-127380952D01*
X158380952Y-127380952D01*
X158190476Y-127333333D01*
X158095238Y-127285714D01*
X158000000Y-127190476D01*
X157952380Y-127047619D01*
X157952380Y-126952380D01*
X158000000Y-126809523D01*
X158047619Y-126761904D01*
X158666666Y-125619047D02*
X158666666Y-125142857D01*
X158952380Y-125714285D02*
X157952380Y-125380952D01*
X158952380Y-125047619D01*
X159047619Y-124952380D02*
X159047619Y-124190476D01*
X158952380Y-123952380D02*
X157952380Y-123952380D01*
X157952380Y-123714285D01*
X158000000Y-123571428D01*
X158095238Y-123476190D01*
X158190476Y-123428571D01*
X158380952Y-123380952D01*
X158523809Y-123380952D01*
X158714285Y-123428571D01*
X158809523Y-123476190D01*
X158904761Y-123571428D01*
X158952380Y-123714285D01*
X158952380Y-123952380D01*
X127952380Y-117857142D02*
X126952380Y-117857142D01*
X126952380Y-117619047D01*
X127000000Y-117476190D01*
X127095238Y-117380952D01*
X127190476Y-117333333D01*
X127380952Y-117285714D01*
X127523809Y-117285714D01*
X127714285Y-117333333D01*
X127809523Y-117380952D01*
X127904761Y-117476190D01*
X127952380Y-117619047D01*
X127952380Y-117857142D01*
X128047619Y-117095238D02*
X128047619Y-116333333D01*
X127952380Y-116095238D02*
X126952380Y-116095238D01*
X126952380Y-115857142D01*
X127000000Y-115714285D01*
X127095238Y-115619047D01*
X127190476Y-115571428D01*
X127380952Y-115523809D01*
X127523809Y-115523809D01*
X127714285Y-115571428D01*
X127809523Y-115619047D01*
X127904761Y-115714285D01*
X127952380Y-115857142D01*
X127952380Y-116095238D01*
X127952380Y-114333333D02*
X126952380Y-114333333D01*
X126952380Y-114095238D01*
X127000000Y-113952380D01*
X127095238Y-113857142D01*
X127190476Y-113809523D01*
X127380952Y-113761904D01*
X127523809Y-113761904D01*
X127714285Y-113809523D01*
X127809523Y-113857142D01*
X127904761Y-113952380D01*
X127952380Y-114095238D01*
X127952380Y-114333333D01*
X128047619Y-113571428D02*
X128047619Y-112809523D01*
X127857142Y-112000000D02*
X127904761Y-112047619D01*
X127952380Y-112190476D01*
X127952380Y-112285714D01*
X127904761Y-112428571D01*
X127809523Y-112523809D01*
X127714285Y-112571428D01*
X127523809Y-112619047D01*
X127380952Y-112619047D01*
X127190476Y-112571428D01*
X127095238Y-112523809D01*
X127000000Y-112428571D01*
X126952380Y-112285714D01*
X126952380Y-112190476D01*
X127000000Y-112047619D01*
X127047619Y-112000000D01*
X127952380Y-110809523D02*
X126952380Y-110809523D01*
X126952380Y-110571428D01*
X127000000Y-110428571D01*
X127095238Y-110333333D01*
X127190476Y-110285714D01*
X127380952Y-110238095D01*
X127523809Y-110238095D01*
X127714285Y-110285714D01*
X127809523Y-110333333D01*
X127904761Y-110428571D01*
X127952380Y-110571428D01*
X127952380Y-110809523D01*
X128047619Y-110047619D02*
X128047619Y-109285714D01*
X127428571Y-108714285D02*
X127476190Y-108571428D01*
X127523809Y-108523809D01*
X127619047Y-108476190D01*
X127761904Y-108476190D01*
X127857142Y-108523809D01*
X127904761Y-108571428D01*
X127952380Y-108666666D01*
X127952380Y-109047619D01*
X126952380Y-109047619D01*
X126952380Y-108714285D01*
X127000000Y-108619047D01*
X127047619Y-108571428D01*
X127142857Y-108523809D01*
X127238095Y-108523809D01*
X127333333Y-108571428D01*
X127380952Y-108619047D01*
X127428571Y-108714285D01*
X127428571Y-109047619D01*
X127952380Y-107285714D02*
X126952380Y-107285714D01*
X126952380Y-107047619D01*
X127000000Y-106904761D01*
X127095238Y-106809523D01*
X127190476Y-106761904D01*
X127380952Y-106714285D01*
X127523809Y-106714285D01*
X127714285Y-106761904D01*
X127809523Y-106809523D01*
X127904761Y-106904761D01*
X127952380Y-107047619D01*
X127952380Y-107285714D01*
X128047619Y-106523809D02*
X128047619Y-105761904D01*
X127666666Y-105571428D02*
X127666666Y-105095238D01*
X127952380Y-105666666D02*
X126952380Y-105333333D01*
X127952380Y-105000000D01*
X171690476Y-96000000D02*
X171595238Y-95952380D01*
X171452380Y-95952380D01*
X171309523Y-96000000D01*
X171214285Y-96095238D01*
X171166666Y-96190476D01*
X171119047Y-96380952D01*
X171119047Y-96523809D01*
X171166666Y-96714285D01*
X171214285Y-96809523D01*
X171309523Y-96904761D01*
X171452380Y-96952380D01*
X171547619Y-96952380D01*
X171690476Y-96904761D01*
X171738095Y-96857142D01*
X171738095Y-96523809D01*
X171547619Y-96523809D01*
X172119047Y-96666666D02*
X172595238Y-96666666D01*
X172023809Y-96952380D02*
X172357142Y-95952380D01*
X172690476Y-96952380D01*
X172880952Y-95952380D02*
X173452380Y-95952380D01*
X173166666Y-96952380D02*
X173166666Y-95952380D01*
X173785714Y-96428571D02*
X174119047Y-96428571D01*
X174261904Y-96952380D02*
X173785714Y-96952380D01*
X173785714Y-95952380D01*
X174261904Y-95952380D01*
X175642857Y-95952380D02*
X175833333Y-95952380D01*
X175928571Y-96000000D01*
X176023809Y-96095238D01*
X176071428Y-96285714D01*
X176071428Y-96619047D01*
X176023809Y-96809523D01*
X175928571Y-96904761D01*
X175833333Y-96952380D01*
X175642857Y-96952380D01*
X175547619Y-96904761D01*
X175452380Y-96809523D01*
X175404761Y-96619047D01*
X175404761Y-96285714D01*
X175452380Y-96095238D01*
X175547619Y-96000000D01*
X175642857Y-95952380D01*
X176500000Y-95952380D02*
X176500000Y-96761904D01*
X176547619Y-96857142D01*
X176595238Y-96904761D01*
X176690476Y-96952380D01*
X176880952Y-96952380D01*
X176976190Y-96904761D01*
X177023809Y-96857142D01*
X177071428Y-96761904D01*
X177071428Y-95952380D01*
X177404761Y-95952380D02*
X177976190Y-95952380D01*
X177690476Y-96952380D02*
X177690476Y-95952380D01*
X162071428Y-119190476D02*
X162071428Y-118428571D01*
X162452380Y-118809523D02*
X161690476Y-118809523D01*
X161452380Y-117333333D02*
X162452380Y-117000000D01*
X161452380Y-116666666D01*
X162357142Y-115761904D02*
X162404761Y-115809523D01*
X162452380Y-115952380D01*
X162452380Y-116047619D01*
X162404761Y-116190476D01*
X162309523Y-116285714D01*
X162214285Y-116333333D01*
X162023809Y-116380952D01*
X161880952Y-116380952D01*
X161690476Y-116333333D01*
X161595238Y-116285714D01*
X161500000Y-116190476D01*
X161452380Y-116047619D01*
X161452380Y-115952380D01*
X161500000Y-115809523D01*
X161547619Y-115761904D01*
X162357142Y-114761904D02*
X162404761Y-114809523D01*
X162452380Y-114952380D01*
X162452380Y-115047619D01*
X162404761Y-115190476D01*
X162309523Y-115285714D01*
X162214285Y-115333333D01*
X162023809Y-115380952D01*
X161880952Y-115380952D01*
X161690476Y-115333333D01*
X161595238Y-115285714D01*
X161500000Y-115190476D01*
X161452380Y-115047619D01*
X161452380Y-114952380D01*
X161500000Y-114809523D01*
X161547619Y-114761904D01*
X162071428Y-111952380D02*
X162071428Y-111190476D01*
X162452380Y-111571428D02*
X161690476Y-111571428D01*
X161452380Y-110095238D02*
X162452380Y-109761904D01*
X161452380Y-109428571D01*
X162452380Y-109095238D02*
X161452380Y-109095238D01*
X162452380Y-108619047D02*
X161452380Y-108619047D01*
X162452380Y-108047619D01*
X161452380Y-108047619D01*
X178057142Y-122438095D02*
X178104761Y-122485714D01*
X178152380Y-122628571D01*
X178152380Y-122723809D01*
X178104761Y-122866666D01*
X178009523Y-122961904D01*
X177914285Y-123009523D01*
X177723809Y-123057142D01*
X177580952Y-123057142D01*
X177390476Y-123009523D01*
X177295238Y-122961904D01*
X177200000Y-122866666D01*
X177152380Y-122723809D01*
X177152380Y-122628571D01*
X177200000Y-122485714D01*
X177247619Y-122438095D01*
X177152380Y-122152380D02*
X178152380Y-121819047D01*
X177152380Y-121485714D01*
X177152380Y-120200000D02*
X177152380Y-120009523D01*
X177200000Y-119914285D01*
X177295238Y-119819047D01*
X177485714Y-119771428D01*
X177819047Y-119771428D01*
X178009523Y-119819047D01*
X178104761Y-119914285D01*
X178152380Y-120009523D01*
X178152380Y-120200000D01*
X178104761Y-120295238D01*
X178009523Y-120390476D01*
X177819047Y-120438095D01*
X177485714Y-120438095D01*
X177295238Y-120390476D01*
X177200000Y-120295238D01*
X177152380Y-120200000D01*
X177152380Y-119342857D02*
X177961904Y-119342857D01*
X178057142Y-119295238D01*
X178104761Y-119247619D01*
X178152380Y-119152380D01*
X178152380Y-118961904D01*
X178104761Y-118866666D01*
X178057142Y-118819047D01*
X177961904Y-118771428D01*
X177152380Y-118771428D01*
X177152380Y-118438095D02*
X177152380Y-117866666D01*
X178152380Y-118152380D02*
X177152380Y-118152380D01*
X177866666Y-116819047D02*
X177866666Y-116342857D01*
X178152380Y-116914285D02*
X177152380Y-116580952D01*
X178152380Y-116247619D01*
X178157142Y-132009523D02*
X178204761Y-132057142D01*
X178252380Y-132200000D01*
X178252380Y-132295238D01*
X178204761Y-132438095D01*
X178109523Y-132533333D01*
X178014285Y-132580952D01*
X177823809Y-132628571D01*
X177680952Y-132628571D01*
X177490476Y-132580952D01*
X177395238Y-132533333D01*
X177300000Y-132438095D01*
X177252380Y-132295238D01*
X177252380Y-132200000D01*
X177300000Y-132057142D01*
X177347619Y-132009523D01*
X177252380Y-131723809D02*
X178252380Y-131390476D01*
X177252380Y-131057142D01*
X177252380Y-129771428D02*
X177252380Y-129580952D01*
X177300000Y-129485714D01*
X177395238Y-129390476D01*
X177585714Y-129342857D01*
X177919047Y-129342857D01*
X178109523Y-129390476D01*
X178204761Y-129485714D01*
X178252380Y-129580952D01*
X178252380Y-129771428D01*
X178204761Y-129866666D01*
X178109523Y-129961904D01*
X177919047Y-130009523D01*
X177585714Y-130009523D01*
X177395238Y-129961904D01*
X177300000Y-129866666D01*
X177252380Y-129771428D01*
X177252380Y-128914285D02*
X178061904Y-128914285D01*
X178157142Y-128866666D01*
X178204761Y-128819047D01*
X178252380Y-128723809D01*
X178252380Y-128533333D01*
X178204761Y-128438095D01*
X178157142Y-128390476D01*
X178061904Y-128342857D01*
X177252380Y-128342857D01*
X177252380Y-128009523D02*
X177252380Y-127438095D01*
X178252380Y-127723809D02*
X177252380Y-127723809D01*
X177728571Y-126009523D02*
X177776190Y-125866666D01*
X177823809Y-125819047D01*
X177919047Y-125771428D01*
X178061904Y-125771428D01*
X178157142Y-125819047D01*
X178204761Y-125866666D01*
X178252380Y-125961904D01*
X178252380Y-126342857D01*
X177252380Y-126342857D01*
X177252380Y-126009523D01*
X177300000Y-125914285D01*
X177347619Y-125866666D01*
X177442857Y-125819047D01*
X177538095Y-125819047D01*
X177633333Y-125866666D01*
X177680952Y-125914285D01*
X177728571Y-126009523D01*
X177728571Y-126342857D01*
D12*
G36*
X178174991Y-96675735D02*
G01*
X178390629Y-96682774D01*
X178598909Y-96695337D01*
X178609600Y-96696151D01*
X178928374Y-96727031D01*
X179244574Y-96770289D01*
X179557904Y-96825818D01*
X179868072Y-96893510D01*
X180174782Y-96973257D01*
X180477741Y-97064950D01*
X180776654Y-97168480D01*
X181071227Y-97283741D01*
X181361166Y-97410622D01*
X181646177Y-97549017D01*
X181925965Y-97698816D01*
X182200237Y-97859912D01*
X182468699Y-98032196D01*
X182724400Y-98210716D01*
X182972396Y-98398759D01*
X183213921Y-98597428D01*
X183448286Y-98806041D01*
X183674801Y-99023919D01*
X183892777Y-99250380D01*
X184101524Y-99484742D01*
X184300355Y-99726326D01*
X184433860Y-99900161D01*
X184618876Y-100158787D01*
X184793230Y-100424146D01*
X184956761Y-100695861D01*
X185109306Y-100973556D01*
X185250704Y-101256854D01*
X185380794Y-101545380D01*
X185499413Y-101838756D01*
X185606399Y-102136608D01*
X185701591Y-102438557D01*
X185784827Y-102744229D01*
X185855945Y-103053246D01*
X185909055Y-103331575D01*
X185937042Y-103504235D01*
X185961037Y-103675168D01*
X185981439Y-103847803D01*
X185998648Y-104025570D01*
X186013063Y-104211896D01*
X186014931Y-104239625D01*
X186017042Y-104279936D01*
X186018835Y-104331142D01*
X186020311Y-104391464D01*
X186021469Y-104459124D01*
X186022310Y-104532341D01*
X186022833Y-104609338D01*
X186023039Y-104688334D01*
X186022926Y-104767552D01*
X186022496Y-104845212D01*
X186021748Y-104919534D01*
X186020681Y-104988741D01*
X186019296Y-105051053D01*
X186017593Y-105104691D01*
X186015571Y-105147876D01*
X186014991Y-105157200D01*
X185993639Y-105425334D01*
X185965676Y-105684351D01*
X185930812Y-105936148D01*
X185888757Y-106182622D01*
X185839221Y-106425671D01*
X185787955Y-106643241D01*
X185703741Y-106953427D01*
X185607846Y-107258673D01*
X185500362Y-107558811D01*
X185381378Y-107853671D01*
X185250984Y-108143085D01*
X185109271Y-108426882D01*
X184956329Y-108704895D01*
X184792247Y-108976954D01*
X184617117Y-109242889D01*
X184431028Y-109502532D01*
X184234070Y-109755714D01*
X184026334Y-110002265D01*
X183954446Y-110083239D01*
X183922488Y-110118069D01*
X183882958Y-110160027D01*
X183837387Y-110207566D01*
X183787310Y-110259144D01*
X183734262Y-110313214D01*
X183679776Y-110368232D01*
X183625386Y-110422654D01*
X183572626Y-110474935D01*
X183523031Y-110523529D01*
X183478134Y-110566893D01*
X183439469Y-110603481D01*
X183419725Y-110621698D01*
X183177164Y-110834082D01*
X182927826Y-111035786D01*
X182671968Y-111226703D01*
X182409846Y-111406729D01*
X182141717Y-111575757D01*
X181867836Y-111733681D01*
X181588462Y-111880395D01*
X181303851Y-112015794D01*
X181014258Y-112139772D01*
X180719941Y-112252223D01*
X180421156Y-112353041D01*
X180118160Y-112442120D01*
X179811210Y-112519355D01*
X179500562Y-112584638D01*
X179186472Y-112637866D01*
X178869198Y-112678931D01*
X178548996Y-112707728D01*
X178333375Y-112720087D01*
X178294019Y-112721469D01*
X178244526Y-112722637D01*
X178187151Y-112723583D01*
X178124151Y-112724301D01*
X178057781Y-112724782D01*
X177990295Y-112725020D01*
X177923951Y-112725006D01*
X177861003Y-112724734D01*
X177803708Y-112724196D01*
X177754319Y-112723385D01*
X177715094Y-112722293D01*
X177711075Y-112722138D01*
X177389278Y-112703071D01*
X177070045Y-112671720D01*
X176753659Y-112628190D01*
X176440404Y-112572587D01*
X176130562Y-112505016D01*
X175824416Y-112425583D01*
X175522249Y-112334392D01*
X175224345Y-112231550D01*
X174930987Y-112117162D01*
X174642457Y-111991333D01*
X174359038Y-111854168D01*
X174081015Y-111705773D01*
X173808669Y-111546253D01*
X173542285Y-111375714D01*
X173282144Y-111194261D01*
X173028530Y-111002000D01*
X172973975Y-110958532D01*
X172762582Y-110782109D01*
X172553698Y-110594938D01*
X172349323Y-110398964D01*
X172151459Y-110196129D01*
X171962107Y-109988375D01*
X171894199Y-109910175D01*
X171696322Y-109669527D01*
X171507571Y-109420284D01*
X171328302Y-109163034D01*
X171158871Y-108898365D01*
X170999632Y-108626867D01*
X170850941Y-108349127D01*
X170713153Y-108065734D01*
X170586623Y-107777277D01*
X170544962Y-107674975D01*
X170433049Y-107377599D01*
X170333287Y-107076886D01*
X170245687Y-106773211D01*
X170170261Y-106466952D01*
X170107022Y-106158484D01*
X170055980Y-105848185D01*
X170017150Y-105536431D01*
X169990541Y-105223599D01*
X169976167Y-104910065D01*
X169974743Y-104700000D01*
X170059475Y-104700000D01*
X170059580Y-104796293D01*
X170059947Y-104881638D01*
X170060658Y-104957786D01*
X170061792Y-105026488D01*
X170063429Y-105089495D01*
X170065649Y-105148557D01*
X170068532Y-105205424D01*
X170072159Y-105261849D01*
X170076609Y-105319581D01*
X170081963Y-105380371D01*
X170088301Y-105445971D01*
X170095702Y-105518131D01*
X170097812Y-105538200D01*
X170137267Y-105851784D01*
X170189082Y-106162810D01*
X170253113Y-106470937D01*
X170329214Y-106775827D01*
X170417242Y-107077138D01*
X170517051Y-107374531D01*
X170628497Y-107667665D01*
X170751435Y-107956201D01*
X170885722Y-108239799D01*
X171031211Y-108518118D01*
X171187758Y-108790819D01*
X171355219Y-109057562D01*
X171533450Y-109318007D01*
X171722304Y-109571813D01*
X171915722Y-109811595D01*
X171974700Y-109881174D01*
X172031615Y-109946716D01*
X172088272Y-110010173D01*
X172146476Y-110073500D01*
X172208032Y-110138647D01*
X172274744Y-110207568D01*
X172348418Y-110282215D01*
X172379871Y-110313744D01*
X172508278Y-110440062D01*
X172632218Y-110557562D01*
X172753963Y-110668192D01*
X172875785Y-110773898D01*
X172999956Y-110876628D01*
X173128745Y-110978330D01*
X173264427Y-111080950D01*
X173337040Y-111134290D01*
X173579212Y-111303233D01*
X173830297Y-111464170D01*
X174089121Y-111616523D01*
X174354511Y-111759718D01*
X174625290Y-111893179D01*
X174900285Y-112016331D01*
X175178321Y-112128598D01*
X175458223Y-112229404D01*
X175738818Y-112318175D01*
X175774325Y-112328524D01*
X176003846Y-112391549D01*
X176229880Y-112446941D01*
X176454561Y-112495055D01*
X176680028Y-112536244D01*
X176908415Y-112570863D01*
X177141859Y-112599267D01*
X177382498Y-112621810D01*
X177632466Y-112638847D01*
X177650750Y-112639864D01*
X177678707Y-112640894D01*
X177717779Y-112641600D01*
X177766385Y-112642002D01*
X177822944Y-112642121D01*
X177885874Y-112641975D01*
X177953596Y-112641584D01*
X178024528Y-112640970D01*
X178097089Y-112640150D01*
X178169698Y-112639146D01*
X178240776Y-112637976D01*
X178308740Y-112636661D01*
X178372010Y-112635221D01*
X178429005Y-112633675D01*
X178478144Y-112632043D01*
X178517846Y-112630346D01*
X178546100Y-112628635D01*
X178690558Y-112616665D01*
X178825841Y-112603570D01*
X178955455Y-112588923D01*
X179082903Y-112572300D01*
X179211692Y-112553277D01*
X179339850Y-112532359D01*
X179649490Y-112473295D01*
X179956131Y-112401975D01*
X180259392Y-112318569D01*
X180558895Y-112223249D01*
X180854263Y-112116185D01*
X181145116Y-111997547D01*
X181431077Y-111867506D01*
X181711766Y-111726233D01*
X181986806Y-111573898D01*
X182255819Y-111410672D01*
X182518425Y-111236725D01*
X182774247Y-111052227D01*
X182981575Y-110890866D01*
X183189717Y-110717043D01*
X183394452Y-110533804D01*
X183593631Y-110343227D01*
X183785102Y-110147393D01*
X183966715Y-109948381D01*
X184022169Y-109884632D01*
X184225140Y-109638812D01*
X184417637Y-109385875D01*
X184599532Y-109126036D01*
X184770694Y-108859510D01*
X184930991Y-108586511D01*
X185080295Y-108307255D01*
X185218473Y-108021957D01*
X185345396Y-107730832D01*
X185376354Y-107654666D01*
X185488636Y-107357325D01*
X185588792Y-107056408D01*
X185676748Y-106752227D01*
X185752428Y-106445092D01*
X185815756Y-106135316D01*
X185866658Y-105823210D01*
X185905058Y-105509086D01*
X185911817Y-105439775D01*
X185917793Y-105374465D01*
X185922893Y-105315676D01*
X185927185Y-105261664D01*
X185930737Y-105210687D01*
X185933618Y-105161004D01*
X185935894Y-105110873D01*
X185937634Y-105058551D01*
X185938907Y-105002296D01*
X185939779Y-104940367D01*
X185940319Y-104871022D01*
X185940595Y-104792518D01*
X185940674Y-104703113D01*
X185940675Y-104700000D01*
X185940600Y-104610211D01*
X185940332Y-104531379D01*
X185939801Y-104461763D01*
X185938941Y-104399620D01*
X185937683Y-104343208D01*
X185935959Y-104290785D01*
X185933701Y-104240610D01*
X185930841Y-104190940D01*
X185927312Y-104140033D01*
X185923045Y-104086147D01*
X185917972Y-104027541D01*
X185912026Y-103962471D01*
X185911817Y-103960225D01*
X185876271Y-103646587D01*
X185828284Y-103335048D01*
X185767999Y-103025996D01*
X185695559Y-102719818D01*
X185611109Y-102416902D01*
X185514791Y-102117635D01*
X185406748Y-101822406D01*
X185287124Y-101531601D01*
X185156061Y-101245608D01*
X185013704Y-100964815D01*
X184860196Y-100689610D01*
X184695679Y-100420379D01*
X184520297Y-100157511D01*
X184490694Y-100115300D01*
X184303809Y-99861644D01*
X184106646Y-99615341D01*
X183899486Y-99376690D01*
X183682611Y-99145990D01*
X183456304Y-98923539D01*
X183220846Y-98709637D01*
X182976519Y-98504582D01*
X182953000Y-98485687D01*
X182709432Y-98298764D01*
X182457192Y-98120822D01*
X182196942Y-97952232D01*
X181929348Y-97793367D01*
X181655075Y-97644601D01*
X181374787Y-97506305D01*
X181089149Y-97378853D01*
X180798825Y-97262617D01*
X180717800Y-97232502D01*
X180434472Y-97135024D01*
X180148299Y-97048738D01*
X179858533Y-96973486D01*
X179564427Y-96909108D01*
X179265234Y-96855447D01*
X178960209Y-96812344D01*
X178648604Y-96779641D01*
X178539750Y-96770767D01*
X178488630Y-96767595D01*
X178426592Y-96764898D01*
X178355407Y-96762679D01*
X178276847Y-96760935D01*
X178192685Y-96759667D01*
X178104691Y-96758876D01*
X178014639Y-96758561D01*
X177924300Y-96758722D01*
X177835447Y-96759359D01*
X177749851Y-96760473D01*
X177669284Y-96762062D01*
X177595520Y-96764128D01*
X177530329Y-96766670D01*
X177475483Y-96769689D01*
X177460250Y-96770767D01*
X177184454Y-96795598D01*
X176917162Y-96827842D01*
X176656314Y-96867858D01*
X176399856Y-96916002D01*
X176145729Y-96972631D01*
X175891876Y-97038104D01*
X175842681Y-97051805D01*
X175542873Y-97142852D01*
X175246573Y-97245948D01*
X174954304Y-97360819D01*
X174666593Y-97487187D01*
X174383963Y-97624778D01*
X174106940Y-97773317D01*
X173836048Y-97932527D01*
X173571812Y-98102134D01*
X173314756Y-98281861D01*
X173065405Y-98471434D01*
X172930372Y-98580928D01*
X172785437Y-98704537D01*
X172638871Y-98835990D01*
X172493080Y-98972948D01*
X172350470Y-99113072D01*
X172213447Y-99254023D01*
X172084417Y-99393463D01*
X172021431Y-99464425D01*
X171817557Y-99707239D01*
X171624008Y-99957244D01*
X171440935Y-100214096D01*
X171268488Y-100477449D01*
X171106817Y-100746959D01*
X170956073Y-101022283D01*
X170816408Y-101303076D01*
X170687970Y-101588995D01*
X170570912Y-101879694D01*
X170465383Y-102174830D01*
X170371534Y-102474058D01*
X170289515Y-102777035D01*
X170219478Y-103083415D01*
X170161572Y-103392856D01*
X170115949Y-103705012D01*
X170097812Y-103861800D01*
X170090121Y-103935953D01*
X170083514Y-104003091D01*
X170077912Y-104064965D01*
X170073235Y-104123324D01*
X170069401Y-104179920D01*
X170066332Y-104236504D01*
X170063947Y-104294826D01*
X170062166Y-104356638D01*
X170060909Y-104423689D01*
X170060096Y-104497731D01*
X170059647Y-104580515D01*
X170059481Y-104673791D01*
X170059475Y-104700000D01*
X169974743Y-104700000D01*
X169974039Y-104596206D01*
X169984169Y-104282399D01*
X170006569Y-103969019D01*
X170041252Y-103656445D01*
X170088229Y-103345052D01*
X170147512Y-103035217D01*
X170219113Y-102727317D01*
X170303045Y-102421728D01*
X170370756Y-102204450D01*
X170475926Y-101903487D01*
X170592745Y-101607463D01*
X170721048Y-101316663D01*
X170860665Y-101031376D01*
X171011429Y-100751888D01*
X171173174Y-100478485D01*
X171345731Y-100211455D01*
X171528932Y-99951084D01*
X171722611Y-99697661D01*
X171926599Y-99451470D01*
X172078462Y-99280275D01*
X172108217Y-99248295D01*
X172145594Y-99209116D01*
X172189029Y-99164307D01*
X172236954Y-99115433D01*
X172287803Y-99064061D01*
X172340008Y-99011757D01*
X172392004Y-98960090D01*
X172442222Y-98910624D01*
X172489097Y-98864928D01*
X172531062Y-98824568D01*
X172566549Y-98791110D01*
X172580275Y-98778462D01*
X172821047Y-98567276D01*
X173069184Y-98366321D01*
X173324396Y-98175760D01*
X173586395Y-97995753D01*
X173854890Y-97826464D01*
X174129594Y-97668054D01*
X174410216Y-97520685D01*
X174696469Y-97384520D01*
X174988061Y-97259720D01*
X175284705Y-97146447D01*
X175586111Y-97044863D01*
X175777500Y-96987174D01*
X176086397Y-96904847D01*
X176398110Y-96834900D01*
X176712588Y-96777345D01*
X177029775Y-96732191D01*
X177314200Y-96702451D01*
X177521597Y-96687578D01*
X177736707Y-96678156D01*
X177955760Y-96674202D01*
X178174991Y-96675735D01*
G37*
X178174991Y-96675735D02*
X178390629Y-96682774D01*
X178598909Y-96695337D01*
X178609600Y-96696151D01*
X178928374Y-96727031D01*
X179244574Y-96770289D01*
X179557904Y-96825818D01*
X179868072Y-96893510D01*
X180174782Y-96973257D01*
X180477741Y-97064950D01*
X180776654Y-97168480D01*
X181071227Y-97283741D01*
X181361166Y-97410622D01*
X181646177Y-97549017D01*
X181925965Y-97698816D01*
X182200237Y-97859912D01*
X182468699Y-98032196D01*
X182724400Y-98210716D01*
X182972396Y-98398759D01*
X183213921Y-98597428D01*
X183448286Y-98806041D01*
X183674801Y-99023919D01*
X183892777Y-99250380D01*
X184101524Y-99484742D01*
X184300355Y-99726326D01*
X184433860Y-99900161D01*
X184618876Y-100158787D01*
X184793230Y-100424146D01*
X184956761Y-100695861D01*
X185109306Y-100973556D01*
X185250704Y-101256854D01*
X185380794Y-101545380D01*
X185499413Y-101838756D01*
X185606399Y-102136608D01*
X185701591Y-102438557D01*
X185784827Y-102744229D01*
X185855945Y-103053246D01*
X185909055Y-103331575D01*
X185937042Y-103504235D01*
X185961037Y-103675168D01*
X185981439Y-103847803D01*
X185998648Y-104025570D01*
X186013063Y-104211896D01*
X186014931Y-104239625D01*
X186017042Y-104279936D01*
X186018835Y-104331142D01*
X186020311Y-104391464D01*
X186021469Y-104459124D01*
X186022310Y-104532341D01*
X186022833Y-104609338D01*
X186023039Y-104688334D01*
X186022926Y-104767552D01*
X186022496Y-104845212D01*
X186021748Y-104919534D01*
X186020681Y-104988741D01*
X186019296Y-105051053D01*
X186017593Y-105104691D01*
X186015571Y-105147876D01*
X186014991Y-105157200D01*
X185993639Y-105425334D01*
X185965676Y-105684351D01*
X185930812Y-105936148D01*
X185888757Y-106182622D01*
X185839221Y-106425671D01*
X185787955Y-106643241D01*
X185703741Y-106953427D01*
X185607846Y-107258673D01*
X185500362Y-107558811D01*
X185381378Y-107853671D01*
X185250984Y-108143085D01*
X185109271Y-108426882D01*
X184956329Y-108704895D01*
X184792247Y-108976954D01*
X184617117Y-109242889D01*
X184431028Y-109502532D01*
X184234070Y-109755714D01*
X184026334Y-110002265D01*
X183954446Y-110083239D01*
X183922488Y-110118069D01*
X183882958Y-110160027D01*
X183837387Y-110207566D01*
X183787310Y-110259144D01*
X183734262Y-110313214D01*
X183679776Y-110368232D01*
X183625386Y-110422654D01*
X183572626Y-110474935D01*
X183523031Y-110523529D01*
X183478134Y-110566893D01*
X183439469Y-110603481D01*
X183419725Y-110621698D01*
X183177164Y-110834082D01*
X182927826Y-111035786D01*
X182671968Y-111226703D01*
X182409846Y-111406729D01*
X182141717Y-111575757D01*
X181867836Y-111733681D01*
X181588462Y-111880395D01*
X181303851Y-112015794D01*
X181014258Y-112139772D01*
X180719941Y-112252223D01*
X180421156Y-112353041D01*
X180118160Y-112442120D01*
X179811210Y-112519355D01*
X179500562Y-112584638D01*
X179186472Y-112637866D01*
X178869198Y-112678931D01*
X178548996Y-112707728D01*
X178333375Y-112720087D01*
X178294019Y-112721469D01*
X178244526Y-112722637D01*
X178187151Y-112723583D01*
X178124151Y-112724301D01*
X178057781Y-112724782D01*
X177990295Y-112725020D01*
X177923951Y-112725006D01*
X177861003Y-112724734D01*
X177803708Y-112724196D01*
X177754319Y-112723385D01*
X177715094Y-112722293D01*
X177711075Y-112722138D01*
X177389278Y-112703071D01*
X177070045Y-112671720D01*
X176753659Y-112628190D01*
X176440404Y-112572587D01*
X176130562Y-112505016D01*
X175824416Y-112425583D01*
X175522249Y-112334392D01*
X175224345Y-112231550D01*
X174930987Y-112117162D01*
X174642457Y-111991333D01*
X174359038Y-111854168D01*
X174081015Y-111705773D01*
X173808669Y-111546253D01*
X173542285Y-111375714D01*
X173282144Y-111194261D01*
X173028530Y-111002000D01*
X172973975Y-110958532D01*
X172762582Y-110782109D01*
X172553698Y-110594938D01*
X172349323Y-110398964D01*
X172151459Y-110196129D01*
X171962107Y-109988375D01*
X171894199Y-109910175D01*
X171696322Y-109669527D01*
X171507571Y-109420284D01*
X171328302Y-109163034D01*
X171158871Y-108898365D01*
X170999632Y-108626867D01*
X170850941Y-108349127D01*
X170713153Y-108065734D01*
X170586623Y-107777277D01*
X170544962Y-107674975D01*
X170433049Y-107377599D01*
X170333287Y-107076886D01*
X170245687Y-106773211D01*
X170170261Y-106466952D01*
X170107022Y-106158484D01*
X170055980Y-105848185D01*
X170017150Y-105536431D01*
X169990541Y-105223599D01*
X169976167Y-104910065D01*
X169974743Y-104700000D01*
X170059475Y-104700000D01*
X170059580Y-104796293D01*
X170059947Y-104881638D01*
X170060658Y-104957786D01*
X170061792Y-105026488D01*
X170063429Y-105089495D01*
X170065649Y-105148557D01*
X170068532Y-105205424D01*
X170072159Y-105261849D01*
X170076609Y-105319581D01*
X170081963Y-105380371D01*
X170088301Y-105445971D01*
X170095702Y-105518131D01*
X170097812Y-105538200D01*
X170137267Y-105851784D01*
X170189082Y-106162810D01*
X170253113Y-106470937D01*
X170329214Y-106775827D01*
X170417242Y-107077138D01*
X170517051Y-107374531D01*
X170628497Y-107667665D01*
X170751435Y-107956201D01*
X170885722Y-108239799D01*
X171031211Y-108518118D01*
X171187758Y-108790819D01*
X171355219Y-109057562D01*
X171533450Y-109318007D01*
X171722304Y-109571813D01*
X171915722Y-109811595D01*
X171974700Y-109881174D01*
X172031615Y-109946716D01*
X172088272Y-110010173D01*
X172146476Y-110073500D01*
X172208032Y-110138647D01*
X172274744Y-110207568D01*
X172348418Y-110282215D01*
X172379871Y-110313744D01*
X172508278Y-110440062D01*
X172632218Y-110557562D01*
X172753963Y-110668192D01*
X172875785Y-110773898D01*
X172999956Y-110876628D01*
X173128745Y-110978330D01*
X173264427Y-111080950D01*
X173337040Y-111134290D01*
X173579212Y-111303233D01*
X173830297Y-111464170D01*
X174089121Y-111616523D01*
X174354511Y-111759718D01*
X174625290Y-111893179D01*
X174900285Y-112016331D01*
X175178321Y-112128598D01*
X175458223Y-112229404D01*
X175738818Y-112318175D01*
X175774325Y-112328524D01*
X176003846Y-112391549D01*
X176229880Y-112446941D01*
X176454561Y-112495055D01*
X176680028Y-112536244D01*
X176908415Y-112570863D01*
X177141859Y-112599267D01*
X177382498Y-112621810D01*
X177632466Y-112638847D01*
X177650750Y-112639864D01*
X177678707Y-112640894D01*
X177717779Y-112641600D01*
X177766385Y-112642002D01*
X177822944Y-112642121D01*
X177885874Y-112641975D01*
X177953596Y-112641584D01*
X178024528Y-112640970D01*
X178097089Y-112640150D01*
X178169698Y-112639146D01*
X178240776Y-112637976D01*
X178308740Y-112636661D01*
X178372010Y-112635221D01*
X178429005Y-112633675D01*
X178478144Y-112632043D01*
X178517846Y-112630346D01*
X178546100Y-112628635D01*
X178690558Y-112616665D01*
X178825841Y-112603570D01*
X178955455Y-112588923D01*
X179082903Y-112572300D01*
X179211692Y-112553277D01*
X179339850Y-112532359D01*
X179649490Y-112473295D01*
X179956131Y-112401975D01*
X180259392Y-112318569D01*
X180558895Y-112223249D01*
X180854263Y-112116185D01*
X181145116Y-111997547D01*
X181431077Y-111867506D01*
X181711766Y-111726233D01*
X181986806Y-111573898D01*
X182255819Y-111410672D01*
X182518425Y-111236725D01*
X182774247Y-111052227D01*
X182981575Y-110890866D01*
X183189717Y-110717043D01*
X183394452Y-110533804D01*
X183593631Y-110343227D01*
X183785102Y-110147393D01*
X183966715Y-109948381D01*
X184022169Y-109884632D01*
X184225140Y-109638812D01*
X184417637Y-109385875D01*
X184599532Y-109126036D01*
X184770694Y-108859510D01*
X184930991Y-108586511D01*
X185080295Y-108307255D01*
X185218473Y-108021957D01*
X185345396Y-107730832D01*
X185376354Y-107654666D01*
X185488636Y-107357325D01*
X185588792Y-107056408D01*
X185676748Y-106752227D01*
X185752428Y-106445092D01*
X185815756Y-106135316D01*
X185866658Y-105823210D01*
X185905058Y-105509086D01*
X185911817Y-105439775D01*
X185917793Y-105374465D01*
X185922893Y-105315676D01*
X185927185Y-105261664D01*
X185930737Y-105210687D01*
X185933618Y-105161004D01*
X185935894Y-105110873D01*
X185937634Y-105058551D01*
X185938907Y-105002296D01*
X185939779Y-104940367D01*
X185940319Y-104871022D01*
X185940595Y-104792518D01*
X185940674Y-104703113D01*
X185940675Y-104700000D01*
X185940600Y-104610211D01*
X185940332Y-104531379D01*
X185939801Y-104461763D01*
X185938941Y-104399620D01*
X185937683Y-104343208D01*
X185935959Y-104290785D01*
X185933701Y-104240610D01*
X185930841Y-104190940D01*
X185927312Y-104140033D01*
X185923045Y-104086147D01*
X185917972Y-104027541D01*
X185912026Y-103962471D01*
X185911817Y-103960225D01*
X185876271Y-103646587D01*
X185828284Y-103335048D01*
X185767999Y-103025996D01*
X185695559Y-102719818D01*
X185611109Y-102416902D01*
X185514791Y-102117635D01*
X185406748Y-101822406D01*
X185287124Y-101531601D01*
X185156061Y-101245608D01*
X185013704Y-100964815D01*
X184860196Y-100689610D01*
X184695679Y-100420379D01*
X184520297Y-100157511D01*
X184490694Y-100115300D01*
X184303809Y-99861644D01*
X184106646Y-99615341D01*
X183899486Y-99376690D01*
X183682611Y-99145990D01*
X183456304Y-98923539D01*
X183220846Y-98709637D01*
X182976519Y-98504582D01*
X182953000Y-98485687D01*
X182709432Y-98298764D01*
X182457192Y-98120822D01*
X182196942Y-97952232D01*
X181929348Y-97793367D01*
X181655075Y-97644601D01*
X181374787Y-97506305D01*
X181089149Y-97378853D01*
X180798825Y-97262617D01*
X180717800Y-97232502D01*
X180434472Y-97135024D01*
X180148299Y-97048738D01*
X179858533Y-96973486D01*
X179564427Y-96909108D01*
X179265234Y-96855447D01*
X178960209Y-96812344D01*
X178648604Y-96779641D01*
X178539750Y-96770767D01*
X178488630Y-96767595D01*
X178426592Y-96764898D01*
X178355407Y-96762679D01*
X178276847Y-96760935D01*
X178192685Y-96759667D01*
X178104691Y-96758876D01*
X178014639Y-96758561D01*
X177924300Y-96758722D01*
X177835447Y-96759359D01*
X177749851Y-96760473D01*
X177669284Y-96762062D01*
X177595520Y-96764128D01*
X177530329Y-96766670D01*
X177475483Y-96769689D01*
X177460250Y-96770767D01*
X177184454Y-96795598D01*
X176917162Y-96827842D01*
X176656314Y-96867858D01*
X176399856Y-96916002D01*
X176145729Y-96972631D01*
X175891876Y-97038104D01*
X175842681Y-97051805D01*
X175542873Y-97142852D01*
X175246573Y-97245948D01*
X174954304Y-97360819D01*
X174666593Y-97487187D01*
X174383963Y-97624778D01*
X174106940Y-97773317D01*
X173836048Y-97932527D01*
X173571812Y-98102134D01*
X173314756Y-98281861D01*
X173065405Y-98471434D01*
X172930372Y-98580928D01*
X172785437Y-98704537D01*
X172638871Y-98835990D01*
X172493080Y-98972948D01*
X172350470Y-99113072D01*
X172213447Y-99254023D01*
X172084417Y-99393463D01*
X172021431Y-99464425D01*
X171817557Y-99707239D01*
X171624008Y-99957244D01*
X171440935Y-100214096D01*
X171268488Y-100477449D01*
X171106817Y-100746959D01*
X170956073Y-101022283D01*
X170816408Y-101303076D01*
X170687970Y-101588995D01*
X170570912Y-101879694D01*
X170465383Y-102174830D01*
X170371534Y-102474058D01*
X170289515Y-102777035D01*
X170219478Y-103083415D01*
X170161572Y-103392856D01*
X170115949Y-103705012D01*
X170097812Y-103861800D01*
X170090121Y-103935953D01*
X170083514Y-104003091D01*
X170077912Y-104064965D01*
X170073235Y-104123324D01*
X170069401Y-104179920D01*
X170066332Y-104236504D01*
X170063947Y-104294826D01*
X170062166Y-104356638D01*
X170060909Y-104423689D01*
X170060096Y-104497731D01*
X170059647Y-104580515D01*
X170059481Y-104673791D01*
X170059475Y-104700000D01*
X169974743Y-104700000D01*
X169974039Y-104596206D01*
X169984169Y-104282399D01*
X170006569Y-103969019D01*
X170041252Y-103656445D01*
X170088229Y-103345052D01*
X170147512Y-103035217D01*
X170219113Y-102727317D01*
X170303045Y-102421728D01*
X170370756Y-102204450D01*
X170475926Y-101903487D01*
X170592745Y-101607463D01*
X170721048Y-101316663D01*
X170860665Y-101031376D01*
X171011429Y-100751888D01*
X171173174Y-100478485D01*
X171345731Y-100211455D01*
X171528932Y-99951084D01*
X171722611Y-99697661D01*
X171926599Y-99451470D01*
X172078462Y-99280275D01*
X172108217Y-99248295D01*
X172145594Y-99209116D01*
X172189029Y-99164307D01*
X172236954Y-99115433D01*
X172287803Y-99064061D01*
X172340008Y-99011757D01*
X172392004Y-98960090D01*
X172442222Y-98910624D01*
X172489097Y-98864928D01*
X172531062Y-98824568D01*
X172566549Y-98791110D01*
X172580275Y-98778462D01*
X172821047Y-98567276D01*
X173069184Y-98366321D01*
X173324396Y-98175760D01*
X173586395Y-97995753D01*
X173854890Y-97826464D01*
X174129594Y-97668054D01*
X174410216Y-97520685D01*
X174696469Y-97384520D01*
X174988061Y-97259720D01*
X175284705Y-97146447D01*
X175586111Y-97044863D01*
X175777500Y-96987174D01*
X176086397Y-96904847D01*
X176398110Y-96834900D01*
X176712588Y-96777345D01*
X177029775Y-96732191D01*
X177314200Y-96702451D01*
X177521597Y-96687578D01*
X177736707Y-96678156D01*
X177955760Y-96674202D01*
X178174991Y-96675735D01*
G36*
X174355100Y-109849850D02*
G01*
X173670358Y-109849850D01*
X173578164Y-109849811D01*
X173489542Y-109849699D01*
X173405319Y-109849519D01*
X173326320Y-109849275D01*
X173253370Y-109848972D01*
X173187295Y-109848617D01*
X173128920Y-109848213D01*
X173079070Y-109847766D01*
X173038572Y-109847281D01*
X173008250Y-109846764D01*
X172988929Y-109846218D01*
X172981437Y-109845649D01*
X172981383Y-109845616D01*
X172981079Y-109839033D01*
X172980782Y-109820182D01*
X172980490Y-109789499D01*
X172980206Y-109747417D01*
X172979930Y-109694368D01*
X172979662Y-109630787D01*
X172979403Y-109557108D01*
X172979155Y-109473763D01*
X172978918Y-109381186D01*
X172978692Y-109279811D01*
X172978478Y-109170070D01*
X172978278Y-109052399D01*
X172978091Y-108927230D01*
X172977919Y-108794997D01*
X172977762Y-108656133D01*
X172977622Y-108511072D01*
X172977498Y-108360247D01*
X172977392Y-108204092D01*
X172977304Y-108043040D01*
X172977235Y-107877526D01*
X172977186Y-107707981D01*
X172977157Y-107534841D01*
X172977150Y-107388166D01*
X172977150Y-105341350D01*
X173370850Y-105341350D01*
X173370850Y-109437100D01*
X173967750Y-109437100D01*
X173967750Y-105341350D01*
X173370850Y-105341350D01*
X172977150Y-105341350D01*
X172977150Y-104934950D01*
X174355100Y-104934950D01*
X174355100Y-109849850D01*
G37*
X174355100Y-109849850D02*
X173670358Y-109849850D01*
X173578164Y-109849811D01*
X173489542Y-109849699D01*
X173405319Y-109849519D01*
X173326320Y-109849275D01*
X173253370Y-109848972D01*
X173187295Y-109848617D01*
X173128920Y-109848213D01*
X173079070Y-109847766D01*
X173038572Y-109847281D01*
X173008250Y-109846764D01*
X172988929Y-109846218D01*
X172981437Y-109845649D01*
X172981383Y-109845616D01*
X172981079Y-109839033D01*
X172980782Y-109820182D01*
X172980490Y-109789499D01*
X172980206Y-109747417D01*
X172979930Y-109694368D01*
X172979662Y-109630787D01*
X172979403Y-109557108D01*
X172979155Y-109473763D01*
X172978918Y-109381186D01*
X172978692Y-109279811D01*
X172978478Y-109170070D01*
X172978278Y-109052399D01*
X172978091Y-108927230D01*
X172977919Y-108794997D01*
X172977762Y-108656133D01*
X172977622Y-108511072D01*
X172977498Y-108360247D01*
X172977392Y-108204092D01*
X172977304Y-108043040D01*
X172977235Y-107877526D01*
X172977186Y-107707981D01*
X172977157Y-107534841D01*
X172977150Y-107388166D01*
X172977150Y-105341350D01*
X173370850Y-105341350D01*
X173370850Y-109437100D01*
X173967750Y-109437100D01*
X173967750Y-105341350D01*
X173370850Y-105341350D01*
X172977150Y-105341350D01*
X172977150Y-104934950D01*
X174355100Y-104934950D01*
X174355100Y-109849850D01*
G36*
X175104400Y-109437100D02*
G01*
X175701300Y-109437100D01*
X175701300Y-104934950D01*
X176088650Y-104934950D01*
X176088650Y-109847095D01*
X175402373Y-109847095D01*
X175310147Y-109847064D01*
X175221541Y-109846975D01*
X175137377Y-109846831D01*
X175058473Y-109846637D01*
X174985649Y-109846396D01*
X174919725Y-109846112D01*
X174861520Y-109845790D01*
X174811855Y-109845434D01*
X174771547Y-109845047D01*
X174741419Y-109844634D01*
X174722288Y-109844199D01*
X174714974Y-109843745D01*
X174714925Y-109843710D01*
X174714846Y-109837187D01*
X174714780Y-109818398D01*
X174714725Y-109787776D01*
X174714682Y-109745754D01*
X174714651Y-109692765D01*
X174714631Y-109629243D01*
X174714623Y-109555622D01*
X174714625Y-109472333D01*
X174714639Y-109379812D01*
X174714663Y-109278492D01*
X174714698Y-109168804D01*
X174714744Y-109051184D01*
X174714799Y-108926065D01*
X174714865Y-108793879D01*
X174714941Y-108655060D01*
X174715026Y-108510042D01*
X174715121Y-108359258D01*
X174715226Y-108203141D01*
X174715340Y-108042124D01*
X174715463Y-107876642D01*
X174715595Y-107707127D01*
X174715735Y-107534012D01*
X174715859Y-107387637D01*
X174717965Y-104934950D01*
X175104400Y-104934950D01*
X175104400Y-109437100D01*
G37*
X175104400Y-109437100D02*
X175701300Y-109437100D01*
X175701300Y-104934950D01*
X176088650Y-104934950D01*
X176088650Y-109847095D01*
X175402373Y-109847095D01*
X175310147Y-109847064D01*
X175221541Y-109846975D01*
X175137377Y-109846831D01*
X175058473Y-109846637D01*
X174985649Y-109846396D01*
X174919725Y-109846112D01*
X174861520Y-109845790D01*
X174811855Y-109845434D01*
X174771547Y-109845047D01*
X174741419Y-109844634D01*
X174722288Y-109844199D01*
X174714974Y-109843745D01*
X174714925Y-109843710D01*
X174714846Y-109837187D01*
X174714780Y-109818398D01*
X174714725Y-109787776D01*
X174714682Y-109745754D01*
X174714651Y-109692765D01*
X174714631Y-109629243D01*
X174714623Y-109555622D01*
X174714625Y-109472333D01*
X174714639Y-109379812D01*
X174714663Y-109278492D01*
X174714698Y-109168804D01*
X174714744Y-109051184D01*
X174714799Y-108926065D01*
X174714865Y-108793879D01*
X174714941Y-108655060D01*
X174715026Y-108510042D01*
X174715121Y-108359258D01*
X174715226Y-108203141D01*
X174715340Y-108042124D01*
X174715463Y-107876642D01*
X174715595Y-107707127D01*
X174715735Y-107534012D01*
X174715859Y-107387637D01*
X174717965Y-104934950D01*
X175104400Y-104934950D01*
X175104400Y-109437100D01*
G36*
X180298700Y-109437100D02*
G01*
X180895600Y-109437100D01*
X180895600Y-104934950D01*
X181282950Y-104934950D01*
X181284490Y-107186025D01*
X181284606Y-107356617D01*
X181284720Y-107525000D01*
X181284833Y-107690666D01*
X181284942Y-107853107D01*
X181285048Y-108011814D01*
X181285151Y-108166281D01*
X181285251Y-108316000D01*
X181285346Y-108460461D01*
X181285437Y-108599158D01*
X181285524Y-108731582D01*
X181285605Y-108857225D01*
X181285681Y-108975581D01*
X181285752Y-109086139D01*
X181285816Y-109188394D01*
X181285874Y-109281836D01*
X181285926Y-109365958D01*
X181285970Y-109440251D01*
X181286008Y-109504209D01*
X181286038Y-109557323D01*
X181286059Y-109599085D01*
X181286073Y-109628987D01*
X181286077Y-109641887D01*
X181286125Y-109846675D01*
X180598737Y-109846901D01*
X179911350Y-109847127D01*
X179911350Y-104934950D01*
X180298700Y-104934950D01*
X180298700Y-109437100D01*
G37*
X180298700Y-109437100D02*
X180895600Y-109437100D01*
X180895600Y-104934950D01*
X181282950Y-104934950D01*
X181284490Y-107186025D01*
X181284606Y-107356617D01*
X181284720Y-107525000D01*
X181284833Y-107690666D01*
X181284942Y-107853107D01*
X181285048Y-108011814D01*
X181285151Y-108166281D01*
X181285251Y-108316000D01*
X181285346Y-108460461D01*
X181285437Y-108599158D01*
X181285524Y-108731582D01*
X181285605Y-108857225D01*
X181285681Y-108975581D01*
X181285752Y-109086139D01*
X181285816Y-109188394D01*
X181285874Y-109281836D01*
X181285926Y-109365958D01*
X181285970Y-109440251D01*
X181286008Y-109504209D01*
X181286038Y-109557323D01*
X181286059Y-109599085D01*
X181286073Y-109628987D01*
X181286077Y-109641887D01*
X181286125Y-109846675D01*
X180598737Y-109846901D01*
X179911350Y-109847127D01*
X179911350Y-104934950D01*
X180298700Y-104934950D01*
X180298700Y-109437100D01*
G36*
X177822200Y-105341350D02*
G01*
X177326900Y-105341350D01*
X177326900Y-109843500D01*
X176939550Y-109843500D01*
X176939550Y-105341350D01*
X176444250Y-105341350D01*
X176444250Y-104934950D01*
X177822200Y-104934950D01*
X177822200Y-105341350D01*
G37*
X177822200Y-105341350D02*
X177326900Y-105341350D01*
X177326900Y-109843500D01*
X176939550Y-109843500D01*
X176939550Y-105341350D01*
X176444250Y-105341350D01*
X176444250Y-104934950D01*
X177822200Y-104934950D01*
X177822200Y-105341350D01*
G36*
X179555750Y-106198522D02*
G01*
X179062037Y-106200148D01*
X178568325Y-106201775D01*
X178566726Y-108022637D01*
X178565128Y-109843500D01*
X178177800Y-109843500D01*
X178177800Y-105659181D01*
X178566227Y-105659181D01*
X178566297Y-105701195D01*
X178566542Y-105736245D01*
X178566952Y-105762800D01*
X178567519Y-105779330D01*
X178568039Y-105784220D01*
X178571377Y-105786165D01*
X178580368Y-105787789D01*
X178595905Y-105789117D01*
X178618886Y-105790172D01*
X178650204Y-105790979D01*
X178690756Y-105791561D01*
X178741437Y-105791942D01*
X178803141Y-105792147D01*
X178866575Y-105792200D01*
X179162050Y-105792200D01*
X179162050Y-105341224D01*
X178865187Y-105342874D01*
X178568325Y-105344525D01*
X178566651Y-105560382D01*
X178566342Y-105611733D01*
X178566227Y-105659181D01*
X178177800Y-105659181D01*
X178177800Y-104934950D01*
X179555750Y-104934950D01*
X179555750Y-106198522D01*
G37*
X179555750Y-106198522D02*
X179062037Y-106200148D01*
X178568325Y-106201775D01*
X178566726Y-108022637D01*
X178565128Y-109843500D01*
X178177800Y-109843500D01*
X178177800Y-105659181D01*
X178566227Y-105659181D01*
X178566297Y-105701195D01*
X178566542Y-105736245D01*
X178566952Y-105762800D01*
X178567519Y-105779330D01*
X178568039Y-105784220D01*
X178571377Y-105786165D01*
X178580368Y-105787789D01*
X178595905Y-105789117D01*
X178618886Y-105790172D01*
X178650204Y-105790979D01*
X178690756Y-105791561D01*
X178741437Y-105791942D01*
X178803141Y-105792147D01*
X178866575Y-105792200D01*
X179162050Y-105792200D01*
X179162050Y-105341224D01*
X178865187Y-105342874D01*
X178568325Y-105344525D01*
X178566651Y-105560382D01*
X178566342Y-105611733D01*
X178566227Y-105659181D01*
X178177800Y-105659181D01*
X178177800Y-104934950D01*
X179555750Y-104934950D01*
X179555750Y-106198522D01*
G36*
X183016500Y-105341350D02*
G01*
X182527550Y-105341350D01*
X182527550Y-109843500D01*
X182133850Y-109843500D01*
X182133850Y-105341350D01*
X181644900Y-105341350D01*
X181644900Y-104934950D01*
X183016500Y-104934950D01*
X183016500Y-105341350D01*
G37*
X183016500Y-105341350D02*
X182527550Y-105341350D01*
X182527550Y-109843500D01*
X182133850Y-109843500D01*
X182133850Y-105341350D01*
X181644900Y-105341350D01*
X181644900Y-104934950D01*
X183016500Y-104934950D01*
X183016500Y-105341350D01*
G36*
X174355100Y-104465050D02*
G01*
X173967750Y-104465050D01*
X173967750Y-104058650D01*
X173370850Y-104058650D01*
X173370850Y-104465050D01*
X172983500Y-104465050D01*
X172983372Y-104263437D01*
X172983360Y-104241822D01*
X172983346Y-104208014D01*
X172983329Y-104162520D01*
X172983309Y-104105845D01*
X172983286Y-104038496D01*
X172983262Y-103960980D01*
X172983234Y-103873804D01*
X172983205Y-103777474D01*
X172983174Y-103672497D01*
X172983141Y-103559379D01*
X172983106Y-103438627D01*
X172983070Y-103310748D01*
X172983032Y-103176247D01*
X172982993Y-103035632D01*
X172982953Y-102889410D01*
X172982912Y-102738086D01*
X172982870Y-102582168D01*
X172982827Y-102422162D01*
X172982784Y-102258575D01*
X172982740Y-102091913D01*
X172982696Y-101922682D01*
X172982667Y-101807575D01*
X172982195Y-99962900D01*
X173370850Y-99962900D01*
X173370850Y-103785725D01*
X173667712Y-103784075D01*
X173964575Y-103782425D01*
X173966172Y-101872662D01*
X173967770Y-99962900D01*
X173370850Y-99962900D01*
X172982195Y-99962900D01*
X172982090Y-99553325D01*
X173668595Y-99553098D01*
X174355100Y-99552872D01*
X174355100Y-104465050D01*
G37*
X174355100Y-104465050D02*
X173967750Y-104465050D01*
X173967750Y-104058650D01*
X173370850Y-104058650D01*
X173370850Y-104465050D01*
X172983500Y-104465050D01*
X172983372Y-104263437D01*
X172983360Y-104241822D01*
X172983346Y-104208014D01*
X172983329Y-104162520D01*
X172983309Y-104105845D01*
X172983286Y-104038496D01*
X172983262Y-103960980D01*
X172983234Y-103873804D01*
X172983205Y-103777474D01*
X172983174Y-103672497D01*
X172983141Y-103559379D01*
X172983106Y-103438627D01*
X172983070Y-103310748D01*
X172983032Y-103176247D01*
X172982993Y-103035632D01*
X172982953Y-102889410D01*
X172982912Y-102738086D01*
X172982870Y-102582168D01*
X172982827Y-102422162D01*
X172982784Y-102258575D01*
X172982740Y-102091913D01*
X172982696Y-101922682D01*
X172982667Y-101807575D01*
X172982195Y-99962900D01*
X173370850Y-99962900D01*
X173370850Y-103785725D01*
X173667712Y-103784075D01*
X173964575Y-103782425D01*
X173966172Y-101872662D01*
X173967770Y-99962900D01*
X173370850Y-99962900D01*
X172982195Y-99962900D01*
X172982090Y-99553325D01*
X173668595Y-99553098D01*
X174355100Y-99552872D01*
X174355100Y-104465050D01*
G36*
X176088650Y-104465050D02*
G01*
X175701300Y-104465050D01*
X175701300Y-99962900D01*
X175104400Y-99962900D01*
X175104400Y-104465050D01*
X174717050Y-104465050D01*
X174715509Y-102213975D01*
X174715393Y-102043382D01*
X174715279Y-101874999D01*
X174715166Y-101709333D01*
X174715057Y-101546892D01*
X174714951Y-101388185D01*
X174714848Y-101233718D01*
X174714748Y-101083999D01*
X174714653Y-100939538D01*
X174714562Y-100800841D01*
X174714475Y-100668417D01*
X174714394Y-100542774D01*
X174714318Y-100424418D01*
X174714247Y-100313860D01*
X174714183Y-100211605D01*
X174714125Y-100118163D01*
X174714073Y-100034041D01*
X174714029Y-99959748D01*
X174713991Y-99895790D01*
X174713961Y-99842676D01*
X174713940Y-99800914D01*
X174713926Y-99771012D01*
X174713922Y-99758112D01*
X174713875Y-99553325D01*
X175401262Y-99553098D01*
X176088650Y-99552872D01*
X176088650Y-104465050D01*
G37*
X176088650Y-104465050D02*
X175701300Y-104465050D01*
X175701300Y-99962900D01*
X175104400Y-99962900D01*
X175104400Y-104465050D01*
X174717050Y-104465050D01*
X174715509Y-102213975D01*
X174715393Y-102043382D01*
X174715279Y-101874999D01*
X174715166Y-101709333D01*
X174715057Y-101546892D01*
X174714951Y-101388185D01*
X174714848Y-101233718D01*
X174714748Y-101083999D01*
X174714653Y-100939538D01*
X174714562Y-100800841D01*
X174714475Y-100668417D01*
X174714394Y-100542774D01*
X174714318Y-100424418D01*
X174714247Y-100313860D01*
X174714183Y-100211605D01*
X174714125Y-100118163D01*
X174714073Y-100034041D01*
X174714029Y-99959748D01*
X174713991Y-99895790D01*
X174713961Y-99842676D01*
X174713940Y-99800914D01*
X174713926Y-99771012D01*
X174713922Y-99758112D01*
X174713875Y-99553325D01*
X175401262Y-99553098D01*
X176088650Y-99552872D01*
X176088650Y-104465050D01*
G36*
X177820620Y-102009187D02*
G01*
X177822216Y-104465050D01*
X177434850Y-104465050D01*
X177434850Y-104058650D01*
X176837950Y-104058650D01*
X176837950Y-104465050D01*
X176444233Y-104465050D01*
X176445829Y-102009187D01*
X176447158Y-99962900D01*
X176837950Y-99962900D01*
X176837950Y-103785725D01*
X177134812Y-103784075D01*
X177431675Y-103782425D01*
X177433272Y-101872662D01*
X177434870Y-99962900D01*
X176837950Y-99962900D01*
X176447158Y-99962900D01*
X176447425Y-99553325D01*
X177819025Y-99553325D01*
X177820620Y-102009187D01*
G37*
X177820620Y-102009187D02*
X177822216Y-104465050D01*
X177434850Y-104465050D01*
X177434850Y-104058650D01*
X176837950Y-104058650D01*
X176837950Y-104465050D01*
X176444233Y-104465050D01*
X176445829Y-102009187D01*
X176447158Y-99962900D01*
X176837950Y-99962900D01*
X176837950Y-103785725D01*
X177134812Y-103784075D01*
X177431675Y-103782425D01*
X177433272Y-101872662D01*
X177434870Y-99962900D01*
X176837950Y-99962900D01*
X176447158Y-99962900D01*
X176447425Y-99553325D01*
X177819025Y-99553325D01*
X177820620Y-102009187D01*
G36*
X178566728Y-101805987D02*
G01*
X178568325Y-104055475D01*
X179062037Y-104057101D01*
X179555750Y-104058727D01*
X179555750Y-104465050D01*
X178177800Y-104465050D01*
X178177800Y-99556500D01*
X178565132Y-99556500D01*
X178566728Y-101805987D01*
G37*
X178566728Y-101805987D02*
X178568325Y-104055475D01*
X179062037Y-104057101D01*
X179555750Y-104058727D01*
X179555750Y-104465050D01*
X178177800Y-104465050D01*
X178177800Y-99556500D01*
X178565132Y-99556500D01*
X178566728Y-101805987D01*
G36*
X180598737Y-99551709D02*
G01*
X181286125Y-99553325D01*
X181287720Y-102009187D01*
X181289316Y-104465050D01*
X179911350Y-104465050D01*
X179911350Y-99962900D01*
X180305050Y-99962900D01*
X180305050Y-104058650D01*
X180895600Y-104058650D01*
X180895600Y-99962900D01*
X180305050Y-99962900D01*
X179911350Y-99962900D01*
X179911350Y-99550093D01*
X180598737Y-99551709D01*
G37*
X180598737Y-99551709D02*
X181286125Y-99553325D01*
X181287720Y-102009187D01*
X181289316Y-104465050D01*
X179911350Y-104465050D01*
X179911350Y-99962900D01*
X180305050Y-99962900D01*
X180305050Y-104058650D01*
X180895600Y-104058650D01*
X180895600Y-99962900D01*
X180305050Y-99962900D01*
X179911350Y-99962900D01*
X179911350Y-99550093D01*
X180598737Y-99551709D01*
G36*
X181935412Y-99552281D02*
G01*
X181998520Y-99553088D01*
X182071885Y-99553844D01*
X182153065Y-99554535D01*
X182239617Y-99555145D01*
X182329098Y-99555659D01*
X182419066Y-99556063D01*
X182507078Y-99556342D01*
X182590690Y-99556480D01*
X182621212Y-99556492D01*
X183016500Y-99556500D01*
X183016500Y-99962900D01*
X182032250Y-99962900D01*
X182032250Y-104058650D01*
X182629150Y-104058650D01*
X182629150Y-100547338D01*
X182484687Y-100545631D01*
X182340225Y-100543925D01*
X182338513Y-100405757D01*
X182336802Y-100267589D01*
X182676903Y-100269232D01*
X183017005Y-100270875D01*
X183018340Y-102367962D01*
X183019675Y-104465050D01*
X181644900Y-104465050D01*
X181644900Y-99548078D01*
X181935412Y-99552281D01*
G37*
X181935412Y-99552281D02*
X181998520Y-99553088D01*
X182071885Y-99553844D01*
X182153065Y-99554535D01*
X182239617Y-99555145D01*
X182329098Y-99555659D01*
X182419066Y-99556063D01*
X182507078Y-99556342D01*
X182590690Y-99556480D01*
X182621212Y-99556492D01*
X183016500Y-99556500D01*
X183016500Y-99962900D01*
X182032250Y-99962900D01*
X182032250Y-104058650D01*
X182629150Y-104058650D01*
X182629150Y-100547338D01*
X182484687Y-100545631D01*
X182340225Y-100543925D01*
X182338513Y-100405757D01*
X182336802Y-100267589D01*
X182676903Y-100269232D01*
X183017005Y-100270875D01*
X183018340Y-102367962D01*
X183019675Y-104465050D01*
X181644900Y-104465050D01*
X181644900Y-99548078D01*
X181935412Y-99552281D01*
D13*
X185860000Y-136370000D02*
X185860000Y-136040000D01*
X179320000Y-136370000D02*
X185860000Y-136370000D01*
X179320000Y-136040000D02*
X179320000Y-136370000D01*
X185860000Y-133630000D02*
X185860000Y-133960000D01*
X179320000Y-133630000D02*
X185860000Y-133630000D01*
X179320000Y-133960000D02*
X179320000Y-133630000D01*
X185860000Y-114670000D02*
X185860000Y-114340000D01*
X179320000Y-114670000D02*
X185860000Y-114670000D01*
X179320000Y-114340000D02*
X179320000Y-114670000D01*
X185860000Y-111930000D02*
X185860000Y-112260000D01*
X179320000Y-111930000D02*
X185860000Y-111930000D01*
X179320000Y-112260000D02*
X179320000Y-111930000D01*
X184330000Y-131340000D02*
X184930000Y-131340000D01*
X184330000Y-129740000D02*
X184330000Y-131340000D01*
X184930000Y-129740000D02*
X184330000Y-129740000D01*
X184330000Y-128800000D02*
X184930000Y-128800000D01*
X184330000Y-127200000D02*
X184330000Y-128800000D01*
X184930000Y-127200000D02*
X184330000Y-127200000D01*
X178910000Y-130290000D02*
X179910000Y-130290000D01*
X178910000Y-128250000D02*
X179910000Y-128250000D01*
X180440000Y-130290000D02*
X179910000Y-130540000D01*
X180440000Y-128250000D02*
X180440000Y-130290000D01*
X179910000Y-128000000D02*
X180440000Y-128250000D01*
X179910000Y-130540000D02*
X178910000Y-130540000D01*
X179910000Y-128000000D02*
X179910000Y-130540000D01*
X178910000Y-128000000D02*
X179910000Y-128000000D01*
X183900000Y-126330000D02*
X179900000Y-126330000D01*
X184930000Y-131920000D02*
X184930000Y-126620000D01*
X178910000Y-131920000D02*
X184930000Y-131920000D01*
X178910000Y-126620000D02*
X178910000Y-131920000D01*
X184930000Y-126620000D02*
X178910000Y-126620000D01*
X184230000Y-121740000D02*
X184830000Y-121740000D01*
X184230000Y-120140000D02*
X184230000Y-121740000D01*
X184830000Y-120140000D02*
X184230000Y-120140000D01*
X184230000Y-119200000D02*
X184830000Y-119200000D01*
X184230000Y-117600000D02*
X184230000Y-119200000D01*
X184830000Y-117600000D02*
X184230000Y-117600000D01*
X178810000Y-120690000D02*
X179810000Y-120690000D01*
X178810000Y-118650000D02*
X179810000Y-118650000D01*
X180340000Y-120690000D02*
X179810000Y-120940000D01*
X180340000Y-118650000D02*
X180340000Y-120690000D01*
X179810000Y-118400000D02*
X180340000Y-118650000D01*
X179810000Y-120940000D02*
X178810000Y-120940000D01*
X179810000Y-118400000D02*
X179810000Y-120940000D01*
X178810000Y-118400000D02*
X179810000Y-118400000D01*
X183800000Y-116730000D02*
X179800000Y-116730000D01*
X184830000Y-122320000D02*
X184830000Y-117020000D01*
X178810000Y-122320000D02*
X184830000Y-122320000D01*
X178810000Y-117020000D02*
X178810000Y-122320000D01*
X184830000Y-117020000D02*
X178810000Y-117020000D01*
X152140000Y-96060000D02*
X134100000Y-96060000D01*
X152140000Y-139500000D02*
X152140000Y-96060000D01*
X134100000Y-139500000D02*
X152140000Y-139500000D01*
X136770000Y-136830000D02*
X134100000Y-136830000D01*
X136770000Y-101270000D02*
X136770000Y-136830000D01*
X136770000Y-101270000D02*
X134100000Y-101270000D01*
X149470000Y-136830000D02*
X152140000Y-136830000D01*
X149470000Y-98730000D02*
X149470000Y-136830000D01*
X149470000Y-98730000D02*
X152140000Y-98730000D01*
X134100000Y-96060000D02*
X134100000Y-98730000D01*
X134100000Y-101270000D02*
X134100000Y-139500000D01*
X136770000Y-98730000D02*
X134100000Y-98730000D01*
X136770000Y-101270000D02*
X136770000Y-98730000D01*
X162370000Y-137420000D02*
X162040000Y-137420000D01*
X162370000Y-143960000D02*
X162370000Y-137420000D01*
X162040000Y-143960000D02*
X162370000Y-143960000D01*
X159630000Y-137420000D02*
X159960000Y-137420000D01*
X159630000Y-143960000D02*
X159630000Y-137420000D01*
X159960000Y-143960000D02*
X159630000Y-143960000D01*
X161775000Y-126554775D02*
X162275000Y-126554775D01*
X162025000Y-126804775D02*
X162025000Y-126304775D01*
X163216000Y-121399000D02*
X163784000Y-121399000D01*
X162982000Y-121439000D02*
X164018000Y-121439000D01*
X162823000Y-121479000D02*
X164177000Y-121479000D01*
X162695000Y-121519000D02*
X164305000Y-121519000D01*
X162585000Y-121559000D02*
X164415000Y-121559000D01*
X162489000Y-121599000D02*
X164511000Y-121599000D01*
X162402000Y-121639000D02*
X164598000Y-121639000D01*
X162322000Y-121679000D02*
X164678000Y-121679000D01*
X162249000Y-121719000D02*
X164751000Y-121719000D01*
X162181000Y-121759000D02*
X164819000Y-121759000D01*
X162117000Y-121799000D02*
X164883000Y-121799000D01*
X162057000Y-121839000D02*
X164943000Y-121839000D01*
X162000000Y-121879000D02*
X165000000Y-121879000D01*
X161946000Y-121919000D02*
X165054000Y-121919000D01*
X161895000Y-121959000D02*
X165105000Y-121959000D01*
X164540000Y-121999000D02*
X165153000Y-121999000D01*
X161847000Y-121999000D02*
X162460000Y-121999000D01*
X164540000Y-122039000D02*
X165199000Y-122039000D01*
X161801000Y-122039000D02*
X162460000Y-122039000D01*
X164540000Y-122079000D02*
X165243000Y-122079000D01*
X161757000Y-122079000D02*
X162460000Y-122079000D01*
X164540000Y-122119000D02*
X165285000Y-122119000D01*
X161715000Y-122119000D02*
X162460000Y-122119000D01*
X164540000Y-122159000D02*
X165326000Y-122159000D01*
X161674000Y-122159000D02*
X162460000Y-122159000D01*
X164540000Y-122199000D02*
X165364000Y-122199000D01*
X161636000Y-122199000D02*
X162460000Y-122199000D01*
X164540000Y-122239000D02*
X165401000Y-122239000D01*
X161599000Y-122239000D02*
X162460000Y-122239000D01*
X164540000Y-122279000D02*
X165437000Y-122279000D01*
X161563000Y-122279000D02*
X162460000Y-122279000D01*
X164540000Y-122319000D02*
X165471000Y-122319000D01*
X161529000Y-122319000D02*
X162460000Y-122319000D01*
X164540000Y-122359000D02*
X165504000Y-122359000D01*
X161496000Y-122359000D02*
X162460000Y-122359000D01*
X164540000Y-122399000D02*
X165535000Y-122399000D01*
X161465000Y-122399000D02*
X162460000Y-122399000D01*
X164540000Y-122439000D02*
X165565000Y-122439000D01*
X161435000Y-122439000D02*
X162460000Y-122439000D01*
X164540000Y-122479000D02*
X165595000Y-122479000D01*
X161405000Y-122479000D02*
X162460000Y-122479000D01*
X164540000Y-122519000D02*
X165622000Y-122519000D01*
X161378000Y-122519000D02*
X162460000Y-122519000D01*
X164540000Y-122559000D02*
X165649000Y-122559000D01*
X161351000Y-122559000D02*
X162460000Y-122559000D01*
X164540000Y-122599000D02*
X165675000Y-122599000D01*
X161325000Y-122599000D02*
X162460000Y-122599000D01*
X164540000Y-122639000D02*
X165700000Y-122639000D01*
X161300000Y-122639000D02*
X162460000Y-122639000D01*
X164540000Y-122679000D02*
X165724000Y-122679000D01*
X161276000Y-122679000D02*
X162460000Y-122679000D01*
X164540000Y-122719000D02*
X165747000Y-122719000D01*
X161253000Y-122719000D02*
X162460000Y-122719000D01*
X164540000Y-122759000D02*
X165768000Y-122759000D01*
X161232000Y-122759000D02*
X162460000Y-122759000D01*
X164540000Y-122799000D02*
X165790000Y-122799000D01*
X161210000Y-122799000D02*
X162460000Y-122799000D01*
X164540000Y-122839000D02*
X165810000Y-122839000D01*
X161190000Y-122839000D02*
X162460000Y-122839000D01*
X164540000Y-122879000D02*
X165829000Y-122879000D01*
X161171000Y-122879000D02*
X162460000Y-122879000D01*
X164540000Y-122919000D02*
X165848000Y-122919000D01*
X161152000Y-122919000D02*
X162460000Y-122919000D01*
X164540000Y-122959000D02*
X165865000Y-122959000D01*
X161135000Y-122959000D02*
X162460000Y-122959000D01*
X164540000Y-122999000D02*
X165882000Y-122999000D01*
X161118000Y-122999000D02*
X162460000Y-122999000D01*
X164540000Y-123039000D02*
X165898000Y-123039000D01*
X161102000Y-123039000D02*
X162460000Y-123039000D01*
X164540000Y-123079000D02*
X165914000Y-123079000D01*
X161086000Y-123079000D02*
X162460000Y-123079000D01*
X164540000Y-123119000D02*
X165928000Y-123119000D01*
X161072000Y-123119000D02*
X162460000Y-123119000D01*
X164540000Y-123159000D02*
X165942000Y-123159000D01*
X161058000Y-123159000D02*
X162460000Y-123159000D01*
X164540000Y-123199000D02*
X165955000Y-123199000D01*
X161045000Y-123199000D02*
X162460000Y-123199000D01*
X164540000Y-123239000D02*
X165968000Y-123239000D01*
X161032000Y-123239000D02*
X162460000Y-123239000D01*
X164540000Y-123279000D02*
X165980000Y-123279000D01*
X161020000Y-123279000D02*
X162460000Y-123279000D01*
X164540000Y-123320000D02*
X165991000Y-123320000D01*
X161009000Y-123320000D02*
X162460000Y-123320000D01*
X164540000Y-123360000D02*
X166001000Y-123360000D01*
X160999000Y-123360000D02*
X162460000Y-123360000D01*
X164540000Y-123400000D02*
X166011000Y-123400000D01*
X160989000Y-123400000D02*
X162460000Y-123400000D01*
X164540000Y-123440000D02*
X166020000Y-123440000D01*
X160980000Y-123440000D02*
X162460000Y-123440000D01*
X164540000Y-123480000D02*
X166028000Y-123480000D01*
X160972000Y-123480000D02*
X162460000Y-123480000D01*
X164540000Y-123520000D02*
X166036000Y-123520000D01*
X160964000Y-123520000D02*
X162460000Y-123520000D01*
X164540000Y-123560000D02*
X166043000Y-123560000D01*
X160957000Y-123560000D02*
X162460000Y-123560000D01*
X164540000Y-123600000D02*
X166050000Y-123600000D01*
X160950000Y-123600000D02*
X162460000Y-123600000D01*
X164540000Y-123640000D02*
X166056000Y-123640000D01*
X160944000Y-123640000D02*
X162460000Y-123640000D01*
X164540000Y-123680000D02*
X166061000Y-123680000D01*
X160939000Y-123680000D02*
X162460000Y-123680000D01*
X164540000Y-123720000D02*
X166065000Y-123720000D01*
X160935000Y-123720000D02*
X162460000Y-123720000D01*
X164540000Y-123760000D02*
X166069000Y-123760000D01*
X160931000Y-123760000D02*
X162460000Y-123760000D01*
X164540000Y-123800000D02*
X166073000Y-123800000D01*
X160927000Y-123800000D02*
X162460000Y-123800000D01*
X164540000Y-123840000D02*
X166076000Y-123840000D01*
X160924000Y-123840000D02*
X162460000Y-123840000D01*
X164540000Y-123880000D02*
X166078000Y-123880000D01*
X160922000Y-123880000D02*
X162460000Y-123880000D01*
X164540000Y-123920000D02*
X166079000Y-123920000D01*
X160921000Y-123920000D02*
X162460000Y-123920000D01*
X160920000Y-123960000D02*
X162460000Y-123960000D01*
X164540000Y-123960000D02*
X166080000Y-123960000D01*
X160920000Y-124000000D02*
X162460000Y-124000000D01*
X164540000Y-124000000D02*
X166080000Y-124000000D01*
X166120000Y-124000000D02*
G75*
G03X166120000Y-124000000I-2620000J0D01*
G01*
X155570000Y-107660000D02*
X154970000Y-107660000D01*
X155570000Y-109260000D02*
X155570000Y-107660000D01*
X154970000Y-109260000D02*
X155570000Y-109260000D01*
X155570000Y-110200000D02*
X154970000Y-110200000D01*
X155570000Y-111800000D02*
X155570000Y-110200000D01*
X154970000Y-111800000D02*
X155570000Y-111800000D01*
X160990000Y-108710000D02*
X159990000Y-108710000D01*
X160990000Y-110750000D02*
X159990000Y-110750000D01*
X159460000Y-108710000D02*
X159990000Y-108460000D01*
X159460000Y-110750000D02*
X159460000Y-108710000D01*
X159990000Y-111000000D02*
X159460000Y-110750000D01*
X159990000Y-108460000D02*
X160990000Y-108460000D01*
X159990000Y-111000000D02*
X159990000Y-108460000D01*
X160990000Y-111000000D02*
X159990000Y-111000000D01*
X156000000Y-112670000D02*
X160000000Y-112670000D01*
X154970000Y-107080000D02*
X154970000Y-112380000D01*
X160990000Y-107080000D02*
X154970000Y-107080000D01*
X160990000Y-112380000D02*
X160990000Y-107080000D01*
X154970000Y-112380000D02*
X160990000Y-112380000D01*
X172130000Y-126080000D02*
X172460000Y-126080000D01*
X172130000Y-119540000D02*
X172130000Y-126080000D01*
X172460000Y-119540000D02*
X172130000Y-119540000D01*
X174870000Y-126080000D02*
X174540000Y-126080000D01*
X174870000Y-119540000D02*
X174870000Y-126080000D01*
X174540000Y-119540000D02*
X174870000Y-119540000D01*
X175060000Y-129110000D02*
X164560000Y-129110000D01*
X175060000Y-147130000D02*
X175060000Y-129110000D01*
X164560000Y-147130000D02*
X175060000Y-147130000D01*
X164560000Y-129110000D02*
X164560000Y-147130000D01*
X172060000Y-129170000D02*
X170810000Y-129170000D01*
X172060000Y-147070000D02*
X172060000Y-129170000D01*
X167560000Y-147070000D02*
X172060000Y-147070000D01*
X167560000Y-129170000D02*
X167560000Y-147070000D01*
X168810000Y-129170000D02*
X167560000Y-129170000D01*
X170810000Y-129170000D02*
G75*
G02X168810000Y-129170000I-1000000J0D01*
G01*
X168630000Y-118580000D02*
X168960000Y-118580000D01*
X168630000Y-112040000D02*
X168630000Y-118580000D01*
X168960000Y-112040000D02*
X168630000Y-112040000D01*
X171370000Y-118580000D02*
X171040000Y-118580000D01*
X171370000Y-112040000D02*
X171370000Y-118580000D01*
X171040000Y-112040000D02*
X171370000Y-112040000D01*
X164630000Y-118580000D02*
X164960000Y-118580000D01*
X164630000Y-112040000D02*
X164630000Y-118580000D01*
X164960000Y-112040000D02*
X164630000Y-112040000D01*
X167370000Y-118580000D02*
X167040000Y-118580000D01*
X167370000Y-112040000D02*
X167370000Y-118580000D01*
X167040000Y-112040000D02*
X167370000Y-112040000D01*
X169122795Y-103635816D02*
G75*
G02X169850000Y-104160000I-1122795J-2324184D01*
G01*
X166901193Y-103603600D02*
G75*
G03X165400000Y-105960000I1098807J-2356400D01*
G01*
X166901193Y-108316400D02*
G75*
G02X165400000Y-105960000I1098807J2356400D01*
G01*
X169122795Y-108284184D02*
G75*
G03X169850000Y-107760000I-1122795J2324184D01*
G01*
X169850000Y-107760000D02*
X169850000Y-104160000D01*
X155570000Y-115160000D02*
X154970000Y-115160000D01*
X155570000Y-116760000D02*
X155570000Y-115160000D01*
X154970000Y-116760000D02*
X155570000Y-116760000D01*
X155570000Y-117700000D02*
X154970000Y-117700000D01*
X155570000Y-119300000D02*
X155570000Y-117700000D01*
X154970000Y-119300000D02*
X155570000Y-119300000D01*
X160990000Y-116210000D02*
X159990000Y-116210000D01*
X160990000Y-118250000D02*
X159990000Y-118250000D01*
X159460000Y-116210000D02*
X159990000Y-115960000D01*
X159460000Y-118250000D02*
X159460000Y-116210000D01*
X159990000Y-118500000D02*
X159460000Y-118250000D01*
X159990000Y-115960000D02*
X160990000Y-115960000D01*
X159990000Y-118500000D02*
X159990000Y-115960000D01*
X160990000Y-118500000D02*
X159990000Y-118500000D01*
X156000000Y-120170000D02*
X160000000Y-120170000D01*
X154970000Y-114580000D02*
X154970000Y-119880000D01*
X160990000Y-114580000D02*
X154970000Y-114580000D01*
X160990000Y-119880000D02*
X160990000Y-114580000D01*
X154970000Y-119880000D02*
X160990000Y-119880000D01*
X165660000Y-99830000D02*
X165660000Y-100430000D01*
X167260000Y-99830000D02*
X165660000Y-99830000D01*
X167260000Y-100430000D02*
X167260000Y-99830000D01*
X168200000Y-99830000D02*
X168200000Y-100430000D01*
X169800000Y-99830000D02*
X168200000Y-99830000D01*
X169800000Y-100430000D02*
X169800000Y-99830000D01*
X166710000Y-94410000D02*
X166710000Y-95410000D01*
X168750000Y-94410000D02*
X168750000Y-95410000D01*
X166710000Y-95940000D02*
X166460000Y-95410000D01*
X168750000Y-95940000D02*
X166710000Y-95940000D01*
X169000000Y-95410000D02*
X168750000Y-95940000D01*
X166460000Y-95410000D02*
X166460000Y-94410000D01*
X169000000Y-95410000D02*
X166460000Y-95410000D01*
X169000000Y-94410000D02*
X169000000Y-95410000D01*
X170670000Y-99400000D02*
X170670000Y-95400000D01*
X165080000Y-100430000D02*
X170380000Y-100430000D01*
X165080000Y-94410000D02*
X165080000Y-100430000D01*
X170380000Y-94410000D02*
X165080000Y-94410000D01*
X170380000Y-100430000D02*
X170380000Y-94410000D01*
X155545225Y-99575000D02*
X155545225Y-100075000D01*
X155295225Y-99825000D02*
X155795225Y-99825000D01*
X160701000Y-101016000D02*
X160701000Y-101584000D01*
X160661000Y-100782000D02*
X160661000Y-101818000D01*
X160621000Y-100623000D02*
X160621000Y-101977000D01*
X160581000Y-100495000D02*
X160581000Y-102105000D01*
X160541000Y-100385000D02*
X160541000Y-102215000D01*
X160501000Y-100289000D02*
X160501000Y-102311000D01*
X160461000Y-100202000D02*
X160461000Y-102398000D01*
X160421000Y-100122000D02*
X160421000Y-102478000D01*
X160381000Y-100049000D02*
X160381000Y-102551000D01*
X160341000Y-99981000D02*
X160341000Y-102619000D01*
X160301000Y-99917000D02*
X160301000Y-102683000D01*
X160261000Y-99857000D02*
X160261000Y-102743000D01*
X160221000Y-99800000D02*
X160221000Y-102800000D01*
X160181000Y-99746000D02*
X160181000Y-102854000D01*
X160141000Y-99695000D02*
X160141000Y-102905000D01*
X160101000Y-102340000D02*
X160101000Y-102953000D01*
X160101000Y-99647000D02*
X160101000Y-100260000D01*
X160061000Y-102340000D02*
X160061000Y-102999000D01*
X160061000Y-99601000D02*
X160061000Y-100260000D01*
X160021000Y-102340000D02*
X160021000Y-103043000D01*
X160021000Y-99557000D02*
X160021000Y-100260000D01*
X159981000Y-102340000D02*
X159981000Y-103085000D01*
X159981000Y-99515000D02*
X159981000Y-100260000D01*
X159941000Y-102340000D02*
X159941000Y-103126000D01*
X159941000Y-99474000D02*
X159941000Y-100260000D01*
X159901000Y-102340000D02*
X159901000Y-103164000D01*
X159901000Y-99436000D02*
X159901000Y-100260000D01*
X159861000Y-102340000D02*
X159861000Y-103201000D01*
X159861000Y-99399000D02*
X159861000Y-100260000D01*
X159821000Y-102340000D02*
X159821000Y-103237000D01*
X159821000Y-99363000D02*
X159821000Y-100260000D01*
X159781000Y-102340000D02*
X159781000Y-103271000D01*
X159781000Y-99329000D02*
X159781000Y-100260000D01*
X159741000Y-102340000D02*
X159741000Y-103304000D01*
X159741000Y-99296000D02*
X159741000Y-100260000D01*
X159701000Y-102340000D02*
X159701000Y-103335000D01*
X159701000Y-99265000D02*
X159701000Y-100260000D01*
X159661000Y-102340000D02*
X159661000Y-103365000D01*
X159661000Y-99235000D02*
X159661000Y-100260000D01*
X159621000Y-102340000D02*
X159621000Y-103395000D01*
X159621000Y-99205000D02*
X159621000Y-100260000D01*
X159581000Y-102340000D02*
X159581000Y-103422000D01*
X159581000Y-99178000D02*
X159581000Y-100260000D01*
X159541000Y-102340000D02*
X159541000Y-103449000D01*
X159541000Y-99151000D02*
X159541000Y-100260000D01*
X159501000Y-102340000D02*
X159501000Y-103475000D01*
X159501000Y-99125000D02*
X159501000Y-100260000D01*
X159461000Y-102340000D02*
X159461000Y-103500000D01*
X159461000Y-99100000D02*
X159461000Y-100260000D01*
X159421000Y-102340000D02*
X159421000Y-103524000D01*
X159421000Y-99076000D02*
X159421000Y-100260000D01*
X159381000Y-102340000D02*
X159381000Y-103547000D01*
X159381000Y-99053000D02*
X159381000Y-100260000D01*
X159341000Y-102340000D02*
X159341000Y-103568000D01*
X159341000Y-99032000D02*
X159341000Y-100260000D01*
X159301000Y-102340000D02*
X159301000Y-103590000D01*
X159301000Y-99010000D02*
X159301000Y-100260000D01*
X159261000Y-102340000D02*
X159261000Y-103610000D01*
X159261000Y-98990000D02*
X159261000Y-100260000D01*
X159221000Y-102340000D02*
X159221000Y-103629000D01*
X159221000Y-98971000D02*
X159221000Y-100260000D01*
X159181000Y-102340000D02*
X159181000Y-103648000D01*
X159181000Y-98952000D02*
X159181000Y-100260000D01*
X159141000Y-102340000D02*
X159141000Y-103665000D01*
X159141000Y-98935000D02*
X159141000Y-100260000D01*
X159101000Y-102340000D02*
X159101000Y-103682000D01*
X159101000Y-98918000D02*
X159101000Y-100260000D01*
X159061000Y-102340000D02*
X159061000Y-103698000D01*
X159061000Y-98902000D02*
X159061000Y-100260000D01*
X159021000Y-102340000D02*
X159021000Y-103714000D01*
X159021000Y-98886000D02*
X159021000Y-100260000D01*
X158981000Y-102340000D02*
X158981000Y-103728000D01*
X158981000Y-98872000D02*
X158981000Y-100260000D01*
X158941000Y-102340000D02*
X158941000Y-103742000D01*
X158941000Y-98858000D02*
X158941000Y-100260000D01*
X158901000Y-102340000D02*
X158901000Y-103755000D01*
X158901000Y-98845000D02*
X158901000Y-100260000D01*
X158861000Y-102340000D02*
X158861000Y-103768000D01*
X158861000Y-98832000D02*
X158861000Y-100260000D01*
X158821000Y-102340000D02*
X158821000Y-103780000D01*
X158821000Y-98820000D02*
X158821000Y-100260000D01*
X158780000Y-102340000D02*
X158780000Y-103791000D01*
X158780000Y-98809000D02*
X158780000Y-100260000D01*
X158740000Y-102340000D02*
X158740000Y-103801000D01*
X158740000Y-98799000D02*
X158740000Y-100260000D01*
X158700000Y-102340000D02*
X158700000Y-103811000D01*
X158700000Y-98789000D02*
X158700000Y-100260000D01*
X158660000Y-102340000D02*
X158660000Y-103820000D01*
X158660000Y-98780000D02*
X158660000Y-100260000D01*
X158620000Y-102340000D02*
X158620000Y-103828000D01*
X158620000Y-98772000D02*
X158620000Y-100260000D01*
X158580000Y-102340000D02*
X158580000Y-103836000D01*
X158580000Y-98764000D02*
X158580000Y-100260000D01*
X158540000Y-102340000D02*
X158540000Y-103843000D01*
X158540000Y-98757000D02*
X158540000Y-100260000D01*
X158500000Y-102340000D02*
X158500000Y-103850000D01*
X158500000Y-98750000D02*
X158500000Y-100260000D01*
X158460000Y-102340000D02*
X158460000Y-103856000D01*
X158460000Y-98744000D02*
X158460000Y-100260000D01*
X158420000Y-102340000D02*
X158420000Y-103861000D01*
X158420000Y-98739000D02*
X158420000Y-100260000D01*
X158380000Y-102340000D02*
X158380000Y-103865000D01*
X158380000Y-98735000D02*
X158380000Y-100260000D01*
X158340000Y-102340000D02*
X158340000Y-103869000D01*
X158340000Y-98731000D02*
X158340000Y-100260000D01*
X158300000Y-102340000D02*
X158300000Y-103873000D01*
X158300000Y-98727000D02*
X158300000Y-100260000D01*
X158260000Y-102340000D02*
X158260000Y-103876000D01*
X158260000Y-98724000D02*
X158260000Y-100260000D01*
X158220000Y-102340000D02*
X158220000Y-103878000D01*
X158220000Y-98722000D02*
X158220000Y-100260000D01*
X158180000Y-102340000D02*
X158180000Y-103879000D01*
X158180000Y-98721000D02*
X158180000Y-100260000D01*
X158140000Y-98720000D02*
X158140000Y-100260000D01*
X158140000Y-102340000D02*
X158140000Y-103880000D01*
X158100000Y-98720000D02*
X158100000Y-100260000D01*
X158100000Y-102340000D02*
X158100000Y-103880000D01*
X160720000Y-101300000D02*
G75*
G03X160720000Y-101300000I-2620000J0D01*
G01*
X160080000Y-131621000D02*
X160080000Y-132879000D01*
X161920000Y-131621000D02*
X161920000Y-132879000D01*
D11*
X182423333Y-133082380D02*
X182090000Y-132606190D01*
X181851904Y-133082380D02*
X181851904Y-132082380D01*
X182232857Y-132082380D01*
X182328095Y-132130000D01*
X182375714Y-132177619D01*
X182423333Y-132272857D01*
X182423333Y-132415714D01*
X182375714Y-132510952D01*
X182328095Y-132558571D01*
X182232857Y-132606190D01*
X181851904Y-132606190D01*
X182756666Y-132082380D02*
X183375714Y-132082380D01*
X183042380Y-132463333D01*
X183185238Y-132463333D01*
X183280476Y-132510952D01*
X183328095Y-132558571D01*
X183375714Y-132653809D01*
X183375714Y-132891904D01*
X183328095Y-132987142D01*
X183280476Y-133034761D01*
X183185238Y-133082380D01*
X182899523Y-133082380D01*
X182804285Y-133034761D01*
X182756666Y-132987142D01*
X182423333Y-111382380D02*
X182090000Y-110906190D01*
X181851904Y-111382380D02*
X181851904Y-110382380D01*
X182232857Y-110382380D01*
X182328095Y-110430000D01*
X182375714Y-110477619D01*
X182423333Y-110572857D01*
X182423333Y-110715714D01*
X182375714Y-110810952D01*
X182328095Y-110858571D01*
X182232857Y-110906190D01*
X181851904Y-110906190D01*
X182804285Y-110477619D02*
X182851904Y-110430000D01*
X182947142Y-110382380D01*
X183185238Y-110382380D01*
X183280476Y-110430000D01*
X183328095Y-110477619D01*
X183375714Y-110572857D01*
X183375714Y-110668095D01*
X183328095Y-110810952D01*
X182756666Y-111382380D01*
X183375714Y-111382380D01*
X185472380Y-129603333D02*
X186186666Y-129603333D01*
X186329523Y-129650952D01*
X186424761Y-129746190D01*
X186472380Y-129889047D01*
X186472380Y-129984285D01*
X185567619Y-129174761D02*
X185520000Y-129127142D01*
X185472380Y-129031904D01*
X185472380Y-128793809D01*
X185520000Y-128698571D01*
X185567619Y-128650952D01*
X185662857Y-128603333D01*
X185758095Y-128603333D01*
X185900952Y-128650952D01*
X186472380Y-129222380D01*
X186472380Y-128603333D01*
X185372380Y-120003333D02*
X186086666Y-120003333D01*
X186229523Y-120050952D01*
X186324761Y-120146190D01*
X186372380Y-120289047D01*
X186372380Y-120384285D01*
X186372380Y-119003333D02*
X186372380Y-119574761D01*
X186372380Y-119289047D02*
X185372380Y-119289047D01*
X185515238Y-119384285D01*
X185610476Y-119479523D01*
X185658095Y-119574761D01*
X142405714Y-95086666D02*
X142881904Y-95086666D01*
X142310476Y-95372380D02*
X142643809Y-94372380D01*
X142977142Y-95372380D01*
X143834285Y-95372380D02*
X143262857Y-95372380D01*
X143548571Y-95372380D02*
X143548571Y-94372380D01*
X143453333Y-94515238D01*
X143358095Y-94610476D01*
X143262857Y-94658095D01*
X159082380Y-140856666D02*
X158606190Y-141190000D01*
X159082380Y-141428095D02*
X158082380Y-141428095D01*
X158082380Y-141047142D01*
X158130000Y-140951904D01*
X158177619Y-140904285D01*
X158272857Y-140856666D01*
X158415714Y-140856666D01*
X158510952Y-140904285D01*
X158558571Y-140951904D01*
X158606190Y-141047142D01*
X158606190Y-141428095D01*
X158510952Y-140285238D02*
X158463333Y-140380476D01*
X158415714Y-140428095D01*
X158320476Y-140475714D01*
X158272857Y-140475714D01*
X158177619Y-140428095D01*
X158130000Y-140380476D01*
X158082380Y-140285238D01*
X158082380Y-140094761D01*
X158130000Y-139999523D01*
X158177619Y-139951904D01*
X158272857Y-139904285D01*
X158320476Y-139904285D01*
X158415714Y-139951904D01*
X158463333Y-139999523D01*
X158510952Y-140094761D01*
X158510952Y-140285238D01*
X158558571Y-140380476D01*
X158606190Y-140428095D01*
X158701428Y-140475714D01*
X158891904Y-140475714D01*
X158987142Y-140428095D01*
X159034761Y-140380476D01*
X159082380Y-140285238D01*
X159082380Y-140094761D01*
X159034761Y-139999523D01*
X158987142Y-139951904D01*
X158891904Y-139904285D01*
X158701428Y-139904285D01*
X158606190Y-139951904D01*
X158558571Y-139999523D01*
X158510952Y-140094761D01*
X166857142Y-127166666D02*
X166904761Y-127214285D01*
X166952380Y-127357142D01*
X166952380Y-127452380D01*
X166904761Y-127595238D01*
X166809523Y-127690476D01*
X166714285Y-127738095D01*
X166523809Y-127785714D01*
X166380952Y-127785714D01*
X166190476Y-127738095D01*
X166095238Y-127690476D01*
X166000000Y-127595238D01*
X165952380Y-127452380D01*
X165952380Y-127357142D01*
X166000000Y-127214285D01*
X166047619Y-127166666D01*
X166952380Y-126214285D02*
X166952380Y-126785714D01*
X166952380Y-126500000D02*
X165952380Y-126500000D01*
X166095238Y-126595238D01*
X166190476Y-126690476D01*
X166238095Y-126785714D01*
X132952380Y-111833333D02*
X133666666Y-111833333D01*
X133809523Y-111880952D01*
X133904761Y-111976190D01*
X133952380Y-112119047D01*
X133952380Y-112214285D01*
X132952380Y-111452380D02*
X132952380Y-110785714D01*
X133952380Y-111214285D01*
X152452380Y-132833333D02*
X153166666Y-132833333D01*
X153309523Y-132880952D01*
X153404761Y-132976190D01*
X153452380Y-133119047D01*
X153452380Y-133214285D01*
X152452380Y-131928571D02*
X152452380Y-132119047D01*
X152500000Y-132214285D01*
X152547619Y-132261904D01*
X152690476Y-132357142D01*
X152880952Y-132404761D01*
X153261904Y-132404761D01*
X153357142Y-132357142D01*
X153404761Y-132309523D01*
X153452380Y-132214285D01*
X153452380Y-132023809D01*
X153404761Y-131928571D01*
X153357142Y-131880952D01*
X153261904Y-131833333D01*
X153023809Y-131833333D01*
X152928571Y-131880952D01*
X152880952Y-131928571D01*
X152833333Y-132023809D01*
X152833333Y-132214285D01*
X152880952Y-132309523D01*
X152928571Y-132357142D01*
X153023809Y-132404761D01*
X153332380Y-110063333D02*
X154046666Y-110063333D01*
X154189523Y-110110952D01*
X154284761Y-110206190D01*
X154332380Y-110349047D01*
X154332380Y-110444285D01*
X154332380Y-109539523D02*
X154332380Y-109349047D01*
X154284761Y-109253809D01*
X154237142Y-109206190D01*
X154094285Y-109110952D01*
X153903809Y-109063333D01*
X153522857Y-109063333D01*
X153427619Y-109110952D01*
X153380000Y-109158571D01*
X153332380Y-109253809D01*
X153332380Y-109444285D01*
X153380000Y-109539523D01*
X153427619Y-109587142D01*
X153522857Y-109634761D01*
X153760952Y-109634761D01*
X153856190Y-109587142D01*
X153903809Y-109539523D01*
X153951428Y-109444285D01*
X153951428Y-109253809D01*
X153903809Y-109158571D01*
X153856190Y-109110952D01*
X153760952Y-109063333D01*
X176322380Y-122976666D02*
X175846190Y-123310000D01*
X176322380Y-123548095D02*
X175322380Y-123548095D01*
X175322380Y-123167142D01*
X175370000Y-123071904D01*
X175417619Y-123024285D01*
X175512857Y-122976666D01*
X175655714Y-122976666D01*
X175750952Y-123024285D01*
X175798571Y-123071904D01*
X175846190Y-123167142D01*
X175846190Y-123548095D01*
X176322380Y-122024285D02*
X176322380Y-122595714D01*
X176322380Y-122310000D02*
X175322380Y-122310000D01*
X175465238Y-122405238D01*
X175560476Y-122500476D01*
X175608095Y-122595714D01*
X169048095Y-127622380D02*
X169048095Y-128431904D01*
X169095714Y-128527142D01*
X169143333Y-128574761D01*
X169238571Y-128622380D01*
X169429047Y-128622380D01*
X169524285Y-128574761D01*
X169571904Y-128527142D01*
X169619523Y-128431904D01*
X169619523Y-127622380D01*
X170619523Y-128622380D02*
X170048095Y-128622380D01*
X170333809Y-128622380D02*
X170333809Y-127622380D01*
X170238571Y-127765238D01*
X170143333Y-127860476D01*
X170048095Y-127908095D01*
X172822380Y-115476666D02*
X172346190Y-115810000D01*
X172822380Y-116048095D02*
X171822380Y-116048095D01*
X171822380Y-115667142D01*
X171870000Y-115571904D01*
X171917619Y-115524285D01*
X172012857Y-115476666D01*
X172155714Y-115476666D01*
X172250952Y-115524285D01*
X172298571Y-115571904D01*
X172346190Y-115667142D01*
X172346190Y-116048095D01*
X171822380Y-115143333D02*
X171822380Y-114476666D01*
X172822380Y-114905238D01*
X168822380Y-115476666D02*
X168346190Y-115810000D01*
X168822380Y-116048095D02*
X167822380Y-116048095D01*
X167822380Y-115667142D01*
X167870000Y-115571904D01*
X167917619Y-115524285D01*
X168012857Y-115476666D01*
X168155714Y-115476666D01*
X168250952Y-115524285D01*
X168298571Y-115571904D01*
X168346190Y-115667142D01*
X168346190Y-116048095D01*
X167822380Y-114619523D02*
X167822380Y-114810000D01*
X167870000Y-114905238D01*
X167917619Y-114952857D01*
X168060476Y-115048095D01*
X168250952Y-115095714D01*
X168631904Y-115095714D01*
X168727142Y-115048095D01*
X168774761Y-115000476D01*
X168822380Y-114905238D01*
X168822380Y-114714761D01*
X168774761Y-114619523D01*
X168727142Y-114571904D01*
X168631904Y-114524285D01*
X168393809Y-114524285D01*
X168298571Y-114571904D01*
X168250952Y-114619523D01*
X168203333Y-114714761D01*
X168203333Y-114905238D01*
X168250952Y-115000476D01*
X168298571Y-115048095D01*
X168393809Y-115095714D01*
X164987619Y-106055238D02*
X164940000Y-106150476D01*
X164844761Y-106245714D01*
X164701904Y-106388571D01*
X164654285Y-106483809D01*
X164654285Y-106579047D01*
X164892380Y-106531428D02*
X164844761Y-106626666D01*
X164749523Y-106721904D01*
X164559047Y-106769523D01*
X164225714Y-106769523D01*
X164035238Y-106721904D01*
X163940000Y-106626666D01*
X163892380Y-106531428D01*
X163892380Y-106340952D01*
X163940000Y-106245714D01*
X164035238Y-106150476D01*
X164225714Y-106102857D01*
X164559047Y-106102857D01*
X164749523Y-106150476D01*
X164844761Y-106245714D01*
X164892380Y-106340952D01*
X164892380Y-106531428D01*
X164892380Y-105150476D02*
X164892380Y-105721904D01*
X164892380Y-105436190D02*
X163892380Y-105436190D01*
X164035238Y-105531428D01*
X164130476Y-105626666D01*
X164178095Y-105721904D01*
X153332380Y-117563333D02*
X154046666Y-117563333D01*
X154189523Y-117610952D01*
X154284761Y-117706190D01*
X154332380Y-117849047D01*
X154332380Y-117944285D01*
X153760952Y-116944285D02*
X153713333Y-117039523D01*
X153665714Y-117087142D01*
X153570476Y-117134761D01*
X153522857Y-117134761D01*
X153427619Y-117087142D01*
X153380000Y-117039523D01*
X153332380Y-116944285D01*
X153332380Y-116753809D01*
X153380000Y-116658571D01*
X153427619Y-116610952D01*
X153522857Y-116563333D01*
X153570476Y-116563333D01*
X153665714Y-116610952D01*
X153713333Y-116658571D01*
X153760952Y-116753809D01*
X153760952Y-116944285D01*
X153808571Y-117039523D01*
X153856190Y-117087142D01*
X153951428Y-117134761D01*
X154141904Y-117134761D01*
X154237142Y-117087142D01*
X154284761Y-117039523D01*
X154332380Y-116944285D01*
X154332380Y-116753809D01*
X154284761Y-116658571D01*
X154237142Y-116610952D01*
X154141904Y-116563333D01*
X153951428Y-116563333D01*
X153856190Y-116610952D01*
X153808571Y-116658571D01*
X153760952Y-116753809D01*
X167396666Y-100972380D02*
X167396666Y-101686666D01*
X167349047Y-101829523D01*
X167253809Y-101924761D01*
X167110952Y-101972380D01*
X167015714Y-101972380D01*
X168349047Y-100972380D02*
X167872857Y-100972380D01*
X167825238Y-101448571D01*
X167872857Y-101400952D01*
X167968095Y-101353333D01*
X168206190Y-101353333D01*
X168301428Y-101400952D01*
X168349047Y-101448571D01*
X168396666Y-101543809D01*
X168396666Y-101781904D01*
X168349047Y-101877142D01*
X168301428Y-101924761D01*
X168206190Y-101972380D01*
X167968095Y-101972380D01*
X167872857Y-101924761D01*
X167825238Y-101877142D01*
X157933333Y-97907142D02*
X157885714Y-97954761D01*
X157742857Y-98002380D01*
X157647619Y-98002380D01*
X157504761Y-97954761D01*
X157409523Y-97859523D01*
X157361904Y-97764285D01*
X157314285Y-97573809D01*
X157314285Y-97430952D01*
X157361904Y-97240476D01*
X157409523Y-97145238D01*
X157504761Y-97050000D01*
X157647619Y-97002380D01*
X157742857Y-97002380D01*
X157885714Y-97050000D01*
X157933333Y-97097619D01*
X158790476Y-97335714D02*
X158790476Y-98002380D01*
X158552380Y-96954761D02*
X158314285Y-97669047D01*
X158933333Y-97669047D01*
X163407142Y-132416666D02*
X163454761Y-132464285D01*
X163502380Y-132607142D01*
X163502380Y-132702380D01*
X163454761Y-132845238D01*
X163359523Y-132940476D01*
X163264285Y-132988095D01*
X163073809Y-133035714D01*
X162930952Y-133035714D01*
X162740476Y-132988095D01*
X162645238Y-132940476D01*
X162550000Y-132845238D01*
X162502380Y-132702380D01*
X162502380Y-132607142D01*
X162550000Y-132464285D01*
X162597619Y-132416666D01*
X162597619Y-132035714D02*
X162550000Y-131988095D01*
X162502380Y-131892857D01*
X162502380Y-131654761D01*
X162550000Y-131559523D01*
X162597619Y-131511904D01*
X162692857Y-131464285D01*
X162788095Y-131464285D01*
X162930952Y-131511904D01*
X163502380Y-132083333D01*
X163502380Y-131464285D01*
M02*
