G04 #@! TF.GenerationSoftware,KiCad,Pcbnew,5.1.6-c6e7f7d~87~ubuntu20.04.1*
G04 #@! TF.CreationDate,2020-08-28T13:52:41-04:00*
G04 #@! TF.ProjectId,dac_ino,6461635f-696e-46f2-9e6b-696361645f70,rev?*
G04 #@! TF.SameCoordinates,Original*
G04 #@! TF.FileFunction,Legend,Bot*
G04 #@! TF.FilePolarity,Positive*
%FSLAX46Y46*%
G04 Gerber Fmt 4.6, Leading zero omitted, Abs format (unit mm)*
G04 Created by KiCad (PCBNEW 5.1.6-c6e7f7d~87~ubuntu20.04.1) date 2020-08-28 13:52:41*
%MOMM*%
%LPD*%
G01*
G04 APERTURE LIST*
%ADD10C,0.150000*%
%ADD11C,0.120000*%
G04 APERTURE END LIST*
D10*
X141747619Y-131347619D02*
X142747619Y-131347619D01*
X141795238Y-131347619D02*
X141747619Y-131442857D01*
X141747619Y-131633333D01*
X141795238Y-131728571D01*
X141842857Y-131776190D01*
X141938095Y-131823809D01*
X142223809Y-131823809D01*
X142319047Y-131776190D01*
X142366666Y-131728571D01*
X142414285Y-131633333D01*
X142414285Y-131442857D01*
X142366666Y-131347619D01*
X141747619Y-130442857D02*
X142271428Y-130442857D01*
X142366666Y-130490476D01*
X142414285Y-130585714D01*
X142414285Y-130776190D01*
X142366666Y-130871428D01*
X141795238Y-130442857D02*
X141747619Y-130538095D01*
X141747619Y-130776190D01*
X141795238Y-130871428D01*
X141890476Y-130919047D01*
X141985714Y-130919047D01*
X142080952Y-130871428D01*
X142128571Y-130776190D01*
X142128571Y-130538095D01*
X142176190Y-130442857D01*
X141795238Y-129538095D02*
X141747619Y-129633333D01*
X141747619Y-129823809D01*
X141795238Y-129919047D01*
X141842857Y-129966666D01*
X141938095Y-130014285D01*
X142223809Y-130014285D01*
X142319047Y-129966666D01*
X142366666Y-129919047D01*
X142414285Y-129823809D01*
X142414285Y-129633333D01*
X142366666Y-129538095D01*
X142795238Y-128395238D02*
X141509523Y-129252380D01*
X141747619Y-128061904D02*
X142414285Y-128061904D01*
X142747619Y-128061904D02*
X142700000Y-128109523D01*
X142652380Y-128061904D01*
X142700000Y-128014285D01*
X142747619Y-128061904D01*
X142652380Y-128061904D01*
X142414285Y-127585714D02*
X141747619Y-127585714D01*
X142319047Y-127585714D02*
X142366666Y-127538095D01*
X142414285Y-127442857D01*
X142414285Y-127299999D01*
X142366666Y-127204761D01*
X142271428Y-127157142D01*
X141747619Y-127157142D01*
X141747619Y-126538095D02*
X141795238Y-126633333D01*
X141842857Y-126680952D01*
X141938095Y-126728571D01*
X142223809Y-126728571D01*
X142319047Y-126680952D01*
X142366666Y-126633333D01*
X142414285Y-126538095D01*
X142414285Y-126395238D01*
X142366666Y-126299999D01*
X142319047Y-126252380D01*
X142223809Y-126204761D01*
X141938095Y-126204761D01*
X141842857Y-126252380D01*
X141795238Y-126299999D01*
X141747619Y-126395238D01*
X141747619Y-126538095D01*
X142414285Y-125109523D02*
X141747619Y-124871428D01*
X142414285Y-124633333D01*
X141842857Y-124252380D02*
X141795238Y-124204761D01*
X141747619Y-124252380D01*
X141795238Y-124299999D01*
X141842857Y-124252380D01*
X141747619Y-124252380D01*
X141747619Y-122490476D02*
X141747619Y-123061904D01*
X141747619Y-122776190D02*
X142747619Y-122776190D01*
X142604761Y-122871428D01*
X142509523Y-122966666D01*
X142461904Y-123061904D01*
X141842857Y-122061904D02*
X141795238Y-122014285D01*
X141747619Y-122061904D01*
X141795238Y-122109523D01*
X141842857Y-122061904D01*
X141747619Y-122061904D01*
X142747619Y-121680952D02*
X142747619Y-121061904D01*
X142366666Y-121395238D01*
X142366666Y-121252380D01*
X142319047Y-121157142D01*
X142271428Y-121109523D01*
X142176190Y-121061904D01*
X141938095Y-121061904D01*
X141842857Y-121109523D01*
X141795238Y-121157142D01*
X141747619Y-121252380D01*
X141747619Y-121538095D01*
X141795238Y-121633333D01*
X141842857Y-121680952D01*
X141747619Y-120109523D02*
X141747619Y-120680952D01*
X141747619Y-120395238D02*
X142747619Y-120395238D01*
X142604761Y-120490476D01*
X142509523Y-120585714D01*
X142461904Y-120680952D01*
X142223809Y-118633333D02*
X142033333Y-118633333D01*
X142033333Y-118585714D02*
X142223809Y-118585714D01*
X142271428Y-118538095D02*
X141985714Y-118538095D01*
X142033333Y-118490476D02*
X142223809Y-118490476D01*
X142223809Y-118442857D02*
X142033333Y-118442857D01*
X142080952Y-118633333D02*
X141985714Y-118538095D01*
X142080952Y-118442857D01*
X142176190Y-118633333D02*
X142271428Y-118538095D01*
X142176190Y-118442857D01*
X142223809Y-118633333D02*
X142271428Y-118538095D01*
X142223809Y-118442857D01*
X142128571Y-118395238D01*
X142033333Y-118442857D01*
X141985714Y-118538095D01*
X142033333Y-118633333D01*
X142128571Y-118680952D01*
X142223809Y-118633333D01*
X141747619Y-116347619D02*
X142223809Y-116680952D01*
X141747619Y-116919047D02*
X142747619Y-116919047D01*
X142747619Y-116538095D01*
X142700000Y-116442857D01*
X142652380Y-116395238D01*
X142557142Y-116347619D01*
X142414285Y-116347619D01*
X142319047Y-116395238D01*
X142271428Y-116442857D01*
X142223809Y-116538095D01*
X142223809Y-116919047D01*
X141747619Y-115919047D02*
X142414285Y-115919047D01*
X142747619Y-115919047D02*
X142700000Y-115966666D01*
X142652380Y-115919047D01*
X142700000Y-115871428D01*
X142747619Y-115919047D01*
X142652380Y-115919047D01*
X141795238Y-115014285D02*
X141747619Y-115109523D01*
X141747619Y-115299999D01*
X141795238Y-115395238D01*
X141842857Y-115442857D01*
X141938095Y-115490476D01*
X142223809Y-115490476D01*
X142319047Y-115442857D01*
X142366666Y-115395238D01*
X142414285Y-115299999D01*
X142414285Y-115109523D01*
X142366666Y-115014285D01*
X141747619Y-114585714D02*
X142747619Y-114585714D01*
X141747619Y-114157142D02*
X142271428Y-114157142D01*
X142366666Y-114204761D01*
X142414285Y-114299999D01*
X142414285Y-114442857D01*
X142366666Y-114538095D01*
X142319047Y-114585714D01*
X141747619Y-112919047D02*
X142747619Y-112919047D01*
X142271428Y-112919047D02*
X142271428Y-112347619D01*
X141747619Y-112347619D02*
X142747619Y-112347619D01*
X141747619Y-111728571D02*
X141795238Y-111823809D01*
X141842857Y-111871428D01*
X141938095Y-111919047D01*
X142223809Y-111919047D01*
X142319047Y-111871428D01*
X142366666Y-111823809D01*
X142414285Y-111728571D01*
X142414285Y-111585714D01*
X142366666Y-111490476D01*
X142319047Y-111442857D01*
X142223809Y-111395238D01*
X141938095Y-111395238D01*
X141842857Y-111442857D01*
X141795238Y-111490476D01*
X141747619Y-111585714D01*
X141747619Y-111728571D01*
X141747619Y-110823809D02*
X141795238Y-110919047D01*
X141890476Y-110966666D01*
X142747619Y-110966666D01*
X141747619Y-110442857D02*
X142414285Y-110442857D01*
X142319047Y-110442857D02*
X142366666Y-110395238D01*
X142414285Y-110299999D01*
X142414285Y-110157142D01*
X142366666Y-110061904D01*
X142271428Y-110014285D01*
X141747619Y-110014285D01*
X142271428Y-110014285D02*
X142366666Y-109966666D01*
X142414285Y-109871428D01*
X142414285Y-109728571D01*
X142366666Y-109633333D01*
X142271428Y-109585714D01*
X141747619Y-109585714D01*
X141795238Y-108728571D02*
X141747619Y-108823809D01*
X141747619Y-109014285D01*
X141795238Y-109109523D01*
X141890476Y-109157142D01*
X142271428Y-109157142D01*
X142366666Y-109109523D01*
X142414285Y-109014285D01*
X142414285Y-108823809D01*
X142366666Y-108728571D01*
X142271428Y-108680952D01*
X142176190Y-108680952D01*
X142080952Y-109157142D01*
X141795238Y-108299999D02*
X141747619Y-108204761D01*
X141747619Y-108014285D01*
X141795238Y-107919047D01*
X141890476Y-107871428D01*
X141938095Y-107871428D01*
X142033333Y-107919047D01*
X142080952Y-108014285D01*
X142080952Y-108157142D01*
X142128571Y-108252380D01*
X142223809Y-108299999D01*
X142271428Y-108299999D01*
X142366666Y-108252380D01*
X142414285Y-108157142D01*
X142414285Y-108014285D01*
X142366666Y-107919047D01*
X142747619Y-106776190D02*
X142747619Y-106109523D01*
X141747619Y-106538095D01*
X142795238Y-105014285D02*
X141509523Y-105871428D01*
X142652380Y-104728571D02*
X142700000Y-104680952D01*
X142747619Y-104585714D01*
X142747619Y-104347619D01*
X142700000Y-104252380D01*
X142652380Y-104204761D01*
X142557142Y-104157142D01*
X142461904Y-104157142D01*
X142319047Y-104204761D01*
X141747619Y-104776190D01*
X141747619Y-104157142D01*
X142747619Y-103538095D02*
X142747619Y-103442857D01*
X142700000Y-103347619D01*
X142652380Y-103299999D01*
X142557142Y-103252380D01*
X142366666Y-103204761D01*
X142128571Y-103204761D01*
X141938095Y-103252380D01*
X141842857Y-103299999D01*
X141795238Y-103347619D01*
X141747619Y-103442857D01*
X141747619Y-103538095D01*
X141795238Y-103633333D01*
X141842857Y-103680952D01*
X141938095Y-103728571D01*
X142128571Y-103776190D01*
X142366666Y-103776190D01*
X142557142Y-103728571D01*
X142652380Y-103680952D01*
X142700000Y-103633333D01*
X142747619Y-103538095D01*
X142652380Y-102823809D02*
X142700000Y-102776190D01*
X142747619Y-102680952D01*
X142747619Y-102442857D01*
X142700000Y-102347619D01*
X142652380Y-102299999D01*
X142557142Y-102252380D01*
X142461904Y-102252380D01*
X142319047Y-102299999D01*
X141747619Y-102871428D01*
X141747619Y-102252380D01*
X142747619Y-101633333D02*
X142747619Y-101538095D01*
X142700000Y-101442857D01*
X142652380Y-101395238D01*
X142557142Y-101347619D01*
X142366666Y-101299999D01*
X142128571Y-101299999D01*
X141938095Y-101347619D01*
X141842857Y-101395238D01*
X141795238Y-101442857D01*
X141747619Y-101538095D01*
X141747619Y-101633333D01*
X141795238Y-101728571D01*
X141842857Y-101776190D01*
X141938095Y-101823809D01*
X142128571Y-101871428D01*
X142366666Y-101871428D01*
X142557142Y-101823809D01*
X142652380Y-101776190D01*
X142700000Y-101728571D01*
X142747619Y-101633333D01*
X142223809Y-99823809D02*
X142033333Y-99823809D01*
X142033333Y-99776190D02*
X142223809Y-99776190D01*
X142271428Y-99728571D02*
X141985714Y-99728571D01*
X142033333Y-99680952D02*
X142223809Y-99680952D01*
X142223809Y-99633333D02*
X142033333Y-99633333D01*
X142080952Y-99823809D02*
X141985714Y-99728571D01*
X142080952Y-99633333D01*
X142176190Y-99823809D02*
X142271428Y-99728571D01*
X142176190Y-99633333D01*
X142223809Y-99823809D02*
X142271428Y-99728571D01*
X142223809Y-99633333D01*
X142128571Y-99585714D01*
X142033333Y-99633333D01*
X141985714Y-99728571D01*
X142033333Y-99823809D01*
X142128571Y-99871428D01*
X142223809Y-99823809D01*
X142414285Y-98252380D02*
X142414285Y-97871428D01*
X141747619Y-98109523D02*
X142604761Y-98109523D01*
X142700000Y-98061904D01*
X142747619Y-97966666D01*
X142747619Y-97871428D01*
X141747619Y-97538095D02*
X142414285Y-97538095D01*
X142223809Y-97538095D02*
X142319047Y-97490476D01*
X142366666Y-97442857D01*
X142414285Y-97347619D01*
X142414285Y-97252380D01*
X141747619Y-96776190D02*
X141795238Y-96871428D01*
X141842857Y-96919047D01*
X141938095Y-96966666D01*
X142223809Y-96966666D01*
X142319047Y-96919047D01*
X142366666Y-96871428D01*
X142414285Y-96776190D01*
X142414285Y-96633333D01*
X142366666Y-96538095D01*
X142319047Y-96490476D01*
X142223809Y-96442857D01*
X141938095Y-96442857D01*
X141842857Y-96490476D01*
X141795238Y-96538095D01*
X141747619Y-96633333D01*
X141747619Y-96776190D01*
X141747619Y-96014285D02*
X142414285Y-96014285D01*
X142319047Y-96014285D02*
X142366666Y-95966666D01*
X142414285Y-95871428D01*
X142414285Y-95728571D01*
X142366666Y-95633333D01*
X142271428Y-95585714D01*
X141747619Y-95585714D01*
X142271428Y-95585714D02*
X142366666Y-95538095D01*
X142414285Y-95442857D01*
X142414285Y-95299999D01*
X142366666Y-95204761D01*
X142271428Y-95157142D01*
X141747619Y-95157142D01*
X141795238Y-93966666D02*
X141747619Y-93823809D01*
X141747619Y-93585714D01*
X141795238Y-93490476D01*
X141842857Y-93442857D01*
X141938095Y-93395238D01*
X142033333Y-93395238D01*
X142128571Y-93442857D01*
X142176190Y-93490476D01*
X142223809Y-93585714D01*
X142271428Y-93776190D01*
X142319047Y-93871428D01*
X142366666Y-93919047D01*
X142461904Y-93966666D01*
X142557142Y-93966666D01*
X142652380Y-93919047D01*
X142700000Y-93871428D01*
X142747619Y-93776190D01*
X142747619Y-93538095D01*
X142700000Y-93395238D01*
X142414285Y-93061904D02*
X141747619Y-92823809D01*
X142414285Y-92585714D02*
X141747619Y-92823809D01*
X141509523Y-92919047D01*
X141461904Y-92966666D01*
X141414285Y-93061904D01*
X142414285Y-92204761D02*
X141747619Y-92204761D01*
X142319047Y-92204761D02*
X142366666Y-92157142D01*
X142414285Y-92061904D01*
X142414285Y-91919047D01*
X142366666Y-91823809D01*
X142271428Y-91776190D01*
X141747619Y-91776190D01*
X141747619Y-90871428D02*
X142271428Y-90871428D01*
X142366666Y-90919047D01*
X142414285Y-91014285D01*
X142414285Y-91204761D01*
X142366666Y-91299999D01*
X141795238Y-90871428D02*
X141747619Y-90966666D01*
X141747619Y-91204761D01*
X141795238Y-91299999D01*
X141890476Y-91347619D01*
X141985714Y-91347619D01*
X142080952Y-91299999D01*
X142128571Y-91204761D01*
X142128571Y-90966666D01*
X142176190Y-90871428D01*
X142414285Y-90395238D02*
X141414285Y-90395238D01*
X142366666Y-90395238D02*
X142414285Y-90299999D01*
X142414285Y-90109523D01*
X142366666Y-90014285D01*
X142319047Y-89966666D01*
X142223809Y-89919047D01*
X141938095Y-89919047D01*
X141842857Y-89966666D01*
X141795238Y-90014285D01*
X141747619Y-90109523D01*
X141747619Y-90299999D01*
X141795238Y-90395238D01*
X141795238Y-89538095D02*
X141747619Y-89442857D01*
X141747619Y-89252380D01*
X141795238Y-89157142D01*
X141890476Y-89109523D01*
X141938095Y-89109523D01*
X142033333Y-89157142D01*
X142080952Y-89252380D01*
X142080952Y-89395238D01*
X142128571Y-89490476D01*
X142223809Y-89538095D01*
X142271428Y-89538095D01*
X142366666Y-89490476D01*
X142414285Y-89395238D01*
X142414285Y-89252380D01*
X142366666Y-89157142D01*
X141795238Y-88299999D02*
X141747619Y-88395238D01*
X141747619Y-88585714D01*
X141795238Y-88680952D01*
X141890476Y-88728571D01*
X142271428Y-88728571D01*
X142366666Y-88680952D01*
X142414285Y-88585714D01*
X142414285Y-88395238D01*
X142366666Y-88299999D01*
X142271428Y-88252380D01*
X142176190Y-88252380D01*
X142080952Y-88728571D01*
X141747619Y-87061904D02*
X142747619Y-87061904D01*
X142366666Y-87061904D02*
X142414285Y-86966666D01*
X142414285Y-86776190D01*
X142366666Y-86680952D01*
X142319047Y-86633333D01*
X142223809Y-86585714D01*
X141938095Y-86585714D01*
X141842857Y-86633333D01*
X141795238Y-86680952D01*
X141747619Y-86776190D01*
X141747619Y-86966666D01*
X141795238Y-87061904D01*
X142414285Y-86252380D02*
X141747619Y-86014285D01*
X142414285Y-85776190D02*
X141747619Y-86014285D01*
X141509523Y-86109523D01*
X141461904Y-86157142D01*
X141414285Y-86252380D01*
X142747619Y-84776190D02*
X141747619Y-84442857D01*
X142747619Y-84109523D01*
X141747619Y-83776190D02*
X142414285Y-83776190D01*
X142747619Y-83776190D02*
X142700000Y-83823809D01*
X142652380Y-83776190D01*
X142700000Y-83728571D01*
X142747619Y-83776190D01*
X142652380Y-83776190D01*
X142414285Y-83299999D02*
X141747619Y-83299999D01*
X142319047Y-83299999D02*
X142366666Y-83252380D01*
X142414285Y-83157142D01*
X142414285Y-83014285D01*
X142366666Y-82919047D01*
X142271428Y-82871428D01*
X141747619Y-82871428D01*
X141795238Y-81966666D02*
X141747619Y-82061904D01*
X141747619Y-82252380D01*
X141795238Y-82347619D01*
X141842857Y-82395238D01*
X141938095Y-82442857D01*
X142223809Y-82442857D01*
X142319047Y-82395238D01*
X142366666Y-82347619D01*
X142414285Y-82252380D01*
X142414285Y-82061904D01*
X142366666Y-81966666D01*
X141795238Y-81157142D02*
X141747619Y-81252380D01*
X141747619Y-81442857D01*
X141795238Y-81538095D01*
X141890476Y-81585714D01*
X142271428Y-81585714D01*
X142366666Y-81538095D01*
X142414285Y-81442857D01*
X142414285Y-81252380D01*
X142366666Y-81157142D01*
X142271428Y-81109523D01*
X142176190Y-81109523D01*
X142080952Y-81585714D01*
X142414285Y-80680952D02*
X141747619Y-80680952D01*
X142319047Y-80680952D02*
X142366666Y-80633333D01*
X142414285Y-80538095D01*
X142414285Y-80395238D01*
X142366666Y-80299999D01*
X142271428Y-80252380D01*
X141747619Y-80252380D01*
X142414285Y-79871428D02*
X142414285Y-79347619D01*
X141747619Y-79871428D01*
X141747619Y-79347619D01*
X141747619Y-78823809D02*
X141795238Y-78919047D01*
X141842857Y-78966666D01*
X141938095Y-79014285D01*
X142223809Y-79014285D01*
X142319047Y-78966666D01*
X142366666Y-78919047D01*
X142414285Y-78823809D01*
X142414285Y-78680952D01*
X142366666Y-78585714D01*
X142319047Y-78538095D01*
X142223809Y-78490476D01*
X141938095Y-78490476D01*
X141842857Y-78538095D01*
X141795238Y-78585714D01*
X141747619Y-78680952D01*
X141747619Y-78823809D01*
X141747619Y-77299999D02*
X142747619Y-77299999D01*
X142747619Y-76919047D01*
X142700000Y-76823809D01*
X142652380Y-76776190D01*
X142557142Y-76728571D01*
X142414285Y-76728571D01*
X142319047Y-76776190D01*
X142271428Y-76823809D01*
X142223809Y-76919047D01*
X142223809Y-77299999D01*
X141747619Y-75871428D02*
X142271428Y-75871428D01*
X142366666Y-75919047D01*
X142414285Y-76014285D01*
X142414285Y-76204761D01*
X142366666Y-76299999D01*
X141795238Y-75871428D02*
X141747619Y-75966666D01*
X141747619Y-76204761D01*
X141795238Y-76299999D01*
X141890476Y-76347619D01*
X141985714Y-76347619D01*
X142080952Y-76299999D01*
X142128571Y-76204761D01*
X142128571Y-75966666D01*
X142176190Y-75871428D01*
X141795238Y-74966666D02*
X141747619Y-75061904D01*
X141747619Y-75252380D01*
X141795238Y-75347619D01*
X141842857Y-75395238D01*
X141938095Y-75442857D01*
X142223809Y-75442857D01*
X142319047Y-75395238D01*
X142366666Y-75347619D01*
X142414285Y-75252380D01*
X142414285Y-75061904D01*
X142366666Y-74966666D01*
X141795238Y-74157142D02*
X141747619Y-74252380D01*
X141747619Y-74442857D01*
X141795238Y-74538095D01*
X141890476Y-74585714D01*
X142271428Y-74585714D01*
X142366666Y-74538095D01*
X142414285Y-74442857D01*
X142414285Y-74252380D01*
X142366666Y-74157142D01*
X142271428Y-74109523D01*
X142176190Y-74109523D01*
X142080952Y-74585714D01*
X141747619Y-73538095D02*
X141795238Y-73633333D01*
X141890476Y-73680952D01*
X142747619Y-73680952D01*
X141747619Y-73014285D02*
X141795238Y-73109523D01*
X141890476Y-73157142D01*
X142747619Y-73157142D01*
X141747619Y-72204761D02*
X142271428Y-72204761D01*
X142366666Y-72252380D01*
X142414285Y-72347619D01*
X142414285Y-72538095D01*
X142366666Y-72633333D01*
X141795238Y-72204761D02*
X141747619Y-72299999D01*
X141747619Y-72538095D01*
X141795238Y-72633333D01*
X141890476Y-72680952D01*
X141985714Y-72680952D01*
X142080952Y-72633333D01*
X142128571Y-72538095D01*
X142128571Y-72299999D01*
X142176190Y-72204761D01*
X142223809Y-70680952D02*
X142033333Y-70680952D01*
X142033333Y-70633333D02*
X142223809Y-70633333D01*
X142271428Y-70585714D02*
X141985714Y-70585714D01*
X142033333Y-70538095D02*
X142223809Y-70538095D01*
X142223809Y-70490476D02*
X142033333Y-70490476D01*
X142080952Y-70680952D02*
X141985714Y-70585714D01*
X142080952Y-70490476D01*
X142176190Y-70680952D02*
X142271428Y-70585714D01*
X142176190Y-70490476D01*
X142223809Y-70680952D02*
X142271428Y-70585714D01*
X142223809Y-70490476D01*
X142128571Y-70442857D01*
X142033333Y-70490476D01*
X141985714Y-70585714D01*
X142033333Y-70680952D01*
X142128571Y-70728571D01*
X142223809Y-70680952D01*
X141795238Y-68538095D02*
X141747619Y-68633333D01*
X141747619Y-68823809D01*
X141795238Y-68919047D01*
X141842857Y-68966666D01*
X141938095Y-69014285D01*
X142223809Y-69014285D01*
X142319047Y-68966666D01*
X142366666Y-68919047D01*
X142414285Y-68823809D01*
X142414285Y-68633333D01*
X142366666Y-68538095D01*
X141795238Y-67680952D02*
X141747619Y-67776190D01*
X141747619Y-67966666D01*
X141795238Y-68061904D01*
X141842857Y-68109523D01*
X141938095Y-68157142D01*
X142223809Y-68157142D01*
X142319047Y-68109523D01*
X142366666Y-68061904D01*
X142414285Y-67966666D01*
X142414285Y-67776190D01*
X142366666Y-67680952D01*
X142128571Y-67252380D02*
X142128571Y-66490476D01*
X141747619Y-66014285D02*
X142747619Y-66014285D01*
X142366666Y-66014285D02*
X142414285Y-65919047D01*
X142414285Y-65728571D01*
X142366666Y-65633333D01*
X142319047Y-65585714D01*
X142223809Y-65538095D01*
X141938095Y-65538095D01*
X141842857Y-65585714D01*
X141795238Y-65633333D01*
X141747619Y-65728571D01*
X141747619Y-65919047D01*
X141795238Y-66014285D01*
X142414285Y-65204761D02*
X141747619Y-64966666D01*
X142414285Y-64728571D02*
X141747619Y-64966666D01*
X141509523Y-65061904D01*
X141461904Y-65109523D01*
X141414285Y-65204761D01*
X142128571Y-64347619D02*
X142128571Y-63585714D01*
X141795238Y-62680952D02*
X141747619Y-62776190D01*
X141747619Y-62966666D01*
X141795238Y-63061904D01*
X141842857Y-63109523D01*
X141938095Y-63157142D01*
X142223809Y-63157142D01*
X142319047Y-63109523D01*
X142366666Y-63061904D01*
X142414285Y-62966666D01*
X142414285Y-62776190D01*
X142366666Y-62680952D01*
X141747619Y-61823809D02*
X142271428Y-61823809D01*
X142366666Y-61871428D01*
X142414285Y-61966666D01*
X142414285Y-62157142D01*
X142366666Y-62252380D01*
X141795238Y-61823809D02*
X141747619Y-61919047D01*
X141747619Y-62157142D01*
X141795238Y-62252380D01*
X141890476Y-62299999D01*
X141985714Y-62299999D01*
X142080952Y-62252380D01*
X142128571Y-62157142D01*
X142128571Y-61919047D01*
X142176190Y-61823809D01*
D11*
X221294000Y-126348800D02*
X221294000Y-125018800D01*
X219964000Y-126348800D02*
X221294000Y-126348800D01*
X218694000Y-126348800D02*
X218694000Y-123688800D01*
X218694000Y-123688800D02*
X200854000Y-123688800D01*
X218694000Y-126348800D02*
X200854000Y-126348800D01*
X200854000Y-126348800D02*
X200854000Y-123688800D01*
X181273000Y-126298000D02*
X181273000Y-124968000D01*
X179943000Y-126298000D02*
X181273000Y-126298000D01*
X178673000Y-126298000D02*
X178673000Y-123638000D01*
X178673000Y-123638000D02*
X176073000Y-123638000D01*
X178673000Y-126298000D02*
X176073000Y-126298000D01*
X176073000Y-126298000D02*
X176073000Y-123638000D01*
X186058000Y-126298000D02*
X186058000Y-123638000D01*
X193738000Y-126298000D02*
X186058000Y-126298000D01*
X193738000Y-123638000D02*
X186058000Y-123638000D01*
X193738000Y-126298000D02*
X193738000Y-123638000D01*
X195008000Y-126298000D02*
X196338000Y-126298000D01*
X196338000Y-126298000D02*
X196338000Y-124968000D01*
X166303000Y-126298000D02*
X166303000Y-124968000D01*
X164973000Y-126298000D02*
X166303000Y-126298000D01*
X163703000Y-126298000D02*
X163703000Y-123638000D01*
X163703000Y-123638000D02*
X145863000Y-123638000D01*
X163703000Y-126298000D02*
X145863000Y-126298000D01*
X145863000Y-126298000D02*
X145863000Y-123638000D01*
D10*
X211681142Y-122151085D02*
X211681142Y-122686800D01*
X211716857Y-122793942D01*
X211788285Y-122865371D01*
X211895428Y-122901085D01*
X211966857Y-122901085D01*
X210931142Y-122901085D02*
X211359714Y-122901085D01*
X211145428Y-122901085D02*
X211145428Y-122151085D01*
X211216857Y-122258228D01*
X211288285Y-122329657D01*
X211359714Y-122365371D01*
X210288285Y-122401085D02*
X210288285Y-122901085D01*
X210466857Y-122115371D02*
X210645428Y-122651085D01*
X210181142Y-122651085D01*
X222431142Y-127826657D02*
X222466857Y-127862371D01*
X222574000Y-127898085D01*
X222645428Y-127898085D01*
X222752571Y-127862371D01*
X222824000Y-127790942D01*
X222859714Y-127719514D01*
X222895428Y-127576657D01*
X222895428Y-127469514D01*
X222859714Y-127326657D01*
X222824000Y-127255228D01*
X222752571Y-127183800D01*
X222645428Y-127148085D01*
X222574000Y-127148085D01*
X222466857Y-127183800D01*
X222431142Y-127219514D01*
X222216857Y-127148085D02*
X221966857Y-127898085D01*
X221716857Y-127148085D01*
X221466857Y-127898085D02*
X221466857Y-127148085D01*
X221109714Y-127898085D02*
X221109714Y-127148085D01*
X220681142Y-127898085D01*
X220681142Y-127148085D01*
X219788285Y-127683800D02*
X219431142Y-127683800D01*
X219859714Y-127898085D02*
X219609714Y-127148085D01*
X219359714Y-127898085D01*
X217716857Y-127505228D02*
X217609714Y-127540942D01*
X217574000Y-127576657D01*
X217538285Y-127648085D01*
X217538285Y-127755228D01*
X217574000Y-127826657D01*
X217609714Y-127862371D01*
X217681142Y-127898085D01*
X217966857Y-127898085D01*
X217966857Y-127148085D01*
X217716857Y-127148085D01*
X217645428Y-127183800D01*
X217609714Y-127219514D01*
X217574000Y-127290942D01*
X217574000Y-127362371D01*
X217609714Y-127433800D01*
X217645428Y-127469514D01*
X217716857Y-127505228D01*
X217966857Y-127505228D01*
X215645428Y-127826657D02*
X215681142Y-127862371D01*
X215788285Y-127898085D01*
X215859714Y-127898085D01*
X215966857Y-127862371D01*
X216038285Y-127790942D01*
X216074000Y-127719514D01*
X216109714Y-127576657D01*
X216109714Y-127469514D01*
X216074000Y-127326657D01*
X216038285Y-127255228D01*
X215966857Y-127183800D01*
X215859714Y-127148085D01*
X215788285Y-127148085D01*
X215681142Y-127183800D01*
X215645428Y-127219514D01*
X214181142Y-127898085D02*
X214181142Y-127148085D01*
X214002571Y-127148085D01*
X213895428Y-127183800D01*
X213824000Y-127255228D01*
X213788285Y-127326657D01*
X213752571Y-127469514D01*
X213752571Y-127576657D01*
X213788285Y-127719514D01*
X213824000Y-127790942D01*
X213895428Y-127862371D01*
X214002571Y-127898085D01*
X214181142Y-127898085D01*
X211859714Y-127826657D02*
X211895428Y-127862371D01*
X212002571Y-127898085D01*
X212074000Y-127898085D01*
X212181142Y-127862371D01*
X212252571Y-127790942D01*
X212288285Y-127719514D01*
X212324000Y-127576657D01*
X212324000Y-127469514D01*
X212288285Y-127326657D01*
X212252571Y-127255228D01*
X212181142Y-127183800D01*
X212074000Y-127148085D01*
X212002571Y-127148085D01*
X211895428Y-127183800D01*
X211859714Y-127219514D01*
X211645428Y-127148085D02*
X211395428Y-127898085D01*
X211145428Y-127148085D01*
X210752571Y-127148085D02*
X210609714Y-127148085D01*
X210538285Y-127183800D01*
X210466857Y-127255228D01*
X210431142Y-127398085D01*
X210431142Y-127648085D01*
X210466857Y-127790942D01*
X210538285Y-127862371D01*
X210609714Y-127898085D01*
X210752571Y-127898085D01*
X210824000Y-127862371D01*
X210895428Y-127790942D01*
X210931142Y-127648085D01*
X210931142Y-127398085D01*
X210895428Y-127255228D01*
X210824000Y-127183800D01*
X210752571Y-127148085D01*
X210109714Y-127148085D02*
X210109714Y-127755228D01*
X210074000Y-127826657D01*
X210038285Y-127862371D01*
X209966857Y-127898085D01*
X209824000Y-127898085D01*
X209752571Y-127862371D01*
X209716857Y-127826657D01*
X209681142Y-127755228D01*
X209681142Y-127148085D01*
X209431142Y-127148085D02*
X209002571Y-127148085D01*
X209216857Y-127898085D02*
X209216857Y-127148085D01*
X208216857Y-127683800D02*
X207859714Y-127683800D01*
X208288285Y-127898085D02*
X208038285Y-127148085D01*
X207788285Y-127898085D01*
X206145428Y-127505228D02*
X206038285Y-127540942D01*
X206002571Y-127576657D01*
X205966857Y-127648085D01*
X205966857Y-127755228D01*
X206002571Y-127826657D01*
X206038285Y-127862371D01*
X206109714Y-127898085D01*
X206395428Y-127898085D01*
X206395428Y-127148085D01*
X206145428Y-127148085D01*
X206074000Y-127183800D01*
X206038285Y-127219514D01*
X206002571Y-127290942D01*
X206002571Y-127362371D01*
X206038285Y-127433800D01*
X206074000Y-127469514D01*
X206145428Y-127505228D01*
X206395428Y-127505228D01*
X204609714Y-127148085D02*
X204359714Y-127898085D01*
X204109714Y-127148085D01*
X203431142Y-127826657D02*
X203466857Y-127862371D01*
X203574000Y-127898085D01*
X203645428Y-127898085D01*
X203752571Y-127862371D01*
X203824000Y-127790942D01*
X203859714Y-127719514D01*
X203895428Y-127576657D01*
X203895428Y-127469514D01*
X203859714Y-127326657D01*
X203824000Y-127255228D01*
X203752571Y-127183800D01*
X203645428Y-127148085D01*
X203574000Y-127148085D01*
X203466857Y-127183800D01*
X203431142Y-127219514D01*
X202681142Y-127826657D02*
X202716857Y-127862371D01*
X202824000Y-127898085D01*
X202895428Y-127898085D01*
X203002571Y-127862371D01*
X203074000Y-127790942D01*
X203109714Y-127719514D01*
X203145428Y-127576657D01*
X203145428Y-127469514D01*
X203109714Y-127326657D01*
X203074000Y-127255228D01*
X203002571Y-127183800D01*
X202895428Y-127148085D01*
X202824000Y-127148085D01*
X202716857Y-127183800D01*
X202681142Y-127219514D01*
X200824000Y-127183800D02*
X200895428Y-127148085D01*
X201002571Y-127148085D01*
X201109714Y-127183800D01*
X201181142Y-127255228D01*
X201216857Y-127326657D01*
X201252571Y-127469514D01*
X201252571Y-127576657D01*
X201216857Y-127719514D01*
X201181142Y-127790942D01*
X201109714Y-127862371D01*
X201002571Y-127898085D01*
X200931142Y-127898085D01*
X200824000Y-127862371D01*
X200788285Y-127826657D01*
X200788285Y-127576657D01*
X200931142Y-127576657D01*
X200466857Y-127898085D02*
X200466857Y-127148085D01*
X200038285Y-127898085D01*
X200038285Y-127148085D01*
X199681142Y-127898085D02*
X199681142Y-127148085D01*
X199502571Y-127148085D01*
X199395428Y-127183800D01*
X199324000Y-127255228D01*
X199288285Y-127326657D01*
X199252571Y-127469514D01*
X199252571Y-127576657D01*
X199288285Y-127719514D01*
X199324000Y-127790942D01*
X199395428Y-127862371D01*
X199502571Y-127898085D01*
X199681142Y-127898085D01*
X179550142Y-122227285D02*
X179550142Y-122763000D01*
X179585857Y-122870142D01*
X179657285Y-122941571D01*
X179764428Y-122977285D01*
X179835857Y-122977285D01*
X178800142Y-122977285D02*
X179228714Y-122977285D01*
X179014428Y-122977285D02*
X179014428Y-122227285D01*
X179085857Y-122334428D01*
X179157285Y-122405857D01*
X179228714Y-122441571D01*
X178085857Y-122977285D02*
X178514428Y-122977285D01*
X178300142Y-122977285D02*
X178300142Y-122227285D01*
X178371571Y-122334428D01*
X178443000Y-122405857D01*
X178514428Y-122441571D01*
X180495342Y-127390085D02*
X180495342Y-126640085D01*
X180316771Y-126640085D01*
X180209628Y-126675800D01*
X180138200Y-126747228D01*
X180102485Y-126818657D01*
X180066771Y-126961514D01*
X180066771Y-127068657D01*
X180102485Y-127211514D01*
X180138200Y-127282942D01*
X180209628Y-127354371D01*
X180316771Y-127390085D01*
X180495342Y-127390085D01*
X179638200Y-126961514D02*
X179709628Y-126925800D01*
X179745342Y-126890085D01*
X179781057Y-126818657D01*
X179781057Y-126782942D01*
X179745342Y-126711514D01*
X179709628Y-126675800D01*
X179638200Y-126640085D01*
X179495342Y-126640085D01*
X179423914Y-126675800D01*
X179388200Y-126711514D01*
X179352485Y-126782942D01*
X179352485Y-126818657D01*
X179388200Y-126890085D01*
X179423914Y-126925800D01*
X179495342Y-126961514D01*
X179638200Y-126961514D01*
X179709628Y-126997228D01*
X179745342Y-127032942D01*
X179781057Y-127104371D01*
X179781057Y-127247228D01*
X179745342Y-127318657D01*
X179709628Y-127354371D01*
X179638200Y-127390085D01*
X179495342Y-127390085D01*
X179423914Y-127354371D01*
X179388200Y-127318657D01*
X179352485Y-127247228D01*
X179352485Y-127104371D01*
X179388200Y-127032942D01*
X179423914Y-126997228D01*
X179495342Y-126961514D01*
X177888200Y-127390085D02*
X177888200Y-126640085D01*
X177709628Y-126640085D01*
X177602485Y-126675800D01*
X177531057Y-126747228D01*
X177495342Y-126818657D01*
X177459628Y-126961514D01*
X177459628Y-127068657D01*
X177495342Y-127211514D01*
X177531057Y-127282942D01*
X177602485Y-127354371D01*
X177709628Y-127390085D01*
X177888200Y-127390085D01*
X177102485Y-127390085D02*
X176959628Y-127390085D01*
X176888200Y-127354371D01*
X176852485Y-127318657D01*
X176781057Y-127211514D01*
X176745342Y-127068657D01*
X176745342Y-126782942D01*
X176781057Y-126711514D01*
X176816771Y-126675800D01*
X176888200Y-126640085D01*
X177031057Y-126640085D01*
X177102485Y-126675800D01*
X177138200Y-126711514D01*
X177173914Y-126782942D01*
X177173914Y-126961514D01*
X177138200Y-127032942D01*
X177102485Y-127068657D01*
X177031057Y-127104371D01*
X176888200Y-127104371D01*
X176816771Y-127068657D01*
X176781057Y-127032942D01*
X176745342Y-126961514D01*
X191742142Y-121973285D02*
X191742142Y-122509000D01*
X191777857Y-122616142D01*
X191849285Y-122687571D01*
X191956428Y-122723285D01*
X192027857Y-122723285D01*
X190992142Y-122723285D02*
X191420714Y-122723285D01*
X191206428Y-122723285D02*
X191206428Y-121973285D01*
X191277857Y-122080428D01*
X191349285Y-122151857D01*
X191420714Y-122187571D01*
X190527857Y-121973285D02*
X190456428Y-121973285D01*
X190385000Y-122009000D01*
X190349285Y-122044714D01*
X190313571Y-122116142D01*
X190277857Y-122259000D01*
X190277857Y-122437571D01*
X190313571Y-122580428D01*
X190349285Y-122651857D01*
X190385000Y-122687571D01*
X190456428Y-122723285D01*
X190527857Y-122723285D01*
X190599285Y-122687571D01*
X190635000Y-122651857D01*
X190670714Y-122580428D01*
X190706428Y-122437571D01*
X190706428Y-122259000D01*
X190670714Y-122116142D01*
X190635000Y-122044714D01*
X190599285Y-122009000D01*
X190527857Y-121973285D01*
X195496914Y-127277400D02*
X195139771Y-127277400D01*
X195568342Y-127491685D02*
X195318342Y-126741685D01*
X195068342Y-127491685D01*
X194889771Y-126741685D02*
X194389771Y-126741685D01*
X194711200Y-127491685D01*
X192996914Y-127277400D02*
X192639771Y-127277400D01*
X193068342Y-127491685D02*
X192818342Y-126741685D01*
X192568342Y-127491685D01*
X191996914Y-126741685D02*
X192139771Y-126741685D01*
X192211200Y-126777400D01*
X192246914Y-126813114D01*
X192318342Y-126920257D01*
X192354057Y-127063114D01*
X192354057Y-127348828D01*
X192318342Y-127420257D01*
X192282628Y-127455971D01*
X192211200Y-127491685D01*
X192068342Y-127491685D01*
X191996914Y-127455971D01*
X191961200Y-127420257D01*
X191925485Y-127348828D01*
X191925485Y-127170257D01*
X191961200Y-127098828D01*
X191996914Y-127063114D01*
X192068342Y-127027400D01*
X192211200Y-127027400D01*
X192282628Y-127063114D01*
X192318342Y-127098828D01*
X192354057Y-127170257D01*
X190496914Y-127277400D02*
X190139771Y-127277400D01*
X190568342Y-127491685D02*
X190318342Y-126741685D01*
X190068342Y-127491685D01*
X189461200Y-126741685D02*
X189818342Y-126741685D01*
X189854057Y-127098828D01*
X189818342Y-127063114D01*
X189746914Y-127027400D01*
X189568342Y-127027400D01*
X189496914Y-127063114D01*
X189461200Y-127098828D01*
X189425485Y-127170257D01*
X189425485Y-127348828D01*
X189461200Y-127420257D01*
X189496914Y-127455971D01*
X189568342Y-127491685D01*
X189746914Y-127491685D01*
X189818342Y-127455971D01*
X189854057Y-127420257D01*
X187996914Y-127277400D02*
X187639771Y-127277400D01*
X188068342Y-127491685D02*
X187818342Y-126741685D01*
X187568342Y-127491685D01*
X186996914Y-126991685D02*
X186996914Y-127491685D01*
X187175485Y-126705971D02*
X187354057Y-127241685D01*
X186889771Y-127241685D01*
X156333000Y-122100285D02*
X156333000Y-122636000D01*
X156368714Y-122743142D01*
X156440142Y-122814571D01*
X156547285Y-122850285D01*
X156618714Y-122850285D01*
X156047285Y-122100285D02*
X155547285Y-122100285D01*
X155868714Y-122850285D01*
X167163200Y-126599600D02*
X167234628Y-126563885D01*
X167341771Y-126563885D01*
X167448914Y-126599600D01*
X167520342Y-126671028D01*
X167556057Y-126742457D01*
X167591771Y-126885314D01*
X167591771Y-126992457D01*
X167556057Y-127135314D01*
X167520342Y-127206742D01*
X167448914Y-127278171D01*
X167341771Y-127313885D01*
X167270342Y-127313885D01*
X167163200Y-127278171D01*
X167127485Y-127242457D01*
X167127485Y-126992457D01*
X167270342Y-126992457D01*
X166806057Y-127313885D02*
X166806057Y-126563885D01*
X166377485Y-127313885D01*
X166377485Y-126563885D01*
X166020342Y-127313885D02*
X166020342Y-126563885D01*
X165841771Y-126563885D01*
X165734628Y-126599600D01*
X165663200Y-126671028D01*
X165627485Y-126742457D01*
X165591771Y-126885314D01*
X165591771Y-126992457D01*
X165627485Y-127135314D01*
X165663200Y-127206742D01*
X165734628Y-127278171D01*
X165841771Y-127313885D01*
X166020342Y-127313885D01*
X164234628Y-126563885D02*
X163984628Y-127313885D01*
X163734628Y-126563885D01*
X163056057Y-127242457D02*
X163091771Y-127278171D01*
X163198914Y-127313885D01*
X163270342Y-127313885D01*
X163377485Y-127278171D01*
X163448914Y-127206742D01*
X163484628Y-127135314D01*
X163520342Y-126992457D01*
X163520342Y-126885314D01*
X163484628Y-126742457D01*
X163448914Y-126671028D01*
X163377485Y-126599600D01*
X163270342Y-126563885D01*
X163198914Y-126563885D01*
X163091771Y-126599600D01*
X163056057Y-126635314D01*
X162306057Y-127242457D02*
X162341771Y-127278171D01*
X162448914Y-127313885D01*
X162520342Y-127313885D01*
X162627485Y-127278171D01*
X162698914Y-127206742D01*
X162734628Y-127135314D01*
X162770342Y-126992457D01*
X162770342Y-126885314D01*
X162734628Y-126742457D01*
X162698914Y-126671028D01*
X162627485Y-126599600D01*
X162520342Y-126563885D01*
X162448914Y-126563885D01*
X162341771Y-126599600D01*
X162306057Y-126635314D01*
X160448914Y-126599600D02*
X160520342Y-126563885D01*
X160627485Y-126563885D01*
X160734628Y-126599600D01*
X160806057Y-126671028D01*
X160841771Y-126742457D01*
X160877485Y-126885314D01*
X160877485Y-126992457D01*
X160841771Y-127135314D01*
X160806057Y-127206742D01*
X160734628Y-127278171D01*
X160627485Y-127313885D01*
X160556057Y-127313885D01*
X160448914Y-127278171D01*
X160413200Y-127242457D01*
X160413200Y-126992457D01*
X160556057Y-126992457D01*
X159948914Y-126563885D02*
X159806057Y-126563885D01*
X159734628Y-126599600D01*
X159663200Y-126671028D01*
X159627485Y-126813885D01*
X159627485Y-127063885D01*
X159663200Y-127206742D01*
X159734628Y-127278171D01*
X159806057Y-127313885D01*
X159948914Y-127313885D01*
X160020342Y-127278171D01*
X160091771Y-127206742D01*
X160127485Y-127063885D01*
X160127485Y-126813885D01*
X160091771Y-126671028D01*
X160020342Y-126599600D01*
X159948914Y-126563885D01*
X159306057Y-126563885D02*
X159306057Y-127171028D01*
X159270342Y-127242457D01*
X159234628Y-127278171D01*
X159163200Y-127313885D01*
X159020342Y-127313885D01*
X158948914Y-127278171D01*
X158913200Y-127242457D01*
X158877485Y-127171028D01*
X158877485Y-126563885D01*
X158627485Y-126563885D02*
X158198914Y-126563885D01*
X158413200Y-127313885D02*
X158413200Y-126563885D01*
X157127485Y-126921028D02*
X157020342Y-126956742D01*
X156984628Y-126992457D01*
X156948914Y-127063885D01*
X156948914Y-127171028D01*
X156984628Y-127242457D01*
X157020342Y-127278171D01*
X157091771Y-127313885D01*
X157377485Y-127313885D01*
X157377485Y-126563885D01*
X157127485Y-126563885D01*
X157056057Y-126599600D01*
X157020342Y-126635314D01*
X156984628Y-126706742D01*
X156984628Y-126778171D01*
X157020342Y-126849600D01*
X157056057Y-126885314D01*
X157127485Y-126921028D01*
X157377485Y-126921028D01*
X155520342Y-127099600D02*
X155163200Y-127099600D01*
X155591771Y-127313885D02*
X155341771Y-126563885D01*
X155091771Y-127313885D01*
X153306057Y-126599600D02*
X153377485Y-126563885D01*
X153484628Y-126563885D01*
X153591771Y-126599600D01*
X153663200Y-126671028D01*
X153698914Y-126742457D01*
X153734628Y-126885314D01*
X153734628Y-126992457D01*
X153698914Y-127135314D01*
X153663200Y-127206742D01*
X153591771Y-127278171D01*
X153484628Y-127313885D01*
X153413200Y-127313885D01*
X153306057Y-127278171D01*
X153270342Y-127242457D01*
X153270342Y-126992457D01*
X153413200Y-126992457D01*
X152948914Y-127313885D02*
X152948914Y-126563885D01*
X152591771Y-127313885D02*
X152591771Y-126563885D01*
X152163200Y-127313885D01*
X152163200Y-126563885D01*
X151234628Y-127313885D02*
X151234628Y-126563885D01*
X151056057Y-126563885D01*
X150948914Y-126599600D01*
X150877485Y-126671028D01*
X150841771Y-126742457D01*
X150806057Y-126885314D01*
X150806057Y-126992457D01*
X150841771Y-127135314D01*
X150877485Y-127206742D01*
X150948914Y-127278171D01*
X151056057Y-127313885D01*
X151234628Y-127313885D01*
X148913200Y-127242457D02*
X148948914Y-127278171D01*
X149056057Y-127313885D01*
X149127485Y-127313885D01*
X149234628Y-127278171D01*
X149306057Y-127206742D01*
X149341771Y-127135314D01*
X149377485Y-126992457D01*
X149377485Y-126885314D01*
X149341771Y-126742457D01*
X149306057Y-126671028D01*
X149234628Y-126599600D01*
X149127485Y-126563885D01*
X149056057Y-126563885D01*
X148948914Y-126599600D01*
X148913200Y-126635314D01*
X147198914Y-126921028D02*
X147091771Y-126956742D01*
X147056057Y-126992457D01*
X147020342Y-127063885D01*
X147020342Y-127171028D01*
X147056057Y-127242457D01*
X147091771Y-127278171D01*
X147163200Y-127313885D01*
X147448914Y-127313885D01*
X147448914Y-126563885D01*
X147198914Y-126563885D01*
X147127485Y-126599600D01*
X147091771Y-126635314D01*
X147056057Y-126706742D01*
X147056057Y-126778171D01*
X147091771Y-126849600D01*
X147127485Y-126885314D01*
X147198914Y-126921028D01*
X147448914Y-126921028D01*
X145591771Y-127099600D02*
X145234628Y-127099600D01*
X145663200Y-127313885D02*
X145413200Y-126563885D01*
X145163200Y-127313885D01*
M02*
