M48
; DRILL file {KiCad 5.1.5-52549c5~84~ubuntu18.04.1} date Sat 04 Jul 2020 01:33:14 PM EDT
; FORMAT={-:-/ absolute / inch / decimal}
; #@! TF.CreationDate,2020-07-04T13:33:14-04:00
; #@! TF.GenerationSoftware,Kicad,Pcbnew,5.1.5-52549c5~84~ubuntu18.04.1
; #@! TF.FileFunction,Plated,1,2,PTH
FMAT,2
INCH
T1C0.0315
T2C0.0394
T3C0.0400
T4C0.0433
T5C0.0472
%
G90
G05
T1
X6.0386Y-3.7795
X6.3386Y-3.7795
X6.5354Y-3.6795
X6.5354Y-3.7795
X6.5354Y-3.8795
X6.5354Y-2.7346
X6.5354Y-2.8346
X6.5354Y-2.9346
X8.7945Y-2.5197
X9.0945Y-2.5197
X8.622Y-4.4685
X8.622Y-4.5669
X6.2598Y-4.5669
X6.5598Y-4.5669
X6.0386Y-3.622
X6.3386Y-3.622
X8.4646Y-3.2283
X8.563Y-3.2283
X6.5354Y-2.2622
X6.5354Y-2.3622
X6.5354Y-2.4622
X6.1457Y-5.1252
X6.1457Y-5.4252
X6.0386Y-2.5197
X6.3386Y-2.5197
X6.2598Y-4.0945
X6.5598Y-4.0945
X6.5354Y-3.2071
X6.5354Y-3.3071
X6.5354Y-3.4071
X8.7945Y-4.4488
X9.0945Y-4.4488
X6.2748Y-4.7244
X6.5748Y-4.7244
X7.7559Y-3.8583
X7.7559Y-3.9567
X6.0386Y-3.1496
X6.3386Y-3.1496
X7.7165Y-2.8091
X7.7165Y-2.8878
X6.063Y-4.0752
X6.063Y-4.1752
X6.063Y-4.2752
X8.7945Y-2.9134
X9.0945Y-2.9134
X6.063Y-4.3902
X6.063Y-4.4902
X6.063Y-4.5902
X7.874Y-3.8583
X7.874Y-3.9583
X7.874Y-4.0583
X7.874Y-4.1583
X7.874Y-4.2583
X7.874Y-4.3583
X7.874Y-4.4583
X8.174Y-3.8583
X8.174Y-3.9583
X8.174Y-4.0583
X8.174Y-4.1583
X8.174Y-4.2583
X8.174Y-4.3583
X8.174Y-4.4583
X6.0386Y-2.9921
X6.3386Y-2.9921
X6.0386Y-2.8346
X6.3386Y-2.8346
X8.7008Y-3.8189
X8.7992Y-3.8189
X6.8504Y-2.5394
X6.8504Y-2.6394
X6.8504Y-2.7394
X6.8504Y-2.8394
X6.8504Y-2.9394
X6.8504Y-3.0394
X6.8504Y-3.1394
X6.8504Y-3.2394
X6.8504Y-3.3394
X6.8504Y-3.4394
X6.8504Y-3.5394
X6.8504Y-3.6394
X6.8504Y-3.7394
X6.8504Y-3.8394
X6.8504Y-3.9394
X7.4504Y-2.5394
X7.4504Y-2.6394
X7.4504Y-2.7394
X7.4504Y-2.8394
X7.4504Y-2.9394
X7.4504Y-3.0394
X7.4504Y-3.1394
X7.4504Y-3.2394
X7.4504Y-3.3394
X7.4504Y-3.4394
X7.4504Y-3.5394
X7.4504Y-3.6394
X7.4504Y-3.7394
X7.4504Y-3.8394
X7.4504Y-3.9394
X6.0386Y-2.3622
X6.3386Y-2.3622
X8.845Y-2.7165
X8.945Y-2.7165
X9.045Y-2.7165
X8.3465Y-4.1882
X8.3465Y-4.4882
X7.0906Y-5.1252
X7.0906Y-5.4252
X8.622Y-2.9528
X8.622Y-3.0512
X6.6181Y-5.1252
X6.6181Y-5.4252
X6.2598Y-4.4094
X6.5598Y-4.4094
X7.563Y-5.1252
X7.563Y-5.4252
X8.7945Y-4.0551
X9.0945Y-4.0551
X6.0386Y-2.2047
X6.3386Y-2.2047
X6.0386Y-3.4646
X6.3386Y-3.4646
X6.0386Y-3.937
X6.3386Y-3.937
X6.0386Y-2.6772
X6.3386Y-2.6772
X8.3465Y-3.8976
X8.4252Y-3.8976
X8.4724Y-3.3772
X8.4724Y-3.6772
X8.5724Y-3.3772
X8.5724Y-3.6772
X8.6724Y-3.3772
X8.6724Y-3.6772
X8.7724Y-3.3772
X8.7724Y-3.6772
X7.874Y-3.2756
X7.874Y-3.3756
X7.874Y-3.4756
X7.874Y-3.5756
X8.174Y-3.2756
X8.174Y-3.3756
X8.174Y-3.4756
X8.174Y-3.5756
X8.3465Y-2.8126
X8.3465Y-2.8913
X8.7945Y-3.0709
X9.0945Y-3.0709
X8.7945Y-4.6063
X9.0945Y-4.6063
X8.843Y-4.252
X8.943Y-4.252
X9.043Y-4.252
X6.0386Y-3.3071
X6.3386Y-3.3071
X6.2598Y-4.252
X6.5598Y-4.252
T2
X8.62Y-2.5166
X8.62Y-2.6166
X8.62Y-2.7166
X7.96Y-4.922
X8.06Y-4.922
X8.16Y-4.922
X8.26Y-4.922
X8.36Y-4.922
X8.46Y-4.922
X8.56Y-4.922
X8.66Y-4.922
X8.625Y-4.0516
X8.625Y-4.1516
X8.625Y-4.2516
X5.795Y-4.92
X5.895Y-4.92
X5.995Y-4.92
X6.095Y-4.92
X6.195Y-4.92
X6.295Y-4.92
X6.395Y-4.92
X6.495Y-4.92
X6.9844Y-4.92
X7.0844Y-4.92
X7.3775Y-4.92
X7.4775Y-4.92
X7.5775Y-4.92
X7.6775Y-4.92
T3
X7.9709Y-2.2378
X7.9709Y-2.3378
X7.9709Y-2.4378
X7.9709Y-2.5378
X7.9709Y-2.6378
X8.0709Y-2.2378
X8.0709Y-2.3378
X8.0709Y-2.4378
X8.0709Y-2.5378
X8.0709Y-2.6378
T4
X8.3465Y-2.2927
X8.3465Y-2.5927
X7.7165Y-2.2927
X7.7165Y-2.5927
X7.7205Y-5.1252
X7.7205Y-5.4252
X6.7756Y-5.1252
X6.7756Y-5.4252
X7.4055Y-5.1252
X7.4055Y-5.4252
X6.4606Y-5.1252
X6.4606Y-5.4252
X6.3031Y-5.1252
X6.3031Y-5.4252
X7.248Y-5.1252
X7.248Y-5.4252
X5.9882Y-5.1252
X5.9882Y-5.4252
X6.9331Y-5.1252
X6.9331Y-5.4252
T5
X8.7441Y-5.2087
X8.8441Y-5.2087
X8.4685Y-5.2087
X8.5685Y-5.2087
X5.7874Y-2.3122
X5.7874Y-2.4122
X9.0157Y-3.2465
X9.0157Y-3.3465
X5.7874Y-4.1252
X5.7874Y-4.2252
X5.7874Y-3.7295
X5.7874Y-3.8295
X7.6677Y-4.6797
X7.7677Y-4.6797
X7.8677Y-4.6797
X7.9677Y-4.6797
X8.0677Y-4.6797
X8.1677Y-4.6797
X8.2677Y-4.6797
X8.3677Y-4.6797
X5.7874Y-2.7846
X5.7874Y-2.8846
X9.0157Y-3.7583
X9.0157Y-3.8583
X5.7874Y-4.4402
X5.7874Y-4.5402
X7.9173Y-5.2087
X8.0173Y-5.2087
X5.7874Y-3.2571
X5.7874Y-3.3571
X7.9528Y-3.0315
X8.0528Y-3.0315
X8.1929Y-5.2087
X8.2929Y-5.2087
T0
M30
