M48
; DRILL file {KiCad 5.1.5-52549c5~84~ubuntu18.04.1} date Sun 03 May 2020 08:57:13 PM EDT
; FORMAT={-:-/ absolute / inch / decimal}
; #@! TF.CreationDate,2020-05-03T20:57:13-04:00
; #@! TF.GenerationSoftware,Kicad,Pcbnew,5.1.5-52549c5~84~ubuntu18.04.1
; #@! TF.FileFunction,Plated,1,2,PTH
FMAT,2
INCH
T1C0.0315
T2C0.0394
T3C0.0400
T4C0.0433
T5C0.0472
T6C0.0472
%
G90
G05
T1
X6.2598Y-4.4094
X6.5598Y-4.4094
X8.8441Y-2.7165
X8.9441Y-2.7165
X9.0441Y-2.7165
X6.0386Y-3.937
X6.3386Y-3.937
X6.5354Y-2.7346
X6.5354Y-2.8346
X6.5354Y-2.9346
X6.5354Y-2.2622
X6.5354Y-2.3622
X6.5354Y-2.4622
X8.622Y-4.4685
X8.622Y-4.5669
X6.0386Y-2.3622
X6.3386Y-2.3622
X7.7165Y-2.8091
X7.7165Y-2.8878
X6.0386Y-3.7795
X6.3386Y-3.7795
X8.7945Y-3.0709
X9.0945Y-3.0709
X6.0386Y-3.1496
X6.3386Y-3.1496
X7.874Y-3.8583
X7.874Y-3.9583
X7.874Y-4.0583
X7.874Y-4.1583
X7.874Y-4.2583
X7.874Y-4.3583
X7.874Y-4.4583
X8.174Y-3.8583
X8.174Y-3.9583
X8.174Y-4.0583
X8.174Y-4.1583
X8.174Y-4.2583
X8.174Y-4.3583
X8.174Y-4.4583
X8.4724Y-3.3772
X8.4724Y-3.6772
X8.5724Y-3.3772
X8.5724Y-3.6772
X8.6724Y-3.3772
X8.6724Y-3.6772
X8.7724Y-3.3772
X8.7724Y-3.6772
X6.063Y-4.3902
X6.063Y-4.4902
X6.063Y-4.5902
X6.063Y-4.0752
X6.063Y-4.1752
X6.063Y-4.2752
X8.7945Y-4.4488
X9.0945Y-4.4488
X6.2598Y-4.0945
X6.5598Y-4.0945
X8.7945Y-4.0551
X9.0945Y-4.0551
X8.622Y-2.9528
X8.622Y-3.0512
X6.0386Y-3.4646
X6.3386Y-3.4646
X6.0386Y-2.5197
X6.3386Y-2.5197
X6.0386Y-2.8346
X6.3386Y-2.8346
X8.7008Y-3.8189
X8.7992Y-3.8189
X8.7945Y-2.9134
X9.0945Y-2.9134
X8.3465Y-3.8976
X8.4252Y-3.8976
X6.6535Y-4.8181
X6.6535Y-5.1181
X6.8504Y-2.8701
X6.8504Y-2.9701
X6.8504Y-3.0701
X6.8504Y-3.1701
X6.8504Y-3.2701
X6.8504Y-3.3701
X6.8504Y-3.4701
X6.8504Y-3.5701
X6.8504Y-3.6701
X6.8504Y-3.7701
X6.8504Y-3.8701
X6.8504Y-3.9701
X6.8504Y-4.0701
X6.8504Y-4.1701
X6.8504Y-4.2701
X7.4504Y-2.8701
X7.4504Y-2.9701
X7.4504Y-3.0701
X7.4504Y-3.1701
X7.4504Y-3.2701
X7.4504Y-3.3701
X7.4504Y-3.4701
X7.4504Y-3.5701
X7.4504Y-3.6701
X7.4504Y-3.7701
X7.4504Y-3.8701
X7.4504Y-3.9701
X7.4504Y-4.0701
X7.4504Y-4.1701
X7.4504Y-4.2701
X8.7945Y-4.6063
X9.0945Y-4.6063
X8.3465Y-4.1882
X8.3465Y-4.4882
X6.2598Y-4.252
X6.5598Y-4.252
X6.0386Y-3.3071
X6.3386Y-3.3071
X7.7559Y-3.8583
X7.7559Y-3.9567
X8.3858Y-4.8181
X8.3858Y-5.1181
X6.5354Y-3.2071
X6.5354Y-3.3071
X6.5354Y-3.4071
X6.0386Y-3.622
X6.3386Y-3.622
X6.5354Y-3.6795
X6.5354Y-3.7795
X6.5354Y-3.8795
X6.0386Y-2.9921
X6.3386Y-2.9921
X7.874Y-3.2756
X7.874Y-3.3756
X7.874Y-3.4756
X7.874Y-3.5756
X8.174Y-3.2756
X8.174Y-3.3756
X8.174Y-3.4756
X8.174Y-3.5756
X6.2598Y-4.5669
X6.5598Y-4.5669
X8.8441Y-4.252
X8.9441Y-4.252
X9.0441Y-4.252
X6.0386Y-2.2047
X6.3386Y-2.2047
X6.0386Y-2.6772
X6.3386Y-2.6772
X8.4646Y-3.2283
X8.563Y-3.2283
X7.9134Y-4.8181
X7.9134Y-5.1181
X7.4409Y-4.8181
X7.4409Y-5.1181
X8.7945Y-2.5197
X9.0945Y-2.5197
X6.9685Y-4.8181
X6.9685Y-5.1181
X8.3465Y-2.8126
X8.3465Y-2.8913
T2
X8.622Y-2.5197
X8.622Y-2.6197
X8.622Y-2.7197
X8.622Y-4.0551
X8.622Y-4.1551
X8.622Y-4.2551
T3
X7.9709Y-2.2378
X7.9709Y-2.3378
X7.9709Y-2.4378
X7.9709Y-2.5378
X7.9709Y-2.6378
X8.0709Y-2.2378
X8.0709Y-2.3378
X8.0709Y-2.4378
X8.0709Y-2.5378
X8.0709Y-2.6378
T4
X7.7165Y-2.2927
X7.7165Y-2.5927
X8.3465Y-2.2927
X8.3465Y-2.5927
X8.2283Y-4.8181
X8.2283Y-5.1181
X8.0709Y-4.8181
X8.0709Y-5.1181
X7.2835Y-4.8181
X7.2835Y-5.1181
X7.5984Y-4.8181
X7.5984Y-5.1181
X7.126Y-4.8181
X7.126Y-5.1181
X8.5433Y-4.8181
X8.5433Y-5.1181
X7.7559Y-4.8181
X7.7559Y-5.1181
X6.811Y-4.8181
X6.811Y-5.1181
T5
X7.6772Y-3.2114
X7.6772Y-3.3614
X7.6772Y-3.5114
X7.6772Y-3.6614
X6.4567Y-4.8819
X6.4567Y-5.0319
T6
X5.7874Y-2.7846
X5.7874Y-2.8846
X6.9185Y-5.3543
X7.0185Y-5.3543
X7.3909Y-5.3543
X7.4909Y-5.3543
X5.7874Y-4.4402
X5.7874Y-4.5402
X5.7874Y-4.1252
X5.7874Y-4.2252
X8.3358Y-5.3543
X8.4358Y-5.3543
X5.7874Y-3.7295
X5.7874Y-3.8295
X5.7874Y-3.2571
X5.7874Y-3.3571
X5.7874Y-2.3122
X5.7874Y-2.4122
X7.8634Y-5.3543
X7.9634Y-5.3543
X9.0157Y-3.2465
X9.0157Y-3.3465
X7.9528Y-3.0315
X8.0528Y-3.0315
X9.0157Y-3.7583
X9.0157Y-3.8583
T0
M30
